<svg width="1400.000000" height="840.000000" viewBox="0 0 1400 840" fill="none" xmlns="http://www.w3.org/2000/svg" xmlns:xlink="http://www.w3.org/1999/xlink">
	<desc>
			Created with Pixso.
	</desc>
	<defs>
		<filter id="filter_21_212_dd" x="482.227051" y="496.005859" width="439.999512" height="93.927734" filterUnits="userSpaceOnUse" color-interpolation-filters="sRGB">
			<feFlood flood-opacity="0" result="BackgroundImageFix"/>
			<feColorMatrix in="SourceAlpha" type="matrix" values="0 0 0 0 0 0 0 0 0 0 0 0 0 0 0 0 0 0 127 0" result="hardAlpha"/>
			<feOffset dx="0" dy="4"/>
			<feGaussianBlur stdDeviation="1.33333"/>
			<feComposite in2="hardAlpha" operator="out" k2="-1" k3="1"/>
			<feColorMatrix type="matrix" values="0 0 0 0 0 0 0 0 0 0 0 0 0 0 0 0 0 0 0.25 0"/>
			<feBlend mode="normal" in2="BackgroundImageFix" result="effect_dropShadow_1"/>
			<feBlend mode="normal" in="SourceGraphic" in2="effect_dropShadow_1" result="shape"/>
		</filter>
		<clipPath id="clip28_1218">
			<rect id="睡觉" width="260.000000" height="260.000000" transform="translate(573.000000 197.000000)" fill="white" fill-opacity="0"/>
		</clipPath>
		<clipPath id="clip21_1">
			<rect id="Dreams" width="1400.000000" height="840.000000" fill="white" fill-opacity="0"/>
		</clipPath>
		<linearGradient x1="-0.000033" y1="0.000000" x2="1399.786621" y2="14.660156" id="paint_linear_29_5_0" gradientUnits="userSpaceOnUse">
			<stop stop-color="#5496ED"/>
			<stop offset="0.330000" stop-color="#3866BD"/>
			<stop offset="0.660000" stop-color="#527DF7"/>
			<stop offset="1.000000" stop-color="#29B0F7"/>
		</linearGradient>
	</defs>
	<rect id="Dreams" width="1400.000000" height="840.000000" fill="#FFFFFF" fill-opacity="1.000000"/>
	<g clip-path="url(#clip21_1)">
		<rect id="矩形 5" width="1400.000000" height="840.000000" fill="url(#paint_linear_29_5_0)" fill-opacity="1.000000"/>
		<g filter="url(#filter_21_212_dd)">
			<path id="Dreams" d="M518.13 496L486.22 496L486.22 580L517.66 580Q536.88 580 547.15 570.4Q547.71 569.88 548.24 569.33Q548.33 569.24 548.41 569.15Q558.59 558.47 558.59 538.1Q558.59 519.51 549.44 508.53Q548.86 507.83 548.24 507.16Q546.96 505.78 545.53 504.56Q535.47 496 518.13 496ZM520.87 564.91Q519.63 565.11 518.36 565.11L506.03 565.11L506.03 510.88L518.36 510.88Q519.94 510.88 521.45 511.2Q525.02 511.96 528.2 514.49Q532.78 518.06 535.47 524.24Q538.17 530.43 538.17 538.25Q538.17 546.39 535.35 552.52Q532.54 558.64 527.97 561.89Q524.57 564.3 520.87 564.91ZM664.22 580.58Q670.29 579.26 674.86 576.51L674.86 560.54Q669.88 564.21 664.29 566.04Q658.71 567.87 652.53 567.87Q642.48 567.87 637.3 562.84Q633.39 559.05 632.26 552.4L678.93 552.4Q679.16 549.03 679.16 547.24Q679.16 532.3 671.77 523.75Q671.09 522.96 670.35 522.22Q668.8 520.7 667.07 519.45Q658.89 513.52 646.41 513.52Q633.67 513.52 625.42 519.61Q623.8 520.8 622.36 522.22Q621.61 522.96 620.93 523.75Q613.54 532.3 613.54 547.24Q613.54 560.27 619.76 568.71Q621.39 570.92 623.44 572.82Q633.34 581.93 652.53 581.93Q658.19 581.93 664.22 580.58ZM702.1 578.2Q708.34 581.55 716.38 581.55Q723.21 581.55 728.8 578.92Q731.56 577.62 734.02 575.69Q734.6 578.33 735.45 580L753.47 580Q751.07 574.6 751.07 564.88L751.07 515.19L731.85 515.19L731.85 519.26Q729.32 517.41 726.53 516.12Q725.34 515.58 724.11 515.13Q719.98 513.64 715.88 513.64Q708.5 513.64 702.65 516.64Q701.47 517.25 700.35 517.97Q698.71 519.04 697.25 520.31Q692.8 524.19 690.04 530.02Q686.38 537.75 686.38 547.71Q686.38 557.79 690.04 565.35Q692.42 570.25 696.1 573.79Q698.09 575.72 700.47 577.24Q701.27 577.75 702.1 578.2ZM880.72 580.29Q888.22 581.78 895.55 581.43Q904.11 581.03 910.01 576.86Q910.97 576.18 911.86 575.4Q914.6 572.98 916.16 569.96Q918.22 565.97 918.22 560.92Q918.22 554.92 915.59 551.08Q915.47 550.92 915.36 550.76Q912.75 547.14 908.32 544.84Q903.69 542.44 896.48 540.15Q891.44 538.6 888.75 536.69Q886.77 535.27 886.43 533.53Q886.31 532.91 886.41 532.24Q886.54 531.46 886.91 530.81Q888.61 527.9 895.28 527.9Q899.15 527.9 904.36 529.43Q909.58 530.92 913.42 532.83L913.42 517.36Q909.7 515.69 904.16 514.66Q898.65 513.64 893.26 513.64Q886.37 513.64 880.36 515.94Q880.08 516.05 879.81 516.16Q873.57 518.68 870.67 523.07Q869.69 524.56 869.05 526.18Q867.8 529.31 867.8 532.94Q867.8 538.25 870.03 541.68Q872.26 545.07 876.56 547.77Q880.9 550.46 888.22 552.52Q894.81 554.3 897.22 556.24Q897.96 556.83 898.41 557.6Q899.43 559.32 899 561.89Q898.77 563.33 897.1 564.7Q895.43 566.08 891.71 566.31Q886.41 566.67 879.49 564.35Q872.61 562.01 867.68 558.4L867.68 575.69Q873.22 578.79 880.72 580.29ZM782.25 521.93L782.25 515.07L763.06 515.07L763.06 580L782.25 580L782.25 534.15Q784.77 532.01 788.14 530.69Q791.51 529.34 793.76 529.34Q796.83 529.34 798.94 530.76Q799.47 531.12 799.95 531.57Q800.84 532.41 801.39 533.44Q802.29 535.12 802.29 537.28L802.29 580L821.51 580L821.51 534.03Q821.51 532.71 821.36 532.01Q823.53 530.81 825.82 530.07Q828.1 529.34 829.77 529.34Q832.83 529.34 834.94 530.76Q835.48 531.12 835.95 531.57Q836.84 532.41 837.39 533.44Q838.3 535.12 838.3 537.28L838.3 580L857.49 580L857.49 534.03Q857.49 527.05 854.27 522.19Q853.51 521.03 852.56 520Q851.67 519.02 850.64 518.22Q845.99 514.6 838.53 514.6Q837.85 514.6 837.17 514.64Q832.47 514.85 827.84 516.54Q826.02 517.2 824.3 518.05Q821.04 519.69 818.14 522.05Q817.47 521.03 816.66 520.14Q814.7 517.99 811.9 516.6Q807.94 514.6 802.52 514.6Q801.62 514.6 800.71 514.66Q796.25 514.93 791.86 516.54Q788.85 517.63 786.14 519.23Q784.11 520.43 782.25 521.93ZM588.57 522.16L588.57 515.19L569.38 515.19L569.38 580L588.57 580L588.57 536.08Q589.76 534.67 591.2 533.6Q593.08 532.18 595.4 531.33Q595.92 531.14 596.44 530.98Q600.08 529.84 604.07 529.84Q607.06 529.84 610.43 530.69L610.43 515.92Q607.79 515.07 604.77 515.07Q600.46 515.07 596.07 516.95Q593.16 518.18 590.79 520.09Q589.61 521.04 588.57 522.16ZM655.67 530.07Q659.51 532.94 661.06 538.95L632.84 538.95Q634.28 533.21 637.83 530.22Q639.02 529.21 640.38 528.53Q643.06 527.2 646.41 527.2Q650.73 527.2 654.05 529.03Q654.89 529.49 655.67 530.07ZM706.64 557.16Q704.75 552.85 704.75 547.71Q704.75 542.3 706.78 537.8Q706.86 537.63 706.95 537.46Q709.17 532.83 712.83 530.19L712.83 530.19Q715.64 528.17 718.68 527.7Q719.61 527.55 720.57 527.55Q723.59 527.55 727.1 528.76Q730.65 529.96 733.28 534.15L733.28 561.04Q730.65 565.23 727.04 566.49Q723.47 567.75 720.57 567.75Q719.65 567.75 718.76 567.61Q715.67 567.14 712.83 565.05Q712.64 564.91 712.46 564.77Q709.06 562.12 706.95 557.82Q706.79 557.49 706.64 557.16Z" fill="#FFFFFF" fill-opacity="1.000000" fill-rule="evenodd"/>
		</g>
		<g clip-path="url(#clip28_1218)">
			<path id="path" d="M666.01 386.1L799.17 386.1L793.77 309C793.77 309 691.92 308.96 666.01 386.1Z" fill="#5FCEFF" fill-opacity="1.000000" fill-rule="nonzero"/>
			<path id="path" d="M812.5 386.1L812.5 426.68L593.33 426.68L593.33 386.1L796.48 386.1L812.5 386.1Z" fill="#8B87C1" fill-opacity="1.000000" fill-rule="nonzero"/>
			<path id="path" d="M634.13 323.9C648.59 323.9 660.32 335.62 660.32 350.09C660.32 364.55 648.59 376.28 634.13 376.28C619.66 376.28 607.94 364.55 607.94 350.09C607.94 335.62 619.66 323.9 634.13 323.9Z" fill="#FFB578" fill-opacity="1.000000" fill-rule="nonzero"/>
			<path id="path" d="M593.33 447.52C592.96 447.52 592.59 447.48 592.22 447.41C591.86 447.34 591.5 447.23 591.16 447.09C590.81 446.94 590.49 446.77 590.18 446.56C589.87 446.35 589.58 446.12 589.32 445.85C589.05 445.59 588.82 445.3 588.61 444.99C588.4 444.68 588.23 444.36 588.08 444.01C587.94 443.67 587.83 443.31 587.76 442.95C587.69 442.58 587.65 442.21 587.65 441.84L587.65 307.47C587.65 307.1 587.69 306.73 587.76 306.37C587.83 306 587.94 305.64 588.08 305.3C588.23 304.95 588.4 304.63 588.61 304.32C588.82 304.01 589.05 303.72 589.32 303.46C589.58 303.19 589.87 302.96 590.18 302.75C590.49 302.54 590.81 302.37 591.16 302.22C591.5 302.08 591.86 301.97 592.22 301.9C592.59 301.83 592.96 301.79 593.33 301.79C593.71 301.79 594.08 301.83 594.44 301.9C594.81 301.97 595.16 302.08 595.51 302.22C595.85 302.37 596.18 302.54 596.49 302.75C596.8 302.96 597.09 303.19 597.35 303.46C597.61 303.72 597.85 304.01 598.06 304.32C598.26 304.63 598.44 304.95 598.58 305.3C598.73 305.64 598.83 306 598.9 306.37C598.98 306.73 599.02 307.1 599.02 307.47L599.02 441.84C599.02 442.21 598.98 442.58 598.9 442.95C598.83 443.31 598.73 443.67 598.58 444.01C598.44 444.36 598.26 444.68 598.06 444.99C597.85 445.3 597.61 445.59 597.35 445.85C597.09 446.12 596.8 446.35 596.49 446.56C596.18 446.77 595.85 446.94 595.51 447.09C595.16 447.23 594.81 447.34 594.44 447.41C594.08 447.48 593.71 447.52 593.33 447.52ZM812.49 447.52C812.12 447.52 811.75 447.48 811.39 447.41C811.02 447.34 810.67 447.23 810.32 447.09C809.98 446.94 809.65 446.77 809.34 446.56C809.03 446.35 808.74 446.12 808.48 445.85C808.21 445.59 807.98 445.3 807.77 444.99C807.56 444.68 807.39 444.36 807.25 444.01C807.1 443.67 806.99 443.31 806.92 442.95C806.85 442.58 806.81 442.21 806.81 441.84L806.81 364.29C806.81 363.92 806.85 363.55 806.92 363.19C806.99 362.82 807.1 362.46 807.25 362.12C807.39 361.77 807.56 361.45 807.77 361.14C807.98 360.83 808.21 360.54 808.48 360.28C808.74 360.01 809.03 359.78 809.34 359.57C809.65 359.36 809.98 359.19 810.32 359.04C810.67 358.9 811.02 358.79 811.39 358.72C811.75 358.65 812.12 358.61 812.49 358.61C812.87 358.61 813.24 358.65 813.6 358.72C813.97 358.79 814.32 358.9 814.67 359.04C815.01 359.19 815.34 359.36 815.65 359.57C815.96 359.78 816.25 360.01 816.51 360.28C816.78 360.54 817.01 360.83 817.22 361.14C817.43 361.45 817.6 361.77 817.74 362.12C817.89 362.46 817.99 362.82 818.07 363.19C818.14 363.55 818.18 363.92 818.18 364.29L818.18 441.84C818.18 444.98 815.63 447.52 812.49 447.52Z" fill="#4F46A3" fill-opacity="1.000000" fill-rule="nonzero"/>
			<path id="path" d="M812.49 391.78L593.33 391.78C592.96 391.78 592.59 391.74 592.22 391.67C591.86 391.6 591.5 391.49 591.16 391.35C590.81 391.2 590.49 391.03 590.18 390.82C589.87 390.61 589.58 390.38 589.31 390.11C589.05 389.85 588.82 389.56 588.61 389.25C588.4 388.94 588.23 388.62 588.08 388.27C587.94 387.93 587.83 387.57 587.76 387.21C587.69 386.84 587.65 386.47 587.65 386.1C587.65 385.72 587.69 385.35 587.76 384.99C587.83 384.62 587.94 384.27 588.08 383.92C588.23 383.58 588.4 383.25 588.61 382.94C588.82 382.63 589.05 382.34 589.31 382.08C589.58 381.82 589.87 381.58 590.18 381.37C590.49 381.17 590.81 380.99 591.16 380.85C591.5 380.7 591.86 380.6 592.22 380.52C592.59 380.45 592.96 380.42 593.33 380.42L812.49 380.42C812.87 380.42 813.24 380.45 813.6 380.52C813.97 380.6 814.32 380.7 814.67 380.85C815.01 380.99 815.34 381.17 815.65 381.37C815.96 381.58 816.25 381.82 816.51 382.08C816.78 382.34 817.01 382.63 817.22 382.94C817.43 383.25 817.6 383.58 817.74 383.92C817.89 384.27 817.99 384.62 818.07 384.99C818.14 385.35 818.18 385.72 818.18 386.1C818.18 386.47 818.14 386.84 818.07 387.21C817.99 387.57 817.89 387.93 817.74 388.27C817.6 388.62 817.43 388.94 817.22 389.25C817.01 389.56 816.78 389.85 816.51 390.11C816.25 390.38 815.96 390.61 815.65 390.82C815.34 391.03 815.01 391.2 814.67 391.35C814.32 391.49 813.97 391.6 813.6 391.67C813.24 391.74 812.87 391.78 812.49 391.78Z" fill="#4F46A3" fill-opacity="1.000000" fill-rule="nonzero"/>
			<path id="path" d="M634.13 381.96C616.56 381.96 602.26 367.67 602.26 350.09C602.26 332.52 616.56 318.22 634.13 318.22C651.71 318.22 666.01 332.52 666.01 350.09C666.01 367.67 651.71 381.96 634.13 381.96ZM634.13 329.58C622.82 329.58 613.63 338.78 613.63 350.09C613.63 361.4 622.82 370.6 634.13 370.6C645.44 370.6 654.64 361.4 654.64 350.09C654.64 338.78 645.44 329.58 634.13 329.58ZM667.42 391.68C667.04 391.68 666.68 391.64 666.31 391.57C665.94 391.5 665.59 391.39 665.24 391.25C664.9 391.11 664.57 390.93 664.26 390.72C663.95 390.52 663.66 390.28 663.4 390.02C663.14 389.75 662.9 389.47 662.69 389.16C662.49 388.85 662.31 388.52 662.17 388.17C662.03 387.83 661.92 387.47 661.85 387.11C661.77 386.74 661.74 386.37 661.74 386C661.74 365.02 676.49 343.8 702.21 327.76C728.2 311.55 761.68 302.63 796.48 302.63C796.85 302.63 797.22 302.66 797.59 302.74C797.95 302.81 798.31 302.92 798.65 303.06C799 303.2 799.33 303.38 799.64 303.58C799.95 303.79 800.23 304.03 800.5 304.29C800.76 304.56 801 304.84 801.2 305.15C801.41 305.46 801.59 305.79 801.73 306.13C801.87 306.48 801.98 306.83 802.05 307.2C802.13 307.57 802.16 307.94 802.16 308.31C802.16 308.68 802.13 309.05 802.05 309.42C801.98 309.78 801.87 310.14 801.73 310.48C801.59 310.83 801.41 311.16 801.2 311.47C801 311.78 800.76 312.06 800.5 312.33C800.23 312.59 799.95 312.83 799.64 313.03C799.33 313.24 799 313.42 798.65 313.56C798.31 313.7 797.95 313.81 797.59 313.88C797.22 313.95 796.85 313.99 796.48 313.99C763.78 313.99 732.43 322.3 708.23 337.4C685.9 351.32 673.1 369.03 673.1 386C673.1 386.37 673.06 386.74 672.99 387.11C672.92 387.47 672.81 387.83 672.67 388.17C672.53 388.52 672.35 388.85 672.14 389.16C671.94 389.47 671.7 389.75 671.44 390.02C671.17 390.28 670.89 390.52 670.58 390.72C670.26 390.93 669.94 391.11 669.59 391.25C669.25 391.39 668.89 391.5 668.53 391.57C668.16 391.64 667.79 391.68 667.42 391.68Z" fill="#4F46A3" fill-opacity="1.000000" fill-rule="nonzero"/>
			<path id="path" d="M796.48 391.78C796.11 391.78 795.74 391.74 795.37 391.67C795.01 391.6 794.65 391.49 794.31 391.35C793.96 391.2 793.63 391.03 793.32 390.82C793.01 390.61 792.73 390.38 792.46 390.11C792.2 389.85 791.96 389.56 791.76 389.25C791.55 388.94 791.37 388.62 791.23 388.27C791.09 387.93 790.98 387.57 790.91 387.21C790.83 386.84 790.8 386.47 790.8 386.1L790.8 308.31C790.8 307.94 790.83 307.57 790.91 307.2C790.98 306.84 791.09 306.48 791.23 306.14C791.37 305.79 791.55 305.46 791.76 305.15C791.96 304.84 792.2 304.56 792.46 304.29C792.73 304.03 793.01 303.79 793.32 303.59C793.63 303.38 793.96 303.2 794.31 303.06C794.65 302.92 795.01 302.81 795.37 302.74C795.74 302.66 796.11 302.63 796.48 302.63C796.85 302.63 797.22 302.66 797.59 302.74C797.95 302.81 798.31 302.92 798.65 303.06C799 303.2 799.33 303.38 799.64 303.59C799.95 303.79 800.23 304.03 800.5 304.29C800.76 304.56 801 304.84 801.2 305.15C801.41 305.46 801.59 305.79 801.73 306.14C801.87 306.48 801.98 306.84 802.05 307.2C802.13 307.57 802.16 307.94 802.16 308.31L802.16 386.1C802.16 386.47 802.13 386.84 802.05 387.21C801.98 387.57 801.87 387.93 801.73 388.27C801.59 388.62 801.41 388.94 801.2 389.25C801 389.56 800.76 389.85 800.5 390.11C800.23 390.38 799.95 390.61 799.64 390.82C799.33 391.03 799 391.2 798.65 391.35C798.31 391.49 797.95 391.6 797.59 391.67C797.22 391.74 796.85 391.78 796.48 391.78ZM694.28 306.04L651.66 306.04C651.05 306.04 650.46 305.95 649.88 305.76C649.3 305.56 648.76 305.29 648.27 304.92C647.78 304.56 647.36 304.12 647.01 303.62C646.66 303.12 646.4 302.58 646.22 302C646.04 301.41 645.96 300.81 645.98 300.2C646 299.59 646.11 299 646.32 298.42C646.53 297.85 646.82 297.32 647.2 296.84C647.58 296.36 648.03 295.96 648.53 295.62L675.34 277.95L651.66 277.95C651.29 277.95 650.92 277.92 650.55 277.84C650.19 277.77 649.83 277.66 649.49 277.52C649.14 277.38 648.82 277.2 648.51 276.99C648.2 276.79 647.91 276.55 647.64 276.29C647.38 276.02 647.15 275.74 646.94 275.43C646.73 275.12 646.56 274.79 646.41 274.44C646.27 274.1 646.16 273.74 646.09 273.38C646.02 273.01 645.98 272.64 645.98 272.27C645.98 271.9 646.02 271.53 646.09 271.16C646.16 270.79 646.27 270.44 646.41 270.1C646.56 269.75 646.73 269.42 646.94 269.11C647.15 268.8 647.38 268.51 647.64 268.25C647.91 267.99 648.2 267.75 648.51 267.54C648.82 267.34 649.14 267.16 649.49 267.02C649.83 266.88 650.19 266.77 650.55 266.7C650.92 266.62 651.29 266.59 651.66 266.59L694.28 266.59C694.89 266.59 695.48 266.68 696.06 266.88C696.64 267.07 697.18 267.35 697.67 267.71C698.16 268.07 698.58 268.51 698.93 269.01C699.28 269.51 699.54 270.05 699.72 270.64C699.9 271.22 699.97 271.82 699.96 272.43C699.94 273.04 699.83 273.63 699.62 274.21C699.41 274.78 699.12 275.31 698.74 275.79C698.36 276.27 697.92 276.68 697.41 277.01L670.6 294.68L694.28 294.68C694.65 294.68 695.02 294.72 695.39 294.79C695.75 294.86 696.11 294.97 696.45 295.11C696.8 295.26 697.12 295.43 697.43 295.64C697.74 295.85 698.03 296.08 698.3 296.35C698.56 296.61 698.79 296.9 699 297.21C699.21 297.52 699.38 297.84 699.53 298.19C699.67 298.53 699.78 298.89 699.85 299.25C699.92 299.62 699.96 299.99 699.96 300.36C699.96 300.74 699.92 301.1 699.85 301.47C699.78 301.84 699.67 302.19 699.53 302.54C699.38 302.88 699.21 303.21 699 303.52C698.79 303.83 698.56 304.12 698.3 304.38C698.03 304.64 697.74 304.88 697.43 305.09C697.12 305.29 696.8 305.47 696.45 305.61C696.11 305.76 695.75 305.86 695.39 305.94C695.02 306.01 694.65 306.04 694.28 306.04ZM734.64 249.23L708.48 249.23C707.87 249.23 707.28 249.13 706.7 248.94C706.12 248.74 705.58 248.47 705.09 248.1C704.6 247.74 704.18 247.3 703.83 246.8C703.48 246.3 703.22 245.76 703.04 245.18C702.86 244.59 702.79 243.99 702.8 243.38C702.82 242.77 702.93 242.18 703.14 241.6C703.35 241.03 703.64 240.5 704.02 240.02C704.4 239.54 704.85 239.14 705.36 238.8L715.69 231.98L708.48 231.98C708.11 231.98 707.74 231.95 707.37 231.88C707.01 231.8 706.65 231.69 706.31 231.55C705.96 231.41 705.64 231.23 705.33 231.03C705.01 230.82 704.73 230.58 704.46 230.32C704.2 230.06 703.96 229.77 703.76 229.46C703.55 229.15 703.38 228.82 703.23 228.48C703.09 228.13 702.98 227.78 702.91 227.41C702.84 227.04 702.8 226.68 702.8 226.3C702.8 225.93 702.84 225.56 702.91 225.19C702.98 224.83 703.09 224.47 703.23 224.13C703.38 223.78 703.55 223.46 703.76 223.15C703.96 222.84 704.2 222.55 704.46 222.28C704.73 222.02 705.01 221.79 705.33 221.58C705.64 221.37 705.96 221.2 706.31 221.05C706.65 220.91 707.01 220.8 707.37 220.73C707.74 220.66 708.11 220.62 708.48 220.62L734.64 220.62C735.25 220.62 735.84 220.72 736.42 220.91C737 221.1 737.54 221.38 738.03 221.74C738.52 222.11 738.94 222.54 739.29 223.04C739.64 223.54 739.9 224.08 740.08 224.67C740.25 225.26 740.33 225.85 740.31 226.46C740.3 227.07 740.18 227.67 739.98 228.24C739.77 228.82 739.47 229.34 739.09 229.82C738.72 230.3 738.27 230.71 737.76 231.05L727.42 237.86L734.64 237.86C735.01 237.86 735.38 237.9 735.74 237.97C736.11 238.04 736.46 238.15 736.81 238.29C737.15 238.44 737.48 238.61 737.79 238.82C738.1 239.03 738.39 239.26 738.65 239.53C738.92 239.79 739.15 240.08 739.36 240.39C739.57 240.7 739.74 241.02 739.88 241.37C740.03 241.71 740.14 242.07 740.21 242.43C740.28 242.8 740.32 243.17 740.32 243.54C740.32 243.92 740.28 244.29 740.21 244.65C740.14 245.02 740.03 245.37 739.88 245.72C739.74 246.06 739.57 246.39 739.36 246.7C739.15 247.01 738.92 247.3 738.65 247.56C738.39 247.82 738.1 248.06 737.79 248.27C737.48 248.47 737.15 248.65 736.81 248.79C736.46 248.94 736.11 249.04 735.74 249.12C735.38 249.19 735.01 249.23 734.64 249.23ZM793.48 231.65L771.39 231.65C770.78 231.65 770.18 231.56 769.6 231.36C769.02 231.17 768.49 230.89 768 230.53C767.51 230.16 767.09 229.73 766.74 229.23C766.39 228.73 766.12 228.19 765.95 227.6C765.77 227.02 765.69 226.42 765.71 225.81C765.73 225.2 765.84 224.6 766.05 224.03C766.26 223.46 766.55 222.93 766.93 222.45C767.31 221.97 767.75 221.56 768.26 221.23L774.54 217.09L771.39 217.09C771.02 217.09 770.65 217.05 770.28 216.98C769.92 216.91 769.56 216.8 769.22 216.66C768.87 216.51 768.54 216.34 768.23 216.13C767.92 215.93 767.64 215.69 767.37 215.43C767.11 215.16 766.87 214.88 766.67 214.57C766.46 214.25 766.28 213.93 766.14 213.58C766 213.24 765.89 212.88 765.82 212.52C765.74 212.15 765.71 211.78 765.71 211.41C765.71 211.04 765.74 210.67 765.82 210.3C765.89 209.93 766 209.58 766.14 209.23C766.28 208.89 766.46 208.56 766.67 208.25C766.87 207.94 767.11 207.65 767.37 207.39C767.64 207.13 767.92 206.89 768.23 206.68C768.54 206.48 768.87 206.3 769.22 206.16C769.56 206.02 769.92 205.91 770.28 205.84C770.65 205.76 771.02 205.73 771.39 205.73L793.48 205.73C794.1 205.73 794.69 205.82 795.27 206.01C795.85 206.21 796.39 206.49 796.88 206.85C797.37 207.21 797.79 207.65 798.14 208.15C798.49 208.65 798.75 209.19 798.93 209.78C799.1 210.36 799.18 210.96 799.16 211.57C799.15 212.18 799.03 212.77 798.82 213.35C798.62 213.92 798.32 214.45 797.94 214.93C797.57 215.41 797.12 215.82 796.61 216.15L790.34 220.29L793.48 220.29C793.86 220.29 794.23 220.32 794.59 220.4C794.96 220.47 795.32 220.58 795.66 220.72C796.01 220.86 796.33 221.04 796.64 221.24C796.95 221.45 797.24 221.69 797.5 221.95C797.77 222.21 798 222.5 798.21 222.81C798.42 223.12 798.59 223.45 798.74 223.79C798.88 224.14 798.99 224.49 799.06 224.86C799.13 225.23 799.17 225.6 799.17 225.97C799.17 226.34 799.13 226.71 799.06 227.08C798.99 227.44 798.88 227.8 798.74 228.14C798.59 228.49 798.42 228.82 798.21 229.13C798 229.44 797.77 229.72 797.5 229.99C797.24 230.25 796.95 230.49 796.64 230.7C796.33 230.9 796.01 231.08 795.66 231.22C795.32 231.36 794.96 231.47 794.59 231.54C794.23 231.62 793.86 231.65 793.48 231.65ZM812.49 432.36L593.33 432.36C592.96 432.36 592.59 432.33 592.22 432.26C591.86 432.18 591.5 432.08 591.16 431.93C590.81 431.79 590.49 431.61 590.18 431.41C589.87 431.2 589.58 430.96 589.31 430.7C589.05 430.44 588.82 430.15 588.61 429.84C588.4 429.53 588.23 429.2 588.08 428.86C587.94 428.51 587.83 428.16 587.76 427.79C587.69 427.43 587.65 427.06 587.65 426.68C587.65 426.31 587.69 425.94 587.76 425.57C587.83 425.21 587.94 424.85 588.08 424.51C588.23 424.16 588.4 423.84 588.61 423.53C588.82 423.22 589.05 422.93 589.31 422.67C589.58 422.4 589.87 422.17 590.18 421.96C590.49 421.75 590.81 421.58 591.16 421.43C591.5 421.29 591.86 421.18 592.22 421.11C592.59 421.04 592.96 421 593.33 421L812.49 421C812.87 421 813.24 421.04 813.6 421.11C813.97 421.18 814.32 421.29 814.67 421.43C815.01 421.58 815.34 421.75 815.65 421.96C815.96 422.17 816.25 422.4 816.51 422.67C816.78 422.93 817.01 423.22 817.22 423.53C817.43 423.84 817.6 424.16 817.74 424.51C817.89 424.85 817.99 425.21 818.07 425.57C818.14 425.94 818.18 426.31 818.18 426.68C818.18 427.06 818.14 427.43 818.07 427.79C817.99 428.16 817.89 428.51 817.74 428.86C817.6 429.2 817.43 429.53 817.22 429.84C817.01 430.15 816.78 430.44 816.51 430.7C816.25 430.96 815.96 431.2 815.65 431.41C815.34 431.61 815.01 431.79 814.67 431.93C814.32 432.08 813.97 432.18 813.6 432.26C813.24 432.33 812.87 432.36 812.49 432.36Z" fill="#4F46A3" fill-opacity="1.000000" fill-rule="nonzero"/>
		</g>
	</g>
</svg>
