<svg width="1400.000000" height="840.000000" viewBox="0 0 1400 840" fill="none" xmlns="http://www.w3.org/2000/svg" xmlns:xlink="http://www.w3.org/1999/xlink">
	<desc>
			Created with Pixso.
	</desc>
	<defs>
		<clipPath id="clip25_10">
			<rect id="hugo-svgrepo-com" width="259.999969" height="281.047607" transform="translate(570.000000 191.000000)" fill="white" fill-opacity="0"/>
		</clipPath>
		<filter id="filter_18_2522_dd" x="398.787109" y="517.714844" width="603.631470" height="134.648438" filterUnits="userSpaceOnUse" color-interpolation-filters="sRGB">
			<feFlood flood-opacity="0" result="BackgroundImageFix"/>
			<feColorMatrix in="SourceAlpha" type="matrix" values="0 0 0 0 0 0 0 0 0 0 0 0 0 0 0 0 0 0 127 0" result="hardAlpha"/>
			<feOffset dx="0" dy="10"/>
			<feGaussianBlur stdDeviation="1.66667"/>
			<feComposite in2="hardAlpha" operator="out" k2="-1" k3="1"/>
			<feColorMatrix type="matrix" values="0 0 0 0 0 0 0 0 0 0 0 0 0 0 0 0 0 0 0.25 0"/>
			<feBlend mode="normal" in2="BackgroundImageFix" result="effect_dropShadow_1"/>
			<feBlend mode="normal" in="SourceGraphic" in2="effect_dropShadow_1" result="shape"/>
		</filter>
		<clipPath id="clip10_27">
			<rect id="Hugoblog" width="1400.000000" height="840.000000" fill="white" fill-opacity="0"/>
		</clipPath>
		<linearGradient x1="-0.000033" y1="0.000000" x2="1399.786621" y2="14.660156" id="paint_linear_29_1_0" gradientUnits="userSpaceOnUse">
			<stop stop-color="#5E38F0"/>
			<stop offset="1.000000" stop-color="#F71275"/>
		</linearGradient>
	</defs>
	<rect id="Hugoblog" width="1400.000000" height="840.000000" fill="#FFFFFF" fill-opacity="1.000000"/>
	<g clip-path="url(#clip10_27)">
		<rect id="矩形 5" width="1400.000000" height="840.000000" fill="url(#paint_linear_29_1_0)" fill-opacity="1.000000"/>
		<g clip-path="url(#clip25_10)">
			<path id="path" d="M715.82 212.6L795.65 257.86C805.07 263.23 810.94 273.08 810.94 283.68L810.94 376.38C810.94 388.13 804.45 399.01 793.84 404.78L714.63 448.21C704.1 453.98 691.25 453.92 680.79 448.07L607.86 407.23C596.42 400.77 589.3 388.88 589.3 376.04L589.3 288.03C589.3 275.05 596.21 263.02 607.51 256.23L679.25 213.07C690.42 206.35 704.51 206.21 715.82 212.6Z" fill="#FF4088" fill-opacity="1.000000" fill-rule="evenodd"/>
			<path id="path" d="M795.65 257.86C805.07 263.23 810.94 273.08 810.94 283.68L810.94 376.38C810.94 388.13 804.45 399.01 793.84 404.78L714.63 448.21C704.1 453.98 691.25 453.92 680.79 448.07L607.86 407.23C596.42 400.77 589.3 388.88 589.3 376.04L589.3 288.03C589.3 275.05 596.21 263.02 607.51 256.23L679.25 213.07C690.42 206.35 704.51 206.21 715.82 212.6L795.65 257.86Z" stroke="#C9177E" stroke-opacity="1.000000" stroke-width="27.000000"/>
			<path id="polygon" d="M644.71 400.03L644.71 259.22L675 259.22L675 310.53L725.17 310.53L725.17 259.22L755.53 259.22L755.53 400.03L725.17 400.03L725.17 338.46L675 338.46L675 400.03L644.71 400.03Z" fill="#FFFFFF" fill-opacity="1.000000" fill-rule="evenodd"/>
		</g>
		<g filter="url(#filter_18_2522_dd)">
			<path id="Hugo Blog" d="M829.38 606.27Q834.8 610.96 844.29 610.96L853.43 610.96L853.43 595.11Q849.33 595.11 847.72 594.82Q847.17 594.72 846.66 594.53Q845.66 594.16 844.79 593.44Q844.74 593.41 844.7 593.38Q843.07 592.06 842.35 589.6Q841.65 587.09 841.65 582.28L841.65 517.71L822.46 517.71L822.46 587.09Q822.46 598.83 827.97 604.9Q828.64 605.63 829.38 606.27ZM475.65 610L475.65 526L455.84 526L455.84 558.29L423.59 558.29L423.59 526L403.78 526L403.78 610L423.59 610L423.59 574.49L455.84 574.49L455.84 610L475.65 610ZM781.43 526L742.78 526L742.78 610L784.18 610Q795.86 610 803.11 604.33Q803.68 603.88 804.22 603.4Q806.72 601.17 808.39 598.43Q811.66 593.03 811.66 585.65Q811.66 583.84 811.32 582.11Q810.42 577.59 807.21 573.52Q806.74 572.92 806.24 572.35Q802.01 567.54 795.46 564.76Q800.5 561.51 803.49 557.09Q806.14 553.17 806.46 549.07Q806.5 548.51 806.5 547.94Q806.5 540.11 802.79 534.96Q801.5 533.18 799.76 531.71Q793.06 526 781.43 526ZM781.6 559.6Q779.32 561.04 776.12 561.04L762.59 561.04L762.59 538.48L773.98 538.48Q780.71 538.48 783.6 541.81Q783.64 541.86 783.68 541.91Q784.7 543.1 785.35 544.46Q786.58 546.99 786.58 550.11Q786.58 551.42 786.29 552.67Q785.69 555.29 783.8 557.61Q782.83 558.82 781.6 559.6ZM575.44 636.39Q582.82 637.36 590.15 637.36Q609.55 637.36 617.54 627.81Q623.13 621.12 623.13 609.76L623.13 545.19L604.41 545.19L604.41 549.15Q598.66 544.89 592.4 543.92Q590.56 543.64 588.68 543.64Q581.3 543.64 575.45 546.64Q574.27 547.25 573.15 547.97Q571.51 549.04 570.05 550.31Q565.6 554.19 562.84 560.02Q559.18 567.75 559.18 577.71Q559.18 587.67 562.78 595.29Q565.22 600.44 569.08 604.09Q570.92 605.84 573.09 607.24Q574.25 607.98 575.47 608.6Q581.33 611.55 588.68 611.55Q597.18 611.55 603.48 607.82Q603.95 607.54 604.41 607.24Q604.41 611.63 602.41 614.7Q601.5 616.08 600.19 617.2Q596.01 620.81 587.86 620.81Q575.03 620.81 562.17 617.9L562.17 633.64Q568.06 635.43 575.44 636.39ZM648.88 607.36Q656.62 611.55 666.81 611.55Q677.01 611.55 684.68 607.36Q688.47 605.3 691.4 602.39Q694.44 599.37 696.58 595.43Q700.77 587.67 700.77 577.12Q700.77 562.97 693.81 554.58Q692.81 553.37 691.66 552.28Q690.55 551.23 689.35 550.31Q680.64 543.64 666.81 543.64Q652.72 543.64 643.95 550.47Q642.86 551.32 641.85 552.28Q640.7 553.37 639.7 554.58Q632.74 562.97 632.74 577.12Q632.74 587.67 636.93 595.43Q639.06 599.34 642.09 602.34Q645.05 605.28 648.88 607.36ZM874.36 607.36Q882.1 611.55 892.29 611.55Q902.49 611.55 910.16 607.36Q913.95 605.3 916.88 602.39Q919.92 599.37 922.06 595.43Q926.25 587.67 926.25 577.12Q926.25 562.97 919.29 554.58Q918.29 553.37 917.14 552.28Q916.03 551.23 914.83 550.31Q906.12 543.64 892.29 543.64Q878.2 543.64 869.43 550.47Q868.34 551.32 867.33 552.28Q866.18 553.37 865.18 554.58Q858.22 562.97 858.22 577.12Q858.22 587.67 862.41 595.43Q864.54 599.34 867.57 602.34Q870.53 605.28 874.36 607.36ZM949.72 636.39Q957.1 637.36 964.43 637.36Q983.83 637.36 991.82 627.81Q997.41 621.12 997.41 609.76L997.41 545.19L978.69 545.19L978.69 549.15Q972.94 544.89 966.68 543.92Q964.84 543.64 962.96 543.64Q955.58 543.64 949.73 546.64Q948.55 547.25 947.43 547.97Q945.79 549.04 944.33 550.31Q939.88 554.19 937.12 560.02Q933.46 567.75 933.46 577.71Q933.46 587.67 937.06 595.29Q939.5 600.44 943.36 604.09Q945.2 605.84 947.38 607.24Q948.53 607.98 949.75 608.6Q955.61 611.55 962.96 611.55Q971.46 611.55 977.76 607.82Q978.23 607.54 978.69 607.24Q978.69 611.63 976.69 614.7Q975.78 616.08 974.47 617.2Q970.29 620.81 962.14 620.81Q949.31 620.81 936.45 617.9L936.45 633.64Q942.34 635.43 949.72 636.39ZM532.43 606.37Q533.01 608.3 533.98 610.11L551.97 610.11Q550.53 607.01 550.03 604.31Q549.56 601.59 549.56 597.63L549.56 545.19L530.38 545.19L530.38 591.16Q527.5 593.33 523.23 595.14Q518.98 596.93 516.46 596.93Q513.4 596.93 511.29 595.51Q510.75 595.15 510.28 594.7Q509.39 593.86 508.84 592.83Q507.93 591.15 507.93 588.99L507.93 545.19L488.74 545.19L488.74 592.24Q488.74 598.01 491.24 602.34Q492.43 604.41 494.19 606.16Q495.23 607.19 496.41 608.02Q501.41 611.55 508.9 611.55Q514.91 611.55 521.09 608.97Q527.27 606.39 531.69 602.44Q531.87 604.46 532.43 606.37ZM579.44 587.16Q577.55 582.85 577.55 577.71Q577.55 572.3 579.58 567.8Q579.66 567.63 579.75 567.46Q581.97 562.83 585.63 560.19L585.63 560.19Q588.44 558.17 591.48 557.7Q592.41 557.55 593.37 557.55Q596.62 557.55 600.58 559.19Q604.53 560.81 607.05 565.96L607.05 588.17L606.46 590.54Q603.83 595 600.11 596.37Q596.39 597.75 593.37 597.75Q592.45 597.75 591.56 597.61Q588.47 597.14 585.63 595.05Q585.44 594.91 585.26 594.77Q581.86 592.12 579.75 587.82Q579.59 587.49 579.44 587.16ZM655.88 592.01Q651.69 586.35 651.69 577.12Q651.69 567.52 655.77 562.53Q657.41 560.54 659.5 559.35Q662.64 557.55 666.81 557.55Q671.1 557.55 674.27 559.44Q676.25 560.62 677.8 562.53Q681.81 567.52 681.81 577.12Q681.81 586.35 677.68 592.01Q675.44 595.06 672.43 596.46Q669.89 597.63 666.81 597.63Q663.85 597.63 661.37 596.53Q658.24 595.15 655.88 592.01ZM881.36 592.01Q877.17 586.35 877.17 577.12Q877.17 567.52 881.25 562.53Q882.89 560.54 884.98 559.35Q888.12 557.55 892.29 557.55Q896.58 557.55 899.75 559.44Q901.73 560.62 903.28 562.53Q907.29 567.52 907.29 577.12Q907.29 586.35 903.16 592.01Q900.92 595.06 897.91 596.46Q895.37 597.63 892.29 597.63Q889.33 597.63 886.85 596.53Q883.72 595.15 881.36 592.01ZM953.72 587.16Q951.83 582.85 951.83 577.71Q951.83 572.3 953.86 567.8Q953.94 567.63 954.03 567.46Q956.25 562.83 959.91 560.19L959.91 560.19Q962.72 558.17 965.76 557.7Q966.69 557.55 967.65 557.55Q970.9 557.55 974.86 559.19Q978.81 560.81 981.33 565.96L981.33 588.17L980.74 590.54Q978.11 595 974.39 596.37Q970.67 597.75 967.65 597.75Q966.73 597.75 965.84 597.61Q962.75 597.14 959.91 595.05Q959.72 594.91 959.54 594.77Q956.14 592.12 954.03 587.82Q953.87 587.49 953.72 587.16ZM787.36 592.94Q784.2 595.46 779.02 595.46L762.59 595.46L762.59 572.67L775.54 572.67Q783.56 572.67 787.58 575.57Q790.02 577.3 790.99 579.65Q791.62 581.18 791.62 582.98Q791.62 587.46 789.55 590.53Q789 591.35 788.31 592.07Q787.86 592.53 787.36 592.94Z" fill="#FFFFFF" fill-opacity="1.000000" fill-rule="evenodd"/>
		</g>
	</g>
</svg>
