<svg width="1400.000000" height="840.000000" viewBox="0 0 1400 840" fill="none" xmlns="http://www.w3.org/2000/svg" xmlns:xlink="http://www.w3.org/1999/xlink">
	<desc>
			Created with Pixso.
	</desc>
	<defs>
		<clipPath id="clip28_1215">
			<rect id="寺庙 (1)" width="260.000000" height="260.000000" transform="translate(576.000000 187.000000)" fill="white" fill-opacity="0"/>
		</clipPath>
		<clipPath id="clip18_5904">
			<rect id="lmx" width="1400.000000" height="840.000000" fill="white" fill-opacity="0"/>
		</clipPath>
		<linearGradient x1="-0.000033" y1="0.000000" x2="1399.786621" y2="14.660156" id="paint_linear_36_37_0" gradientUnits="userSpaceOnUse">
			<stop stop-color="#9F834B"/>
			<stop offset="1.000000" stop-color="#D1DE9E"/>
		</linearGradient>
	</defs>
	<rect id="lmx" width="1400.000000" height="840.000000" fill="#FFFFFF" fill-opacity="1.000000"/>
	<g clip-path="url(#clip18_5904)">
		<rect id="矩形 4" width="1400.000000" height="840.000000" fill="url(#paint_linear_36_37_0)" fill-opacity="1.000000"/>
		<path id="老迷信" d="M541.59 587.08Q550.23 571.23 555.77 555.03L555.77 597.63L629.07 597.63L629.07 582.39L571.12 582.39L571.12 575.18Q599.68 566.92 621.39 556.84L621.39 541Q595.35 552.63 571.12 559.83L571.12 544.36L559.11 544.36Q559.96 541.96 560.54 539.21L633.99 539.21L633.99 523.94L618.99 523.94L632.79 493.01L616.35 493.01L608.06 511.46L608.06 498.4L586.97 498.4L586.97 488.79L571.35 488.79L571.35 498.4L536.31 498.4L536.31 513.63L571.35 513.63L571.35 523.94L526 523.94L526 539.21L544.34 539.21Q538.1 562.97 523.6 587.08L541.59 587.08ZM682.9 554.12Q680.53 556.55 677.55 558.4L677.55 576.88Q686.63 572.16 692.74 564.94Q702.64 553.25 704.8 534.99L708.76 534.99L708.76 578.55L723.02 578.55L723.02 534.99L726.74 534.99Q728.9 553.25 738.8 564.94Q744.92 572.16 753.99 576.88L753.99 558.4Q751.01 556.55 748.64 554.12Q741.74 547.04 739.96 534.99L753.17 534.99L753.17 520.22L723.02 520.22L723.02 488.79L708.64 488.79L708.64 520.22L678.4 520.22L678.4 534.99L691.59 534.99Q689.8 547.04 682.9 554.12ZM828.99 498.75L798.87 498.75L798.87 512.93L874.6 512.93L874.6 498.75L844.6 498.75L844.6 489.4L828.99 489.4L828.99 498.75ZM672.98 516.03L664.72 489.99L648.52 489.99L656.78 516.03L672.98 516.03ZM784.22 489.99Q778.72 513.75 764.8 529.72L764.8 554.44Q770.81 549.4 775.46 543.98L775.46 598.59L791.08 598.59L791.08 519.76Q797.32 506.07 799.96 489.99L784.22 489.99ZM701.55 514.6L693.87 491.54L680.43 491.54L688.1 514.6L701.55 514.6ZM751.12 491.54L737.79 491.54L730 514.6L743.44 514.6L751.12 491.54ZM607.12 513.63L602.55 523.94L586.97 523.94L586.97 513.63L607.12 513.63ZM869.8 520.34L803.68 520.34L803.68 533.09L869.8 533.09L869.8 520.34ZM677.5 595.4Q685 596.81 696.39 596.81L755.19 596.81L755.19 581.81L696.39 581.81Q686.67 581.81 679.87 580.43Q673.1 579.02 667.71 575.8Q670.23 563.67 671.31 551.57Q672.4 539.44 672.4 524.21L643.6 524.21L643.6 539.79L657.16 539.79Q656.55 555.53 653.85 568.97Q651.16 582.39 645.15 598.01L661.82 598.01L663.99 590.8Q670 594.02 677.5 595.4ZM869.8 540.53L803.68 540.53L803.68 553.24L869.8 553.24L869.8 540.53ZM871.82 597.27L871.82 560.68L801.63 560.68L801.63 597.27L871.82 597.27ZM856.35 573.16L856.35 584.79L817.12 584.79L817.12 573.16L856.35 573.16Z" fill="#FFFFFF" fill-opacity="1.000000" fill-rule="evenodd"/>
		<g clip-path="url(#clip28_1215)">
			<path id="path" d="M788.7 308.07L623.37 308.07L622.73 307.87C613.69 305.12 607.23 294.53 603.39 286.14C599.46 277.51 596.58 267.37 596.57 262.02C593.79 258.91 592.34 255.42 592.34 251.85C592.34 249.62 593.95 247.68 596.15 247.22C596.5 247.14 596.87 247.1 597.23 247.1C598.37 247.1 599.49 247.49 600.37 248.2L600.45 248.26C609.17 255.57 620.31 259.76 631.01 259.76C637.02 259.76 642.24 258.4 645.68 255.99L645.68 235C645.68 230.85 649.67 227.6 654.76 227.6C658.75 227.6 662.07 229.6 663.31 232.46L748.68 232.46C749.92 229.6 753.24 227.6 757.23 227.6C762.32 227.6 766.31 230.85 766.31 235L766.31 255.99C769.71 258.37 775.03 259.76 780.98 259.76C791.64 259.76 802.76 255.58 811.5 248.29C812.38 247.53 813.55 247.1 814.75 247.1C815.22 247.1 815.68 247.16 816.12 247.29C818.23 247.89 819.65 249.73 819.65 251.85L819.65 251.88C819.62 255.42 818.19 258.87 815.49 261.97L815.49 262.01C815.48 267.37 812.61 277.51 808.67 286.14C804.84 294.53 798.37 305.12 789.33 307.87L788.7 308.07ZM792.57 417.25L619.4 417.25C618.59 417.25 617.81 417.06 617.09 416.7C615.49 415.9 614.5 414.3 614.5 412.51L614.5 393.65C614.5 392.08 615.28 390.62 616.6 389.74L616.83 389.59L617.08 389.46C617.79 389.11 618.6 388.92 619.42 388.92L625.91 388.92L625.91 317.81L786.08 317.81L786.08 388.92L792.57 388.92C793.38 388.92 794.16 389.1 794.88 389.46C796.48 390.26 797.47 391.87 797.47 393.65L797.47 412.51C797.47 414.08 796.68 415.54 795.36 416.42C794.55 416.96 793.59 417.25 792.57 417.25Z" fill="#9F834B" fill-opacity="1.000000" fill-rule="nonzero"/>
			<path id="path" d="M668.58 341.33L700.94 341.33L700.94 399.28L668.58 399.28L668.58 341.33ZM712.68 341.33L745.04 341.33L745.04 399.28L712.68 399.28L712.68 341.33Z" fill="#C6991C" fill-opacity="1.000000" fill-rule="nonzero"/>
		</g>
	</g>
</svg>
