<svg width="1400.000000" height="840.000000" viewBox="0 0 1400 840" fill="none" xmlns="http://www.w3.org/2000/svg" xmlns:xlink="http://www.w3.org/1999/xlink">
	<desc>
			Created with Pixso.
	</desc>
	<defs>
		<clipPath id="clip23_174">
			<rect id="cabaret" width="1400.000000" height="840.000000" fill="white" fill-opacity="0"/>
		</clipPath>
		<linearGradient x1="-0.000033" y1="0.000000" x2="1399.786621" y2="14.660156" id="paint_linear_36_38_0" gradientUnits="userSpaceOnUse">
			<stop stop-color="#42CFA3"/>
			<stop offset="1.000000" stop-color="#17599E"/>
		</linearGradient>
	</defs>
	<rect id="cabaret" width="1400.000000" height="840.000000" fill="#FFFFFF" fill-opacity="1.000000"/>
	<g clip-path="url(#clip23_174)">
		<rect id="矩形 5" width="1400.000000" height="840.000000" fill="url(#paint_linear_36_38_0)" fill-opacity="1.000000"/>
		<path id="农村歌舞团" d="M373.82 420.11Q362.54 433.5 346.26 444.3L346.26 467.18Q360.96 459.13 371.89 449.32L371.89 493.41L408.03 493.41L408.03 474.81L390.45 474.81L390.45 437.65L383.56 437.65Q401.84 417.23 412.21 389.42L414.22 389.42Q414.82 426.3 430.57 452.73Q434.24 458.87 438.73 464.34Q453.54 482.38 477.29 493.09L477.29 471.23Q462.18 463.93 452.14 452.27Q448.29 447.81 445.19 442.71L462.45 442.71L476.87 410.9L458.59 410.9L444.59 441.69Q432.5 421.09 432.08 389.42L455.7 389.42L455.7 404.11L474.41 404.11L474.41 371.56L417.66 371.56Q418.68 368.11 420.12 360.91L400.82 360.91Q399.66 366.53 398.22 371.56L350.59 371.56L350.59 404.11L369.29 404.11L369.29 389.42L392.35 389.42Q385.14 406.71 373.82 420.11ZM712.73 360.91Q710.73 385.09 700.5 409.74L720.08 409.74Q724.68 398.35 727.14 388.12L746.59 388.12Q746.46 388.65 746.33 389.17Q743.8 399.6 740.08 409.74L758.54 409.74Q765.01 389.87 767.01 369.69L730.45 369.69L731.33 360.91L712.73 360.91ZM803.75 360.91L783.89 360.91L776.68 382.67L793.38 382.67L793.38 392.44L783.89 392.44L783.89 407.14L793.38 407.14L793.38 417.23L778.26 417.23L778.26 433.5L878.18 433.5L878.18 439.97L850.54 439.97L850.54 456.11L878.18 456.11L878.18 468.2L863.66 468.2L866.68 459.55L848.08 459.55L839.47 484.62L850.54 484.48L850.54 484.62L878.18 484.62L878.18 493.41L896.63 493.41L896.63 484.62L909.29 484.62L909.29 468.2L896.63 468.2L896.63 456.11L909.29 456.11L909.29 439.97L896.63 439.97L896.63 433.5L910.73 433.5L910.73 417.23L895.61 417.23L895.61 407.14L906.55 407.14L906.55 392.44L895.61 392.44L895.61 382.53L904.68 382.53L904.68 366.25L802.03 366.25L803.75 360.91ZM517.05 378.62L491.84 378.62L491.84 396.48L517.89 396.48L517.89 493.41L536.91 493.41L536.91 436.53L547 442.85L547 421.09L536.91 414.77L536.91 396.48L551.33 396.48L551.33 378.62L536.63 378.62L536.63 363.09L517.05 363.09L517.05 378.62ZM594.22 474.11L581.1 474.11L581.1 493.41L613.66 493.41L613.8 399.23L622.73 399.23L622.73 380.49L613.8 380.49L613.8 363.79L594.22 363.79L594.22 380.49L554.77 380.49L554.77 399.23L594.22 399.23L594.22 474.11ZM739.8 436.21L739.8 409.6L721.38 409.6L721.38 436.21Q721.38 439.32 721.11 442.41Q720.19 453.21 716.03 463.74Q710.73 477.27 698.91 491.83L698.91 436.67L706.68 436.67L706.68 421.69L698.91 421.69L698.91 380.21L703.8 380.21L703.8 365.23L635.7 365.23L635.7 380.21L681.62 380.21L681.62 421.69L634.26 421.69L634.26 436.67L681.62 436.67L681.62 478.43L666.5 478.43L666.5 493.41L719.94 493.41Q728.84 481.17 733.45 467.48Q734.81 463.44 735.79 459.27Q741.5 465.36 745.24 472.47Q750.26 482.01 751.75 493.41L768.17 493.41Q766.31 472.26 755.94 456.81Q749.51 447.22 739.8 439.83L739.8 436.21ZM927.57 491.65L1049.43 491.65L1049.43 365.65L927.57 365.65L927.57 491.65ZM821.89 382.53L821.89 392.44L810.22 392.44L810.22 382.53L821.89 382.53ZM850.26 382.53L850.26 392.44L838.73 392.44L838.73 382.53L850.26 382.53ZM878.77 382.53L878.77 392.44L867.1 392.44L867.1 382.53L878.77 382.53ZM1030.82 383.65L1030.82 473.65L946.17 473.65L946.17 383.65L1030.82 383.65ZM677.01 384.11L638.73 384.11L638.73 417.79L677.01 417.79L677.01 384.11ZM990.22 398.49L951.79 398.49L951.79 416.07L990.22 416.07L990.22 420.39L954.5 436.81L954.5 455.97L990.22 439.55L990.22 451.64L977.28 451.64L977.28 469.5L1008.64 469.5L1008.82 416.07L1025.19 416.07L1025.19 398.49L1008.82 398.49L1008.82 386.53L990.22 386.53L990.22 398.49ZM662.91 396.48L662.91 405.41L652.96 405.41L652.96 396.48L662.91 396.48ZM497.01 402.39Q497.01 447.04 489.24 485.92L506.08 485.92Q512.87 450.06 512.87 402.39L497.01 402.39ZM821.89 407.14L821.89 417.23L810.22 417.23L810.22 407.14L821.89 407.14ZM850.26 407.14L850.26 417.23L838.73 417.23L838.73 407.14L850.26 407.14ZM878.77 407.14L878.77 417.23L867.1 417.23L867.1 407.14L878.77 407.14ZM588.59 455.51L577.38 412.9L556.78 412.9L568.03 455.51L588.59 455.51ZM803.01 471.79Q792.5 476.68 779.7 479L779.7 494.85Q809.8 490.21 826.57 475.97Q828.93 473.96 831.08 471.73Q844.15 458.19 849.1 436.81L799.57 436.81Q799.48 436.95 799.4 437.09Q796.4 442.08 791.41 445.88Q786.31 449.78 779.7 451.93L779.7 467.6Q789.48 465.18 796.26 461.28L803.01 471.79ZM677.01 440.53L638.73 440.53L638.73 474.81L677.01 474.81L677.01 440.53ZM817.31 462.18Q816.32 463.13 815.28 464.02L807.93 452.49L825.05 452.49Q821.75 457.92 817.31 462.18ZM662.91 452.8L662.91 462.44L652.96 462.44L652.96 452.8L662.91 452.8Z" fill="#FFFFFF" fill-opacity="1.000000" fill-rule="evenodd"/>
	</g>
</svg>
