<svg width="1400.000000" height="840.000000" viewBox="0 0 1400 840" fill="none" xmlns="http://www.w3.org/2000/svg" xmlns:xlink="http://www.w3.org/1999/xlink">
	<desc>
			Created with Pixso.
	</desc>
	<defs>
		<clipPath id="clip44_4">
			<rect id="录入乐队信息.1" width="263.566437" height="252.000000" transform="translate(569.000000 231.000000)" fill="white" fill-opacity="0"/>
		</clipPath>
		<filter id="filter_44_13_dd" x="458.955078" y="526.826172" width="481.855469" height="126.621094" filterUnits="userSpaceOnUse" color-interpolation-filters="sRGB">
			<feFlood flood-opacity="0" result="BackgroundImageFix"/>
			<feColorMatrix in="SourceAlpha" type="matrix" values="0 0 0 0 0 0 0 0 0 0 0 0 0 0 0 0 0 0 127 0" result="hardAlpha"/>
			<feOffset dx="0" dy="10"/>
			<feGaussianBlur stdDeviation="1.66667"/>
			<feComposite in2="hardAlpha" operator="out" k2="-1" k3="1"/>
			<feColorMatrix type="matrix" values="0 0 0 0 0 0 0 0 0 0 0 0 0 0 0 0 0 0 0.25 0"/>
			<feBlend mode="normal" in2="BackgroundImageFix" result="effect_dropShadow_1"/>
			<feBlend mode="normal" in="SourceGraphic" in2="effect_dropShadow_1" result="shape"/>
		</filter>
		<clipPath id="clip44_1">
			<rect id="noband" width="1400.000000" height="840.000000" fill="white" fill-opacity="0"/>
		</clipPath>
		<linearGradient x1="-0.000033" y1="0.000000" x2="1399.786621" y2="14.660156" id="paint_linear_44_2_0" gradientUnits="userSpaceOnUse">
			<stop stop-color="#F0C238"/>
			<stop offset="1.000000" stop-color="#F05440"/>
		</linearGradient>
	</defs>
	<rect id="noband" width="1400.000000" height="840.000000" fill="#FFFFFF" fill-opacity="1.000000"/>
	<g clip-path="url(#clip44_1)">
		<rect id="矩形 4" width="1400.000000" height="840.000000" fill="url(#paint_linear_44_2_0)" fill-opacity="1.000000"/>
		<g clip-path="url(#clip44_4)">
			<path id="path" d="M625.78 395.96C625.78 397.03 625.81 398.1 625.86 399.16C625.91 400.23 625.99 401.29 626.1 402.35C626.2 403.41 626.33 404.47 626.49 405.52C626.64 406.58 626.83 407.63 627.03 408.68C627.24 409.72 627.47 410.76 627.73 411.8C627.99 412.83 628.28 413.86 628.59 414.88C628.89 415.9 629.23 416.91 629.59 417.92C629.95 418.92 630.33 419.92 630.74 420.9C631.15 421.89 631.58 422.86 632.03 423.82C632.49 424.79 632.97 425.74 633.47 426.68C633.97 427.62 634.5 428.55 635.05 429.47C635.59 430.38 636.16 431.28 636.76 432.17C637.35 433.05 637.96 433.93 638.6 434.78C639.23 435.64 639.89 436.48 640.57 437.3C641.24 438.13 641.94 438.94 642.65 439.73C643.37 440.52 644.1 441.29 644.86 442.04C645.61 442.8 646.38 443.53 647.17 444.25C647.96 444.97 648.77 445.66 649.6 446.34C650.42 447.02 651.26 447.67 652.12 448.31C652.97 448.94 653.84 449.56 654.73 450.15C655.62 450.74 656.52 451.31 657.43 451.86C658.35 452.41 659.28 452.93 660.22 453.44C661.16 453.94 662.11 454.42 663.07 454.88C664.04 455.33 665.01 455.76 666 456.17C666.98 456.58 667.98 456.96 668.98 457.32C669.99 457.68 671 458.02 672.02 458.33C673.04 458.64 674.07 458.92 675.1 459.18C676.13 459.44 677.17 459.67 678.22 459.88C679.27 460.09 680.32 460.27 681.37 460.43C682.43 460.58 683.48 460.71 684.55 460.82C685.61 460.92 686.67 461 687.74 461.05C688.8 461.11 689.87 461.13 690.93 461.13C692 461.13 693.07 461.11 694.13 461.05C695.2 461 696.26 460.92 697.32 460.82C698.38 460.71 699.44 460.58 700.49 460.43C701.55 460.27 702.6 460.09 703.65 459.88C704.69 459.67 705.73 459.44 706.77 459.18C707.8 458.92 708.83 458.64 709.85 458.33C710.87 458.02 711.88 457.68 712.89 457.32C713.89 456.96 714.88 456.58 715.87 456.17C716.85 455.76 717.83 455.33 718.79 454.88C719.76 454.42 720.71 453.94 721.65 453.44C722.59 452.93 723.52 452.41 724.43 451.86C725.35 451.31 726.25 450.74 727.13 450.15C728.02 449.56 728.89 448.94 729.75 448.31C730.61 447.67 731.45 447.02 732.27 446.34C733.09 445.66 733.9 444.97 734.69 444.25C735.48 443.53 736.25 442.8 737.01 442.04C737.76 441.29 738.5 440.52 739.21 439.73C739.93 438.94 740.62 438.13 741.3 437.3C741.98 436.48 742.63 435.64 743.27 434.78C743.9 433.93 744.52 433.05 745.11 432.17C745.7 431.28 746.27 430.38 746.82 429.47C747.37 428.55 747.89 427.62 748.4 426.68C748.9 425.74 749.38 424.79 749.83 423.82C750.29 422.86 750.72 421.89 751.13 420.9C751.54 419.92 751.92 418.92 752.28 417.92C752.64 416.91 752.97 415.9 753.28 414.88C753.59 413.86 753.87 412.83 754.13 411.8C754.39 410.76 754.63 409.72 754.83 408.68C755.04 407.63 755.22 406.58 755.38 405.52C755.54 404.47 755.66 403.41 755.77 402.35C755.87 401.29 755.95 400.23 756 399.16C756.06 398.1 756.08 397.03 756.08 395.96C756.08 394.9 756.05 393.83 756 392.77C755.95 391.7 755.87 390.64 755.77 389.58C755.66 388.52 755.53 387.46 755.38 386.4C755.22 385.35 755.04 384.3 754.83 383.25C754.62 382.21 754.39 381.17 754.13 380.13C753.87 379.1 753.59 378.07 753.28 377.05C752.97 376.03 752.63 375.02 752.27 374.02C751.91 373.01 751.53 372.02 751.12 371.03C750.71 370.05 750.28 369.07 749.83 368.11C749.37 367.14 748.89 366.19 748.39 365.25C747.89 364.31 747.36 363.38 746.81 362.47C746.26 361.56 745.69 360.66 745.1 359.77C744.51 358.88 743.9 358.01 743.26 357.15C742.63 356.3 741.97 355.46 741.29 354.63C740.62 353.81 739.92 353 739.2 352.21C738.49 351.42 737.75 350.65 737 349.9C736.25 349.14 735.47 348.41 734.68 347.69C733.89 346.98 733.09 346.28 732.26 345.6C731.44 344.93 730.6 344.27 729.74 343.64C728.89 343 728.01 342.39 727.13 341.79C726.24 341.2 725.34 340.63 724.43 340.08C723.51 339.54 722.58 339.01 721.64 338.51C720.7 338.01 719.75 337.53 718.79 337.07C717.82 336.61 716.85 336.18 715.86 335.77C714.88 335.37 713.88 334.98 712.88 334.62C711.88 334.26 710.86 333.93 709.84 333.62C708.82 333.31 707.8 333.03 706.76 332.77C705.73 332.51 704.69 332.27 703.64 332.07C702.6 331.86 701.55 331.68 700.49 331.52C699.44 331.36 698.38 331.23 697.32 331.13C696.26 331.02 695.19 330.95 694.13 330.89C693.06 330.84 692 330.82 690.93 330.82C689.87 330.82 688.8 330.84 687.74 330.89C686.67 330.95 685.61 331.02 684.55 331.13C683.49 331.23 682.43 331.36 681.37 331.52C680.32 331.68 679.27 331.86 678.22 332.07C677.18 332.27 676.14 332.51 675.1 332.77C674.07 333.03 673.04 333.31 672.02 333.62C671 333.93 669.99 334.26 668.99 334.62C667.98 334.98 666.99 335.37 666 335.77C665.02 336.18 664.04 336.61 663.08 337.07C662.12 337.53 661.16 338.01 660.22 338.51C659.28 339.01 658.35 339.54 657.44 340.08C656.53 340.63 655.63 341.2 654.74 341.79C653.85 342.39 652.98 343 652.12 343.64C651.27 344.27 650.43 344.93 649.6 345.6C648.78 346.28 647.97 346.98 647.18 347.69C646.39 348.41 645.62 349.14 644.87 349.9C644.11 350.65 643.38 351.42 642.66 352.21C641.95 353 641.25 353.81 640.57 354.63C639.9 355.46 639.24 356.3 638.61 357.15C637.97 358.01 637.36 358.88 636.77 359.77C636.17 360.66 635.6 361.56 635.05 362.47C634.51 363.38 633.98 364.31 633.48 365.25C632.98 366.19 632.5 367.14 632.04 368.11C631.58 369.07 631.15 370.05 630.74 371.03C630.34 372.02 629.95 373.01 629.59 374.02C629.23 375.02 628.9 376.03 628.59 377.05C628.28 378.07 628 379.1 627.74 380.13C627.48 381.17 627.25 382.21 627.04 383.25C626.83 384.3 626.65 385.35 626.49 386.4C626.33 387.46 626.2 388.52 626.1 389.58C625.99 390.64 625.92 391.7 625.86 392.77C625.81 393.83 625.78 394.9 625.78 395.96Z" fill="#FFD04D" fill-opacity="1.000000" fill-rule="nonzero"/>
			<path id="path" d="M705.09 415.79C705.09 416.35 705.12 416.9 705.17 417.46C705.23 418.01 705.31 418.56 705.42 419.11C705.53 419.65 705.66 420.19 705.82 420.72C705.99 421.26 706.17 421.78 706.39 422.29C706.6 422.81 706.84 423.31 707.1 423.8C707.36 424.29 707.65 424.77 707.96 425.23C708.27 425.69 708.6 426.14 708.95 426.57C709.3 427 709.68 427.41 710.07 427.81C710.46 428.2 710.88 428.57 711.31 428.93C711.74 429.28 712.18 429.61 712.65 429.92C713.11 430.23 713.59 430.52 714.08 430.78C714.57 431.04 715.07 431.28 715.58 431.49C716.1 431.7 716.62 431.89 717.15 432.05C717.69 432.22 718.23 432.35 718.77 432.46C719.32 432.57 719.87 432.65 720.42 432.7C720.98 432.76 721.53 432.79 722.09 432.79C722.64 432.79 723.2 432.76 723.75 432.7C724.31 432.65 724.86 432.57 725.4 432.46C725.95 432.35 726.49 432.22 727.02 432.05C727.55 431.89 728.08 431.7 728.59 431.49C729.11 431.28 729.61 431.04 730.1 430.78C730.59 430.52 731.07 430.23 731.53 429.92C731.99 429.61 732.44 429.28 732.87 428.93C733.3 428.57 733.71 428.2 734.11 427.81C734.5 427.41 734.87 427 735.23 426.57C735.58 426.14 735.91 425.69 736.22 425.23C736.53 424.77 736.82 424.29 737.08 423.8C737.34 423.31 737.58 422.81 737.79 422.29C738 421.78 738.19 421.26 738.35 420.72C738.51 420.19 738.65 419.65 738.76 419.11C738.87 418.56 738.95 418.01 739 417.46C739.06 416.9 739.08 416.35 739.08 415.79C739.08 415.23 739.06 414.68 739 414.12C738.95 413.57 738.87 413.02 738.76 412.47C738.65 411.93 738.51 411.39 738.35 410.86C738.19 410.32 738 409.8 737.79 409.29C737.58 408.77 737.34 408.27 737.08 407.78C736.82 407.29 736.53 406.81 736.22 406.35C735.91 405.88 735.58 405.44 735.23 405.01C734.87 404.58 734.5 404.17 734.11 403.77C733.71 403.38 733.3 403 732.87 402.65C732.44 402.3 731.99 401.97 731.53 401.66C731.07 401.35 730.59 401.06 730.1 400.8C729.61 400.54 729.11 400.3 728.59 400.09C728.08 399.87 727.55 399.69 727.02 399.53C726.49 399.36 725.95 399.23 725.4 399.12C724.86 399.01 724.31 398.93 723.75 398.88C723.2 398.82 722.64 398.79 722.09 398.79C721.53 398.79 720.98 398.82 720.42 398.88C719.87 398.93 719.32 399.01 718.77 399.12C718.23 399.23 717.69 399.36 717.15 399.53C716.62 399.69 716.1 399.87 715.58 400.09C715.07 400.3 714.57 400.54 714.08 400.8C713.59 401.06 713.11 401.35 712.65 401.66C712.18 401.97 711.74 402.3 711.31 402.65C710.88 403 710.46 403.38 710.07 403.77C709.68 404.17 709.3 404.58 708.95 405.01C708.6 405.44 708.27 405.88 707.96 406.35C707.65 406.81 707.36 407.29 707.1 407.78C706.84 408.27 706.6 408.77 706.39 409.29C706.17 409.8 705.99 410.32 705.82 410.86C705.66 411.39 705.53 411.93 705.42 412.47C705.31 413.02 705.23 413.57 705.17 414.12C705.12 414.68 705.09 415.23 705.09 415.79Z" fill="#FFFFFF" fill-opacity="1.000000" fill-rule="nonzero"/>
			<path id="path" d="M832.55 245.86C832.55 245.58 832.52 245.29 832.46 245.01C832.4 244.73 832.32 244.46 832.21 244.19C832.1 243.93 831.96 243.67 831.8 243.44C831.64 243.2 831.46 242.98 831.26 242.77C831.06 242.57 830.84 242.39 830.6 242.23C830.36 242.07 830.11 241.93 829.84 241.82C829.58 241.71 829.31 241.63 829.02 241.57C828.74 241.51 828.46 241.48 828.17 241.48C822.97 240.89 817.77 240.93 812.58 241.58C807.38 242.23 802.34 243.49 797.44 245.34C792.55 243.49 787.51 242.23 782.31 241.58C777.12 240.93 771.92 240.89 766.72 241.48C766.43 241.48 766.14 241.51 765.86 241.56C765.58 241.62 765.3 241.7 765.04 241.81C764.77 241.92 764.52 242.06 764.28 242.22C764.04 242.38 763.82 242.56 763.61 242.76C763.41 242.97 763.23 243.19 763.07 243.43C762.91 243.67 762.77 243.92 762.66 244.19C762.55 244.46 762.47 244.73 762.41 245.01C762.35 245.3 762.33 245.58 762.33 245.87C762.33 246.16 762.35 246.44 762.41 246.73C762.47 247.01 762.55 247.28 762.66 247.55C762.77 247.82 762.91 248.07 763.07 248.31C763.23 248.55 763.41 248.77 763.61 248.97C763.82 249.18 764.04 249.36 764.28 249.52C764.52 249.68 764.77 249.82 765.04 249.93C765.3 250.04 765.58 250.12 765.86 250.18C766.14 250.23 766.43 250.26 766.72 250.26C788.84 250.26 792.48 252.32 793.01 252.85C793.04 253.32 793.04 253.79 793.01 254.26L793.01 283.37L735.58 298.51C735.11 298.64 734.64 298.81 734.2 299.02C733.76 299.24 733.34 299.5 732.94 299.79C732.55 300.09 732.19 300.43 731.86 300.8C731.53 301.17 731.24 301.56 730.99 301.99C730.74 302.42 730.54 302.86 730.38 303.33C730.21 303.79 730.1 304.27 730.03 304.76C729.96 305.25 729.94 305.74 729.97 306.24C730 306.73 730.08 307.21 730.2 307.69C730.2 307.72 730.2 307.75 730.23 307.78L734.4 323.28C725.11 319.17 715.39 316.84 705.25 316.3L705.25 289.82L731.62 289.82C731.91 289.82 732.2 289.79 732.48 289.73C732.76 289.68 733.04 289.59 733.3 289.48C733.57 289.37 733.82 289.24 734.06 289.08C734.3 288.92 734.52 288.73 734.73 288.53C734.93 288.33 735.11 288.1 735.27 287.87C735.43 287.63 735.57 287.37 735.68 287.11C735.79 286.84 735.87 286.57 735.93 286.28C735.98 286 736.01 285.72 736.01 285.43C736.01 285.14 735.98 284.85 735.93 284.57C735.87 284.29 735.79 284.01 735.68 283.75C735.57 283.48 735.43 283.23 735.27 282.99C735.11 282.75 734.93 282.53 734.73 282.32C734.52 282.12 734.3 281.94 734.06 281.78C733.82 281.62 733.57 281.48 733.3 281.37C733.04 281.26 732.76 281.18 732.48 281.12C732.2 281.06 731.91 281.04 731.62 281.04L670.1 281.04C669.81 281.04 669.53 281.06 669.25 281.12C668.96 281.18 668.69 281.26 668.42 281.37C668.16 281.48 667.9 281.62 667.66 281.78C667.42 281.94 667.2 282.12 667 282.32C666.8 282.53 666.61 282.75 666.45 282.99C666.29 283.23 666.16 283.48 666.05 283.75C665.94 284.01 665.85 284.29 665.8 284.57C665.74 284.85 665.71 285.14 665.71 285.43C665.71 285.72 665.74 286 665.8 286.28C665.85 286.57 665.94 286.84 666.05 287.11C666.16 287.37 666.29 287.63 666.45 287.87C666.61 288.1 666.8 288.33 667 288.53C667.2 288.73 667.42 288.92 667.66 289.08C667.9 289.24 668.16 289.37 668.42 289.48C668.69 289.59 668.96 289.68 669.25 289.73C669.53 289.79 669.81 289.82 670.1 289.82L696.44 289.82L696.44 316.29C686.3 316.82 676.58 319.15 667.29 323.26L671.46 307.76C671.73 306.8 671.79 305.81 671.66 304.82C671.53 303.82 671.22 302.89 670.72 302.02C670.22 301.15 669.56 300.41 668.77 299.8C667.97 299.19 667.08 298.76 666.11 298.51L608.64 283.33L608.64 252.98C609.26 252.33 612.9 250.26 634.99 250.26C635.27 250.26 635.56 250.24 635.84 250.18C636.12 250.12 636.4 250.04 636.67 249.93C636.93 249.82 637.19 249.68 637.43 249.52C637.66 249.36 637.89 249.18 638.09 248.98C638.29 248.77 638.48 248.55 638.64 248.31C638.8 248.07 638.93 247.82 639.04 247.55C639.15 247.29 639.24 247.01 639.29 246.73C639.35 246.45 639.38 246.16 639.38 245.87C639.38 245.58 639.35 245.3 639.29 245.02C639.24 244.73 639.15 244.46 639.04 244.19C638.93 243.93 638.8 243.67 638.64 243.43C638.48 243.19 638.29 242.97 638.09 242.77C637.89 242.56 637.66 242.38 637.43 242.22C637.19 242.06 636.93 241.93 636.67 241.82C636.4 241.71 636.12 241.62 635.84 241.57C635.56 241.51 635.27 241.48 634.99 241.48C629.78 240.9 624.59 240.93 619.39 241.58C614.2 242.24 609.15 243.49 604.26 245.35C599.36 243.49 594.31 242.24 589.12 241.58C583.92 240.93 578.72 240.9 573.52 241.48C573.23 241.48 572.94 241.51 572.66 241.57C572.38 241.62 572.1 241.71 571.84 241.82C571.57 241.93 571.32 242.06 571.08 242.22C570.84 242.38 570.62 242.56 570.41 242.77C570.21 242.97 570.03 243.19 569.87 243.43C569.71 243.67 569.57 243.93 569.46 244.19C569.35 244.46 569.27 244.73 569.21 245.02C569.15 245.3 569.13 245.58 569.13 245.87C569.13 246.16 569.15 246.45 569.21 246.73C569.27 247.01 569.35 247.29 569.46 247.55C569.57 247.82 569.71 248.07 569.87 248.31C570.03 248.55 570.21 248.77 570.41 248.98C570.62 249.18 570.84 249.36 571.08 249.52C571.32 249.68 571.57 249.82 571.84 249.93C572.1 250.04 572.38 250.12 572.66 250.18C572.94 250.24 573.23 250.26 573.52 250.26C595.64 250.26 599.28 252.33 599.81 252.86C599.84 253.33 599.84 253.79 599.81 254.26L599.81 281.02L591.07 278.77C590.59 278.65 590.11 278.58 589.62 278.55C589.13 278.53 588.64 278.55 588.16 278.62C587.67 278.68 587.2 278.8 586.74 278.96C586.27 279.12 585.83 279.32 585.4 279.57C584.98 279.81 584.58 280.1 584.21 280.42C583.84 280.74 583.51 281.09 583.21 281.48C582.91 281.87 582.65 282.28 582.42 282.72C582.2 283.15 582.02 283.61 581.89 284.08L574.42 311.95C574.3 312.43 574.21 312.91 574.18 313.4C574.15 313.9 574.16 314.39 574.23 314.88C574.29 315.37 574.4 315.84 574.56 316.31C574.72 316.78 574.92 317.23 575.17 317.65C575.41 318.08 575.7 318.48 576.02 318.85C576.35 319.22 576.71 319.56 577.1 319.86C577.49 320.16 577.9 320.42 578.35 320.64C578.79 320.86 579.25 321.03 579.72 321.16L579.78 321.17L599.8 326.44L599.8 445.96L570.36 475.42C570.15 475.62 569.97 475.84 569.81 476.08C569.65 476.32 569.52 476.57 569.41 476.84C569.3 477.1 569.22 477.38 569.16 477.66C569.11 477.94 569.08 478.22 569.08 478.51C569.08 478.8 569.11 479.08 569.16 479.36C569.22 479.65 569.3 479.92 569.41 480.19C569.52 480.45 569.65 480.7 569.81 480.94C569.97 481.18 570.15 481.4 570.36 481.6C571.22 482.47 572.25 482.89 573.47 482.88C574.68 482.87 575.72 482.45 576.59 481.6L599.81 458.38L599.81 478.52C599.81 478.81 599.84 479.1 599.9 479.38C599.95 479.66 600.04 479.94 600.15 480.2C600.26 480.47 600.39 480.72 600.55 480.96C600.71 481.2 600.9 481.42 601.1 481.63C601.3 481.83 601.53 482.01 601.77 482.17C602 482.33 602.26 482.47 602.52 482.58C602.79 482.69 603.06 482.77 603.35 482.83C603.63 482.88 603.92 482.91 604.2 482.91C604.49 482.91 604.78 482.88 605.06 482.83C605.34 482.77 605.62 482.69 605.88 482.58C606.15 482.47 606.4 482.33 606.64 482.17C606.88 482.01 607.1 481.83 607.31 481.63C607.51 481.42 607.69 481.2 607.85 480.96C608.01 480.72 608.15 480.47 608.26 480.2C608.37 479.94 608.45 479.66 608.51 479.38C608.57 479.1 608.59 478.81 608.59 478.52L608.59 458.38L631.82 481.6C632.68 482.47 633.72 482.89 634.93 482.88C636.14 482.87 637.18 482.45 638.05 481.6C638.25 481.4 638.43 481.18 638.59 480.94C638.75 480.7 638.89 480.45 639 480.19C639.11 479.92 639.19 479.65 639.25 479.36C639.3 479.08 639.33 478.8 639.33 478.51C639.33 478.22 639.3 477.94 639.25 477.66C639.19 477.38 639.11 477.1 639 476.84C638.89 476.57 638.75 476.32 638.59 476.08C638.43 475.84 638.25 475.62 638.05 475.42L608.59 445.96L608.59 328.74L644.36 338.18C642.23 340.11 640.21 342.15 638.29 344.3C636.38 346.45 634.58 348.69 632.9 351.02C631.21 353.36 629.66 355.78 628.23 358.28C626.8 360.77 625.51 363.34 624.35 365.97C623.19 368.61 622.17 371.29 621.29 374.04C620.41 376.78 619.68 379.56 619.09 382.37C618.51 385.19 618.07 388.03 617.78 390.89C617.49 393.76 617.35 396.63 617.36 399.51C617.37 402.93 617.58 406.35 618.01 409.75C618.43 413.15 619.06 416.52 619.9 419.84C620.74 423.17 621.78 426.43 623.03 429.62C624.27 432.82 625.7 435.92 627.33 438.94C628.95 441.96 630.76 444.87 632.74 447.67C634.72 450.46 636.87 453.13 639.18 455.66C641.5 458.19 643.95 460.57 646.56 462.8C649.17 465.03 651.9 467.09 654.76 468.98L652.66 477.47C652.59 477.74 652.55 478.02 652.53 478.31C652.52 478.6 652.53 478.88 652.57 479.16C652.61 479.45 652.68 479.73 652.78 479.99C652.87 480.26 652.99 480.52 653.14 480.77C653.28 481.02 653.45 481.24 653.65 481.46C653.84 481.67 654.05 481.86 654.28 482.03C654.51 482.2 654.75 482.35 655.01 482.48C655.27 482.6 655.54 482.7 655.81 482.77L655.87 482.77C656.14 482.84 656.43 482.88 656.71 482.89C657 482.91 657.29 482.89 657.57 482.85C657.86 482.81 658.13 482.74 658.41 482.64C658.68 482.54 658.93 482.42 659.18 482.27C659.43 482.12 659.66 481.95 659.87 481.76C660.08 481.57 660.27 481.35 660.45 481.12C660.62 480.89 660.76 480.64 660.89 480.38C661.01 480.12 661.1 479.85 661.17 479.57C661.17 479.56 661.17 479.56 661.17 479.55L662.67 473.53C665.6 475.05 668.62 476.4 671.72 477.56C674.81 478.72 677.97 479.69 681.18 480.48C684.4 481.26 687.64 481.85 690.93 482.25C694.21 482.64 697.51 482.84 700.82 482.84C704.12 482.84 707.42 482.64 710.7 482.25C713.99 481.85 717.24 481.26 720.45 480.48C723.66 479.69 726.82 478.72 729.91 477.56C733.01 476.4 736.03 475.05 738.96 473.53L740.46 479.55C740.53 479.82 740.63 480.09 740.75 480.35C740.87 480.61 741.02 480.86 741.19 481.09C741.36 481.32 741.56 481.53 741.77 481.72C741.98 481.92 742.21 482.09 742.46 482.23C742.7 482.38 742.96 482.5 743.23 482.6C743.5 482.7 743.78 482.77 744.06 482.81C744.35 482.85 744.63 482.87 744.92 482.85C745.21 482.84 745.49 482.8 745.77 482.73C746.05 482.66 746.32 482.57 746.58 482.45C746.84 482.32 747.08 482.18 747.31 482.01C747.54 481.84 747.76 481.65 747.95 481.43C748.15 481.22 748.32 480.99 748.47 480.75C748.62 480.5 748.74 480.25 748.84 479.98C748.94 479.71 749.01 479.43 749.05 479.14C749.1 478.86 749.11 478.58 749.1 478.29C749.09 478 749.05 477.72 748.98 477.44L746.87 468.98C749.73 467.09 752.47 465.03 755.07 462.8C757.68 460.57 760.13 458.19 762.45 455.66C764.76 453.13 766.9 450.46 768.89 447.67C770.87 444.87 772.67 441.96 774.3 438.94C775.92 435.92 777.36 432.82 778.6 429.62C779.84 426.42 780.88 423.16 781.72 419.84C782.56 416.52 783.19 413.15 783.62 409.75C784.04 406.35 784.26 402.93 784.26 399.51C784.27 396.63 784.13 393.76 783.84 390.89C783.55 388.03 783.11 385.19 782.52 382.37C781.94 379.56 781.2 376.78 780.32 374.04C779.45 371.3 778.43 368.61 777.27 365.98C776.11 363.34 774.81 360.78 773.39 358.28C771.96 355.78 770.4 353.36 768.72 351.03C767.04 348.69 765.24 346.45 763.33 344.3C761.41 342.15 759.39 340.11 757.26 338.18L793.04 328.74L793.04 445.96L763.58 475.42C763.38 475.62 763.2 475.84 763.04 476.08C762.88 476.32 762.75 476.57 762.64 476.84C762.53 477.1 762.44 477.37 762.39 477.66C762.33 477.94 762.3 478.22 762.3 478.51C762.3 478.8 762.33 479.08 762.39 479.36C762.44 479.64 762.53 479.92 762.64 480.18C762.75 480.45 762.88 480.7 763.04 480.94C763.2 481.18 763.38 481.4 763.58 481.6C764.44 482.47 765.48 482.89 766.7 482.88C767.91 482.87 768.94 482.44 769.81 481.6L793.04 458.38L793.04 478.52C793.04 478.81 793.07 479.1 793.12 479.38C793.18 479.66 793.26 479.94 793.37 480.2C793.48 480.47 793.62 480.72 793.78 480.96C793.94 481.2 794.12 481.42 794.32 481.63C794.53 481.83 794.75 482.01 794.99 482.17C795.23 482.33 795.48 482.47 795.75 482.58C796.01 482.69 796.29 482.77 796.57 482.83C796.85 482.88 797.14 482.91 797.43 482.91C797.72 482.91 798 482.88 798.29 482.83C798.57 482.77 798.84 482.69 799.11 482.58C799.38 482.47 799.63 482.33 799.87 482.17C800.11 482.01 800.33 481.83 800.53 481.63C800.74 481.42 800.92 481.2 801.08 480.96C801.24 480.72 801.38 480.47 801.49 480.2C801.6 479.94 801.68 479.66 801.74 479.38C801.79 479.1 801.82 478.81 801.82 478.52L801.82 458.38L825.04 481.6C825.9 482.47 826.94 482.89 828.16 482.88C829.37 482.87 830.41 482.44 831.27 481.6C831.48 481.4 831.66 481.18 831.82 480.94C831.98 480.7 832.11 480.45 832.22 480.18C832.33 479.92 832.41 479.64 832.47 479.36C832.53 479.08 832.55 478.8 832.55 478.51C832.55 478.22 832.53 477.94 832.47 477.66C832.41 477.37 832.33 477.1 832.22 476.84C832.11 476.57 831.98 476.32 831.82 476.08C831.66 475.84 831.48 475.62 831.27 475.42L801.82 445.96L801.82 326.42L821.83 321.15C822.81 320.89 823.69 320.46 824.49 319.85C825.29 319.24 825.94 318.51 826.45 317.64C826.94 316.78 827.26 315.86 827.39 314.88C827.52 313.9 827.45 312.93 827.19 311.98L819.73 284.11C819.59 283.63 819.41 283.18 819.19 282.74C818.97 282.31 818.71 281.89 818.41 281.51C818.11 281.12 817.77 280.76 817.4 280.44C817.03 280.12 816.64 279.84 816.21 279.59C815.79 279.34 815.34 279.14 814.88 278.98C814.42 278.82 813.94 278.71 813.46 278.64C812.97 278.57 812.49 278.55 812 278.57C811.51 278.6 811.02 278.67 810.55 278.79L801.81 281.06L801.81 252.97C802.43 252.32 806.07 250.25 828.16 250.25C828.44 250.25 828.73 250.22 829.01 250.17C829.29 250.11 829.57 250.03 829.83 249.92C830.1 249.8 830.35 249.67 830.59 249.51C830.83 249.35 831.05 249.17 831.26 248.96C831.46 248.76 831.64 248.54 831.8 248.3C831.96 248.06 832.1 247.8 832.21 247.54C832.32 247.27 832.4 247 832.46 246.72C832.52 246.43 832.55 246.15 832.55 245.86ZM590.09 287.52L662.6 306.67L656.67 328.8L655.8 332.13L583.29 312.98L590.09 287.52ZM746.95 340.9C749.17 342.63 751.29 344.48 753.3 346.45C755.31 348.42 757.2 350.5 758.98 352.69C760.75 354.87 762.39 357.15 763.9 359.53C765.42 361.9 766.79 364.36 768.02 366.89C769.25 369.42 770.34 372.02 771.27 374.67C772.21 377.33 772.99 380.03 773.61 382.77C774.24 385.52 774.71 388.29 775.02 391.09C775.33 393.89 775.48 396.69 775.47 399.51C775.5 440.73 742.11 474.16 700.9 474.18C659.68 474.2 626.24 440.83 626.22 399.61L626.22 399.5C626.21 396.68 626.36 393.87 626.67 391.07C626.99 388.27 627.45 385.5 628.08 382.76C628.71 380.01 629.49 377.31 630.43 374.65C631.37 372 632.45 369.4 633.68 366.87C634.92 364.34 636.29 361.89 637.81 359.51C639.32 357.14 640.96 354.86 642.74 352.67C644.51 350.48 646.41 348.4 648.42 346.43C650.43 344.46 652.55 342.61 654.77 340.89C655.34 341.02 655.91 341.09 656.48 341.1L657.05 341.1C657.63 341.08 658.21 341.01 658.78 340.89C659.11 340.79 659.43 340.68 659.74 340.54C660.14 340.37 660.52 340.17 660.87 339.92C661.13 339.76 661.38 339.58 661.62 339.39C662.08 339.01 662.49 338.57 662.84 338.08C662.96 337.91 663.07 337.73 663.16 337.54C663.53 336.95 663.82 336.32 664.03 335.65L664.29 334.6C667.08 333.05 669.95 331.68 672.91 330.5C675.87 329.31 678.89 328.32 681.97 327.52C685.06 326.72 688.18 326.12 691.34 325.72C694.5 325.32 697.67 325.11 700.86 325.11C704.05 325.11 707.22 325.32 710.38 325.72C713.54 326.12 716.66 326.72 719.75 327.52C722.83 328.32 725.85 329.31 728.81 330.5C731.77 331.68 734.64 333.05 737.43 334.6L737.69 335.65L737.69 335.79C737.87 336.41 738.14 336.99 738.48 337.54C738.59 337.75 738.72 337.94 738.88 338.11C739.21 338.56 739.59 338.97 740.01 339.33C740.28 339.55 740.56 339.74 740.85 339.9C741.17 340.08 741.47 340.25 741.81 340.43C742.18 340.61 742.55 340.75 742.94 340.87C743.48 341.01 744.02 341.09 744.56 341.14L745.13 341.14C745.69 341.13 746.25 341.06 746.79 340.92L746.95 340.9ZM811.53 287.48L818.33 312.94L745.82 332.08L744.95 328.75L739.02 306.62L811.53 287.48Z" fill="#333333" fill-opacity="1.000000" fill-rule="nonzero"/>
			<path id="path" d="M766.69 248.41C771.89 249 777.09 248.96 782.28 248.31C787.48 247.66 792.52 246.4 797.42 244.55C802.31 246.4 807.36 247.66 812.55 248.31C817.74 248.96 822.94 249 828.14 248.41C828.43 248.41 828.72 248.38 829 248.33C829.28 248.27 829.56 248.19 829.82 248.08C830.09 247.97 830.34 247.83 830.58 247.67C830.82 247.51 831.04 247.33 831.25 247.13C831.45 246.92 831.63 246.7 831.79 246.46C831.95 246.22 832.09 245.97 832.2 245.7C832.31 245.44 832.39 245.16 832.45 244.88C832.51 244.6 832.53 244.31 832.53 244.02C832.53 243.73 832.51 243.45 832.45 243.17C832.39 242.88 832.31 242.61 832.2 242.34C832.09 242.08 831.95 241.82 831.79 241.58C831.63 241.34 831.45 241.12 831.25 240.92C831.04 240.71 830.82 240.53 830.58 240.37C830.34 240.21 830.09 240.08 829.82 239.97C829.56 239.85 829.28 239.77 829 239.72C828.72 239.66 828.43 239.63 828.14 239.63C806.02 239.63 802.38 237.57 801.85 237.04C801.82 236.55 801.82 236.07 801.85 235.59L801.85 235.2C801.84 234.92 801.81 234.65 801.75 234.38C801.69 234.1 801.61 233.84 801.5 233.58C801.39 233.33 801.25 233.09 801.09 232.86C800.93 232.63 800.76 232.42 800.56 232.22C800.35 232.03 800.14 231.86 799.9 231.71C799.67 231.56 799.42 231.43 799.16 231.33C798.91 231.23 798.64 231.15 798.37 231.1C798.09 231.05 797.82 231.03 797.54 231.03L797.44 231.03C797.15 231.04 796.86 231.08 796.58 231.14C796.29 231.21 796.02 231.3 795.75 231.42C795.49 231.54 795.23 231.68 794.99 231.85C794.76 232.01 794.54 232.2 794.33 232.41C794.13 232.62 793.95 232.85 793.79 233.09C793.63 233.33 793.5 233.59 793.39 233.86C793.28 234.13 793.2 234.41 793.14 234.7C793.08 234.98 793.06 235.27 793.06 235.56L793.06 236.91C792.44 237.57 788.8 239.63 766.71 239.63C766.43 239.63 766.14 239.66 765.86 239.71C765.57 239.77 765.3 239.85 765.03 239.96C764.77 240.07 764.51 240.21 764.27 240.37C764.03 240.53 763.81 240.71 763.61 240.91C763.4 241.12 763.22 241.34 763.06 241.58C762.9 241.82 762.77 242.07 762.66 242.34C762.55 242.6 762.46 242.88 762.41 243.16C762.35 243.44 762.32 243.73 762.32 244.02C762.32 244.31 762.35 244.59 762.41 244.88C762.46 245.16 762.55 245.43 762.66 245.7C762.77 245.97 762.9 246.22 763.06 246.46C763.22 246.7 763.4 246.92 763.61 247.12C763.81 247.33 764.03 247.51 764.27 247.67C764.51 247.83 764.77 247.97 765.03 248.08C765.3 248.19 765.57 248.27 765.86 248.33C766.14 248.38 766.43 248.41 766.71 248.41L766.69 248.41Z" fill="#333333" fill-opacity="1.000000" fill-rule="nonzero"/>
			<path id="path" d="M573.54 248.41C578.74 249 583.94 248.96 589.13 248.31C594.32 247.66 599.37 246.4 604.26 244.55C609.16 246.4 614.2 247.66 619.4 248.31C624.59 248.96 629.79 249 634.99 248.41C635.28 248.41 635.57 248.38 635.85 248.33C636.13 248.27 636.41 248.19 636.67 248.08C636.94 247.97 637.19 247.83 637.43 247.67C637.67 247.51 637.89 247.33 638.1 247.13C638.3 246.92 638.48 246.7 638.64 246.46C638.8 246.22 638.94 245.97 639.05 245.7C639.16 245.44 639.24 245.16 639.3 244.88C639.35 244.6 639.38 244.31 639.38 244.02C639.38 243.73 639.35 243.45 639.3 243.17C639.24 242.88 639.16 242.61 639.05 242.34C638.94 242.08 638.8 241.82 638.64 241.58C638.48 241.34 638.3 241.12 638.1 240.92C637.89 240.71 637.67 240.53 637.43 240.37C637.19 240.21 636.94 240.08 636.67 239.97C636.41 239.85 636.13 239.77 635.85 239.72C635.57 239.66 635.28 239.63 634.99 239.63C612.88 239.63 609.23 237.57 608.66 237.04C608.64 236.54 608.64 236.05 608.66 235.56L608.66 235.2C608.66 234.92 608.62 234.64 608.57 234.37C608.51 234.1 608.42 233.83 608.31 233.58C608.2 233.32 608.06 233.08 607.9 232.85C607.74 232.62 607.56 232.41 607.36 232.22C607.16 232.02 606.95 231.85 606.71 231.7C606.48 231.55 606.23 231.42 605.97 231.32C605.71 231.22 605.44 231.14 605.17 231.09C604.89 231.04 604.62 231.02 604.34 231.03L604.27 231.03C603.69 231.07 603.14 231.22 602.61 231.46C602.08 231.71 601.62 232.04 601.21 232.46C600.81 232.88 600.49 233.35 600.26 233.89C600.03 234.42 599.91 234.98 599.88 235.56L599.88 236.91C599.31 237.56 595.67 239.62 573.54 239.62C573.26 239.63 572.98 239.67 572.7 239.73C572.42 239.79 572.15 239.88 571.89 239.99C571.64 240.11 571.39 240.24 571.15 240.41C570.92 240.57 570.71 240.75 570.51 240.95C570.31 241.16 570.14 241.38 569.98 241.61C569.83 241.85 569.69 242.1 569.59 242.36C569.48 242.63 569.4 242.9 569.34 243.17C569.29 243.45 569.26 243.73 569.26 244.02C569.26 244.3 569.29 244.58 569.34 244.86C569.4 245.14 569.48 245.41 569.59 245.67C569.69 245.93 569.83 246.18 569.98 246.42C570.14 246.66 570.31 246.88 570.51 247.08C570.71 247.29 570.92 247.47 571.15 247.63C571.39 247.79 571.64 247.93 571.89 248.04C572.15 248.16 572.42 248.24 572.7 248.31C572.98 248.37 573.25 248.41 573.54 248.41Z" fill="#333333" fill-opacity="1.000000" fill-rule="nonzero"/>
			<path id="path" d="M720.61 395.12C719.96 395.12 719.32 395.16 718.67 395.22C718.03 395.28 717.39 395.38 716.76 395.5C716.12 395.63 715.49 395.79 714.88 395.97C714.26 396.16 713.65 396.38 713.05 396.63C712.45 396.88 711.87 397.15 711.3 397.46C710.73 397.76 710.17 398.09 709.63 398.45C709.1 398.81 708.58 399.2 708.08 399.61C707.58 400.02 707.1 400.45 706.64 400.91C706.18 401.37 705.75 401.85 705.34 402.35C704.93 402.85 704.54 403.37 704.18 403.91C703.82 404.44 703.49 405 703.18 405.57C702.88 406.14 702.6 406.72 702.36 407.32C702.11 407.92 701.89 408.53 701.7 409.15C701.51 409.77 701.36 410.39 701.23 411.03C701.1 411.66 701.01 412.3 700.95 412.95C700.88 413.59 700.85 414.24 700.85 414.88C700.85 415.53 700.88 416.18 700.95 416.82C701.01 417.46 701.1 418.1 701.23 418.74C701.36 419.37 701.51 420 701.7 420.62C701.89 421.24 702.11 421.85 702.36 422.44C702.6 423.04 702.88 423.63 703.18 424.2C703.49 424.77 703.82 425.32 704.18 425.86C704.54 426.4 704.93 426.92 705.34 427.42C705.75 427.92 706.18 428.4 706.64 428.86C707.1 429.31 707.58 429.75 708.08 430.16C708.58 430.57 709.1 430.95 709.63 431.31C710.17 431.67 710.73 432 711.3 432.31C711.87 432.61 712.45 432.89 713.05 433.14C713.65 433.39 714.26 433.6 714.88 433.79C715.49 433.98 716.12 434.14 716.76 434.26C717.39 434.39 718.03 434.48 718.67 434.55C719.32 434.61 719.96 434.64 720.61 434.64C721.26 434.64 721.9 434.61 722.55 434.55C723.19 434.48 723.83 434.39 724.47 434.26C725.1 434.14 725.73 433.98 726.35 433.79C726.97 433.6 727.58 433.39 728.17 433.14C728.77 432.89 729.35 432.61 729.93 432.31C730.5 432 731.05 431.67 731.59 431.31C732.13 430.95 732.65 430.57 733.15 430.16C733.65 429.75 734.13 429.31 734.58 428.86C735.04 428.4 735.47 427.92 735.89 427.42C736.3 426.92 736.68 426.4 737.04 425.86C737.4 425.32 737.73 424.77 738.04 424.2C738.34 423.63 738.62 423.04 738.87 422.44C739.11 421.85 739.33 421.24 739.52 420.62C739.71 420 739.87 419.37 739.99 418.74C740.12 418.1 740.21 417.46 740.28 416.82C740.34 416.18 740.37 415.53 740.37 414.88C740.37 414.24 740.34 413.59 740.27 412.95C740.21 412.3 740.11 411.66 739.99 411.03C739.86 410.4 739.7 409.77 739.51 409.15C739.33 408.53 739.11 407.92 738.86 407.33C738.61 406.73 738.34 406.14 738.03 405.57C737.72 405 737.39 404.45 737.03 403.91C736.67 403.37 736.29 402.85 735.88 402.35C735.47 401.85 735.03 401.38 734.58 400.92C734.12 400.46 733.64 400.03 733.14 399.62C732.64 399.21 732.12 398.82 731.58 398.46C731.05 398.1 730.49 397.77 729.92 397.46C729.35 397.16 728.77 396.88 728.17 396.63C727.57 396.39 726.96 396.17 726.34 395.98C725.73 395.79 725.1 395.63 724.46 395.51C723.83 395.38 723.19 395.29 722.55 395.22C721.9 395.16 721.26 395.12 720.61 395.12ZM720.61 425.85C719.89 425.85 719.18 425.78 718.47 425.64C717.76 425.5 717.08 425.29 716.41 425.01C715.74 424.74 715.11 424.4 714.51 424C713.91 423.6 713.36 423.14 712.85 422.63C712.34 422.12 711.88 421.57 711.48 420.97C711.08 420.37 710.75 419.74 710.47 419.07C710.19 418.41 709.99 417.72 709.84 417.01C709.7 416.31 709.63 415.59 709.63 414.87C709.63 414.15 709.7 413.44 709.84 412.73C709.99 412.02 710.19 411.34 710.47 410.67C710.75 410 711.08 409.37 711.48 408.77C711.88 408.17 712.34 407.62 712.85 407.11C713.36 406.6 713.91 406.14 714.51 405.74C715.11 405.34 715.74 405 716.41 404.73C717.08 404.45 717.76 404.24 718.47 404.1C719.18 403.96 719.89 403.89 720.61 403.89C721.33 403.89 722.05 403.96 722.75 404.1C723.46 404.24 724.15 404.45 724.81 404.73C725.48 405 726.11 405.34 726.71 405.74C727.31 406.14 727.86 406.6 728.37 407.11C728.88 407.62 729.34 408.17 729.74 408.77C730.14 409.37 730.48 410 730.75 410.67C731.03 411.34 731.24 412.02 731.38 412.73C731.52 413.44 731.59 414.15 731.59 414.87C731.59 415.59 731.52 416.31 731.38 417.01C731.24 417.72 731.03 418.41 730.75 419.07C730.48 419.74 730.14 420.37 729.74 420.97C729.34 421.57 728.88 422.12 728.37 422.63C727.86 423.14 727.31 423.6 726.71 424C726.11 424.4 725.48 424.74 724.81 425.01C724.15 425.29 723.46 425.5 722.75 425.64C722.05 425.78 721.33 425.85 720.61 425.85Z" fill="#333333" fill-opacity="1.000000" fill-rule="nonzero"/>
		</g>
		<g filter="url(#filter_44_13_dd)">
			<path id="乐队解散" d="M515.54 621.63L503.91 621.63L503.91 637.01L531.16 637.01L531.16 584.45L573.99 584.45L573.99 570.03L531.16 570.03L531.16 553.36L515.54 553.36L515.54 570.03L487.01 570.03L490.35 544.84Q531.74 544.49 569.07 541.59L569.07 526.82Q521.31 529.96 476.55 529.96L469.34 584.45L515.54 584.45L515.54 621.63ZM895.05 619.31Q890.31 627.05 883.36 637.01L902.55 637.01Q908.56 627.52 912.75 619.34L919.6 637.01L935.81 637.01L922.12 602.32Q925.35 592.71 927.4 581.61Q929.45 570.5 930.65 556.35L934.49 556.35L934.49 540.77L906.86 540.77L907.24 536.67Q907.36 535.23 907.59 533.09Q907.83 530.92 907.94 528.02L892.48 528.02Q889.96 558.4 882.75 582.98L896.2 582.98L903.29 603.87Q899.8 611.55 895.05 619.31ZM628.25 530.19L587.67 530.19L587.67 637.01L603.02 637.01L603.02 545.81L612.4 545.81Q610.84 560.81 605.19 576.39Q609.15 582.63 610.99 588.46Q611.84 591.1 612.31 593.81Q612.87 597.05 612.87 600.39Q612.87 603.44 612.4 606.41Q611.93 609.41 610.99 612.34Q609.15 618.17 605.19 624.26L621.63 624.26Q622.24 623.21 623.21 621.04L623.21 638.44Q627.24 636.48 630.95 634.02Q638.58 628.97 644.83 621.83Q654.15 611.2 659.8 596.93Q665.54 611.2 674.83 621.83Q681.56 629.49 689.82 634.76Q692.99 636.78 696.39 638.44L696.39 618.99Q692.95 616.98 689.9 614.47Q680.46 606.7 674.92 594.18Q667.59 577.59 667.59 554.18L667.59 528.64L652.01 528.64L652.12 554.18Q652.12 577.24 644.98 593.56Q639.27 606.58 629.48 614.64Q627 616.68 624.26 618.4Q627.55 609.62 627.63 600.81Q627.63 600.6 627.63 600.39Q627.63 596.99 627.15 593.67Q625.84 584.78 621.04 576.39Q624.76 565.11 626.49 554.21Q628.25 543.29 628.25 530.19ZM709.84 592.01Q709.84 616.24 703.6 637.01L718.36 637.01Q720.77 626.43 721.7 617.55L728.06 617.55L728.06 637.12L740.07 637.12L740.07 617.55L745.96 617.55L745.96 637.01L759.41 637.01L759.41 571.24L775.73 571.24Q778.6 566.86 780.71 562.15Q784.53 553.67 785.92 544.11L797.09 544.11L796.7 557.44L788.06 557.44L788.06 571.24L811 571.24L811.82 529.72L762.52 529.72L762.52 544.11L771.27 544.11Q768.64 557.55 759.41 570.5L759.41 551.55L752.09 551.55Q756.74 541.35 759.15 528.99L720.03 528.99Q716.45 539.68 709.09 545.98Q707.62 547.24 706 548.33L706 563.06L709.72 561.63L709.84 592.01ZM834.26 557.67L825.39 557.67L825.39 571.59L884.18 571.59L884.18 557.67L875.19 557.67L875.19 549.26L881.67 549.26L881.67 535.58L875.19 535.58L875.19 528.99L860.19 528.99L860.19 535.58L849.26 535.58L849.26 528.99L834.26 528.99L834.26 535.58L827.79 535.58L827.79 549.26L834.26 549.26L834.26 557.67ZM741.27 543.17Q739.72 547.36 737.32 551.55L723.17 551.55Q726.63 547.48 728.79 543.17L741.27 543.17ZM860.19 549.26L860.19 557.67L849.26 557.67L849.26 549.26L860.19 549.26ZM916.47 556.35Q915.15 570.88 912.05 583.95L904.49 558.76L904.84 556.35L916.47 556.35ZM729.03 565L729.03 577.83L723.17 577.83L723.17 565L729.03 565ZM745.96 565L745.96 577.83L740.07 577.83L740.07 565L745.96 565ZM764.8 574.84Q764.68 589.96 759.88 605.19L773.56 605.19Q774.88 600.15 775.73 595.35L783.29 595.35L783.29 608.33L761.31 608.33L761.31 622.48L783.29 622.48L783.29 637.01L798.17 637.01L798.17 622.48L815.19 622.48L815.19 608.33L798.17 608.33L798.17 595.35L813.4 595.35L813.4 581.43L798.17 581.43L798.17 572.44L783.29 572.44L783.29 581.43L777.28 581.43Q777.52 577.12 777.52 574.84L764.8 574.84ZM880 576.04L829.49 576.04L829.49 637.01L844.49 637.01L844.49 627.05L865 627.05L865 637.01L880 637.01L880 576.04ZM865 590.07L865 596.43L844.49 596.43L844.49 590.07L865 590.07ZM729.03 591.27L729.03 604.11L722.79 604.11Q723.17 598.1 723.17 592.01L723.17 591.27L729.03 591.27ZM745.96 591.27L745.96 604.11L740.07 604.11L740.07 591.27L745.96 591.27ZM479.8 592.59Q474.41 611.78 463.95 632.9L482.09 632.9Q486.13 624 489.48 614.84Q493.47 603.9 496.47 592.59L479.8 592.59ZM576.04 632.9Q565.58 611.78 560.19 592.59L543.52 592.59Q546.52 603.9 550.51 614.84Q553.86 624 557.9 632.9L576.04 632.9ZM865 608.56L865 614.92L844.49 614.92L844.49 608.56L865 608.56Z" fill="#FFFFFF" fill-opacity="1.000000" fill-rule="evenodd"/>
		</g>
	</g>
</svg>
