<svg width="1400.000000" height="840.000000" viewBox="0 0 1400 840" fill="none" xmlns="http://www.w3.org/2000/svg" xmlns:xlink="http://www.w3.org/1999/xlink">
	<desc>
			Created with Pixso.
	</desc>
	<defs>
		<clipPath id="clip42_9">
			<rect id="写作业、书.svg" width="252.000000" height="252.000000" transform="translate(574.000000 227.000000)" fill="white" fill-opacity="0"/>
		</clipPath>
		<filter id="filter_42_8_dd" x="351.067383" y="532.714844" width="696.041016" height="109.218750" filterUnits="userSpaceOnUse" color-interpolation-filters="sRGB">
			<feFlood flood-opacity="0" result="BackgroundImageFix"/>
			<feColorMatrix in="SourceAlpha" type="matrix" values="0 0 0 0 0 0 0 0 0 0 0 0 0 0 0 0 0 0 127 0" result="hardAlpha"/>
			<feOffset dx="0" dy="10"/>
			<feGaussianBlur stdDeviation="1.66667"/>
			<feComposite in2="hardAlpha" operator="out" k2="-1" k3="1"/>
			<feColorMatrix type="matrix" values="0 0 0 0 0 0 0 0 0 0 0 0 0 0 0 0 0 0 0.25 0"/>
			<feBlend mode="normal" in2="BackgroundImageFix" result="effect_dropShadow_1"/>
			<feBlend mode="normal" in="SourceGraphic" in2="effect_dropShadow_1" result="shape"/>
		</filter>
		<clipPath id="clip42_1">
			<rect id="writer-suite" width="1400.000000" height="840.000000" fill="white" fill-opacity="0"/>
		</clipPath>
		<linearGradient x1="-0.000033" y1="0.000000" x2="1399.786621" y2="14.660156" id="paint_linear_42_2_0" gradientUnits="userSpaceOnUse">
			<stop stop-color="#5ECEF4"/>
			<stop offset="1.000000" stop-color="#FFF35C"/>
		</linearGradient>
	</defs>
	<rect id="writer-suite" width="1400.000000" height="840.000000" fill="#FFFFFF" fill-opacity="1.000000"/>
	<g clip-path="url(#clip42_1)">
		<rect id="矩形 5" width="1400.000000" height="840.000000" fill="url(#paint_linear_42_2_0)" fill-opacity="1.000000"/>
		<g clip-path="url(#clip42_9)">
			<path id="path" d="M793.47 318.03L804.78 318.03L804.78 298.82C804.78 289.82 797.4 282.44 788.41 282.44L731.08 282.44C717.66 282.44 705.86 288.85 698.36 298.82C690.86 288.85 679.03 282.44 665.61 282.44L608.04 282.44C599.04 282.44 591.66 289.82 591.66 298.82L591.66 450.31C591.66 459.3 599.04 466.68 608.04 466.68L668.2 466.68C676.19 474.55 686.9 479 698.11 479C709.31 479 719.89 474.57 728.03 466.68L788.19 466.68C797.18 466.68 804.56 459.3 804.56 450.31L804.56 424.6L793.25 424.6L793.47 318.03Z" fill="#5ECEF4" fill-opacity="1.000000" fill-rule="nonzero"/>
			<path id="path" d="M623.85 257.05C623.85 257.43 623.86 257.8 623.89 258.15C623.92 258.5 623.95 258.81 624.01 259.07C624.06 259.34 624.11 259.55 624.18 259.7C624.25 259.84 624.31 259.91 624.39 259.91C624.46 259.91 624.53 259.84 624.59 259.7C624.66 259.55 624.71 259.34 624.77 259.07C624.82 258.81 624.85 258.5 624.88 258.15C624.91 257.8 624.92 257.43 624.92 257.05C624.92 256.67 624.91 256.31 624.88 255.96C624.85 255.61 624.82 255.3 624.77 255.03C624.71 254.76 624.66 254.56 624.59 254.41C624.53 254.27 624.46 254.19 624.39 254.19C624.31 254.19 624.25 254.27 624.18 254.41C624.11 254.56 624.06 254.76 624.01 255.03C623.95 255.3 623.92 255.61 623.89 255.96C623.86 256.31 623.85 256.67 623.85 257.05Z" fill="#E61F19" fill-opacity="1.000000" fill-rule="nonzero"/>
			<path id="path" d="M626.41 256.69C626.59 257.01 626.79 257.32 626.99 257.61C627.19 257.9 627.38 258.15 627.55 258.36C627.73 258.57 627.88 258.71 628.01 258.81C628.14 258.9 628.24 258.93 628.3 258.89C628.36 258.86 628.39 258.76 628.37 258.6C628.35 258.44 628.3 258.24 628.21 257.98C628.12 257.72 628 257.43 627.85 257.12C627.7 256.8 627.53 256.48 627.34 256.15C627.15 255.82 626.95 255.51 626.75 255.22C626.56 254.93 626.37 254.68 626.19 254.48C626.01 254.27 625.86 254.12 625.73 254.03C625.6 253.93 625.5 253.91 625.44 253.94C625.38 253.98 625.36 254.07 625.37 254.23C625.39 254.39 625.44 254.6 625.53 254.86C625.62 255.11 625.74 255.4 625.89 255.72C626.05 256.03 626.22 256.36 626.41 256.69Z" fill="#E61F19" fill-opacity="1.000000" fill-rule="nonzero"/>
			<path id="path" d="M628.45 255.13C628.78 255.32 629.1 255.49 629.42 255.64C629.74 255.79 630.02 255.91 630.28 256C630.54 256.09 630.75 256.15 630.91 256.16C631.06 256.18 631.16 256.15 631.2 256.09C631.23 256.03 631.2 255.93 631.11 255.8C631.02 255.67 630.87 255.52 630.66 255.34C630.46 255.17 630.21 254.98 629.92 254.78C629.63 254.58 629.32 254.39 628.99 254.2C628.66 254.01 628.34 253.84 628.02 253.68C627.71 253.53 627.42 253.41 627.16 253.32C626.9 253.23 626.7 253.18 626.54 253.16C626.38 253.15 626.28 253.17 626.25 253.23C626.21 253.29 626.24 253.39 626.33 253.52C626.42 253.65 626.57 253.8 626.78 253.98C626.99 254.16 627.24 254.35 627.53 254.54C627.82 254.74 628.12 254.94 628.45 255.13Z" fill="#E61F19" fill-opacity="1.000000" fill-rule="nonzero"/>
			<path id="path" d="M626.56 252.19C626.56 252.26 626.63 252.33 626.78 252.4C626.92 252.46 627.13 252.52 627.4 252.57C627.67 252.62 627.98 252.66 628.33 252.69C628.68 252.71 629.04 252.73 629.42 252.73C629.8 252.73 630.16 252.71 630.51 252.69C630.86 252.66 631.17 252.62 631.44 252.57C631.71 252.52 631.92 252.46 632.06 252.4C632.21 252.33 632.28 252.26 632.28 252.19C632.28 252.12 632.21 252.05 632.06 251.98C631.92 251.92 631.71 251.86 631.44 251.81C631.17 251.76 630.86 251.72 630.51 251.69C630.16 251.67 629.8 251.65 629.42 251.65C629.04 251.65 628.68 251.67 628.33 251.69C627.98 251.72 627.67 251.76 627.4 251.81C627.13 251.86 626.92 251.92 626.78 251.98C626.63 252.05 626.56 252.12 626.56 252.19Z" fill="#E61F19" fill-opacity="1.000000" fill-rule="nonzero"/>
			<path id="path" d="M626.33 251.13C626.36 251.19 626.46 251.21 626.62 251.2C626.78 251.18 626.99 251.13 627.24 251.04C627.5 250.95 627.79 250.83 628.11 250.67C628.42 250.52 628.75 250.35 629.07 250.16C629.4 249.97 629.71 249.78 630 249.58C630.29 249.38 630.54 249.19 630.75 249.02C630.95 248.84 631.1 248.68 631.2 248.55C631.29 248.42 631.32 248.33 631.28 248.27C631.25 248.21 631.15 248.18 630.99 248.2C630.83 248.21 630.62 248.27 630.37 248.36C630.11 248.45 629.82 248.57 629.5 248.72C629.19 248.87 628.86 249.04 628.54 249.23C628.21 249.42 627.9 249.62 627.61 249.81C627.32 250.01 627.07 250.2 626.86 250.38C626.66 250.56 626.51 250.71 626.41 250.84C626.32 250.97 626.29 251.06 626.33 251.13Z" fill="#E61F19" fill-opacity="1.000000" fill-rule="nonzero"/>
			<path id="path" d="M625.6 250.34C625.66 250.38 625.76 250.35 625.89 250.26C626.02 250.16 626.17 250.02 626.35 249.81C626.53 249.6 626.72 249.35 626.91 249.06C627.11 248.77 627.31 248.46 627.5 248.14C627.69 247.81 627.86 247.48 628.01 247.17C628.16 246.85 628.28 246.56 628.37 246.31C628.46 246.05 628.52 245.84 628.53 245.68C628.55 245.52 628.52 245.43 628.46 245.39C628.4 245.35 628.3 245.38 628.17 245.48C628.04 245.57 627.89 245.72 627.71 245.93C627.53 246.13 627.35 246.38 627.15 246.67C626.95 246.96 626.76 247.27 626.57 247.6C626.38 247.93 626.21 248.25 626.05 248.57C625.9 248.88 625.78 249.17 625.69 249.43C625.6 249.68 625.55 249.89 625.53 250.05C625.52 250.21 625.54 250.31 625.6 250.34Z" fill="#E61F19" fill-opacity="1.000000" fill-rule="nonzero"/>
			<path id="path" d="M624.02 247.16C624.02 247.54 624.03 247.9 624.06 248.25C624.09 248.6 624.13 248.91 624.18 249.18C624.23 249.45 624.28 249.65 624.35 249.8C624.42 249.94 624.49 250.02 624.56 250.02C624.63 250.02 624.7 249.94 624.76 249.8C624.83 249.65 624.89 249.45 624.94 249.18C624.99 248.91 625.03 248.6 625.05 248.25C625.08 247.9 625.09 247.54 625.09 247.16C625.09 246.78 625.08 246.41 625.05 246.06C625.03 245.71 624.99 245.4 624.94 245.13C624.89 244.87 624.83 244.66 624.76 244.51C624.7 244.37 624.63 244.3 624.56 244.3C624.49 244.3 624.42 244.37 624.35 244.51C624.28 244.66 624.23 244.87 624.18 245.13C624.13 245.4 624.09 245.71 624.06 246.06C624.03 246.41 624.02 246.78 624.02 247.16Z" fill="#E61F19" fill-opacity="1.000000" fill-rule="nonzero"/>
			<path id="path" d="M621.62 248.03C621.81 248.36 622 248.67 622.2 248.96C622.4 249.25 622.59 249.5 622.77 249.7C622.94 249.91 623.1 250.06 623.23 250.15C623.36 250.25 623.45 250.28 623.51 250.24C623.58 250.2 623.6 250.11 623.58 249.95C623.57 249.79 623.52 249.58 623.43 249.32C623.33 249.07 623.21 248.78 623.06 248.46C622.91 248.15 622.74 247.82 622.55 247.49C622.36 247.17 622.17 246.86 621.97 246.57C621.77 246.28 621.58 246.03 621.4 245.82C621.23 245.62 621.07 245.47 620.94 245.37C620.81 245.28 620.72 245.25 620.65 245.29C620.59 245.32 620.57 245.42 620.59 245.58C620.6 245.74 620.65 245.95 620.75 246.2C620.84 246.46 620.96 246.75 621.11 247.06C621.26 247.38 621.43 247.7 621.62 248.03Z" fill="#E61F19" fill-opacity="1.000000" fill-rule="nonzero"/>
			<path id="path" d="M619.97 250.02C620.3 250.21 620.62 250.38 620.94 250.53C621.25 250.69 621.54 250.81 621.8 250.9C622.06 250.99 622.27 251.04 622.43 251.06C622.58 251.07 622.68 251.05 622.72 250.99C622.75 250.93 622.72 250.83 622.63 250.7C622.54 250.57 622.39 250.42 622.18 250.24C621.97 250.06 621.72 249.87 621.43 249.67C621.14 249.47 620.83 249.28 620.51 249.09C620.18 248.9 619.85 248.73 619.54 248.58C619.22 248.43 618.93 248.3 618.67 248.21C618.41 248.12 618.21 248.07 618.05 248.05C617.89 248.04 617.79 248.06 617.76 248.12C617.72 248.19 617.75 248.28 617.84 248.41C617.93 248.54 618.08 248.7 618.29 248.87C618.5 249.05 618.75 249.24 619.04 249.44C619.33 249.64 619.64 249.83 619.97 250.02Z" fill="#E61F19" fill-opacity="1.000000" fill-rule="nonzero"/>
			<path id="path" d="M616.66 252.02C616.66 252.09 616.74 252.16 616.88 252.23C617.03 252.29 617.23 252.35 617.5 252.4C617.77 252.45 618.08 252.49 618.43 252.52C618.78 252.54 619.14 252.56 619.52 252.56C619.9 252.56 620.27 252.54 620.62 252.52C620.97 252.49 621.28 252.45 621.54 252.4C621.81 252.35 622.02 252.29 622.16 252.23C622.31 252.16 622.38 252.09 622.38 252.02C622.38 251.95 622.31 251.88 622.16 251.81C622.02 251.75 621.81 251.69 621.54 251.64C621.28 251.59 620.97 251.55 620.62 251.52C620.27 251.5 619.9 251.48 619.52 251.48C619.14 251.48 618.78 251.5 618.43 251.52C618.08 251.55 617.77 251.59 617.5 251.64C617.23 251.69 617.03 251.75 616.88 251.81C616.74 251.88 616.66 251.95 616.66 252.02Z" fill="#E61F19" fill-opacity="1.000000" fill-rule="nonzero"/>
			<path id="path" d="M617.68 255.91C617.71 255.97 617.81 256 617.97 255.98C618.13 255.97 618.33 255.91 618.59 255.82C618.85 255.73 619.14 255.61 619.45 255.46C619.77 255.31 620.09 255.14 620.42 254.95C620.75 254.76 621.06 254.57 621.35 254.37C621.64 254.17 621.89 253.98 622.09 253.8C622.3 253.62 622.45 253.47 622.54 253.34C622.64 253.21 622.66 253.12 622.63 253.05C622.59 252.99 622.5 252.97 622.34 252.98C622.18 253 621.97 253.05 621.71 253.14C621.45 253.23 621.17 253.35 620.85 253.51C620.53 253.66 620.21 253.83 619.88 254.02C619.55 254.21 619.25 254.4 618.96 254.6C618.67 254.8 618.42 254.99 618.21 255.17C618 255.34 617.85 255.5 617.76 255.63C617.67 255.76 617.64 255.85 617.68 255.91Z" fill="#E61F19" fill-opacity="1.000000" fill-rule="nonzero"/>
			<path id="path" d="M620.5 258.83C620.56 258.86 620.65 258.83 620.78 258.74C620.91 258.65 621.07 258.5 621.24 258.29C621.42 258.09 621.61 257.84 621.81 257.55C622.01 257.26 622.2 256.95 622.39 256.62C622.58 256.29 622.75 255.97 622.9 255.65C623.06 255.34 623.18 255.05 623.27 254.79C623.36 254.53 623.41 254.33 623.43 254.17C623.44 254.01 623.42 253.91 623.36 253.88C623.29 253.84 623.2 253.87 623.07 253.96C622.94 254.05 622.78 254.2 622.61 254.41C622.43 254.62 622.24 254.87 622.04 255.16C621.84 255.45 621.65 255.75 621.46 256.08C621.27 256.41 621.1 256.73 620.95 257.05C620.8 257.37 620.68 257.66 620.59 257.91C620.5 258.17 620.44 258.38 620.43 258.54C620.41 258.7 620.43 258.79 620.5 258.83Z" fill="#E61F19" fill-opacity="1.000000" fill-rule="nonzero"/>
			<path id="path" d="M638.14 233.94C638.14 234.4 638.23 234.84 638.41 235.26C638.58 235.69 638.83 236.06 639.16 236.39C639.49 236.71 639.86 236.97 640.29 237.14C640.71 237.32 641.15 237.41 641.61 237.41C642.07 237.41 642.52 237.32 642.94 237.14C643.37 236.97 643.74 236.71 644.07 236.39C644.39 236.06 644.64 235.69 644.82 235.26C645 234.84 645.08 234.4 645.08 233.94C645.08 233.48 645 233.03 644.82 232.61C644.64 232.18 644.39 231.81 644.07 231.48C643.74 231.16 643.37 230.91 642.94 230.73C642.52 230.55 642.07 230.47 641.61 230.47C641.15 230.47 640.71 230.55 640.29 230.73C639.86 230.91 639.49 231.16 639.16 231.48C638.83 231.81 638.58 232.18 638.41 232.61C638.23 233.03 638.14 233.48 638.14 233.94Z" fill="#2C65AF" fill-opacity="1.000000" fill-rule="nonzero"/>
			<path id="path" d="M617.49 230.47C617.49 230.93 617.58 231.37 617.76 231.79C617.93 232.22 618.19 232.59 618.51 232.92C618.84 233.24 619.21 233.5 619.64 233.67C620.06 233.85 620.5 233.94 620.96 233.94C621.42 233.94 621.87 233.85 622.29 233.67C622.72 233.5 623.09 233.24 623.42 232.92C623.74 232.59 623.99 232.22 624.17 231.79C624.35 231.37 624.43 230.93 624.43 230.47C624.43 230.01 624.35 229.56 624.17 229.14C623.99 228.71 623.74 228.34 623.42 228.01C623.09 227.69 622.72 227.44 622.29 227.26C621.87 227.08 621.42 227 620.96 227C620.5 227 620.06 227.08 619.64 227.26C619.21 227.44 618.84 227.69 618.51 228.01C618.19 228.34 617.93 228.71 617.76 229.14C617.58 229.56 617.49 230.01 617.49 230.47Z" fill="#E61F19" fill-opacity="1.000000" fill-rule="nonzero"/>
			<path id="path" d="M596.26 261.33C597.31 260.79 597.85 259.72 597.43 258.96L589.68 243.96C589.29 243.2 588.12 243 587.07 243.54C586.02 244.08 585.48 245.15 585.9 245.91L593.64 260.91C594.03 261.7 595.21 261.87 596.26 261.33Z" fill="#DAB647" fill-opacity="1.000000" fill-rule="nonzero"/>
			<path id="path" d="M600.56 247.84C600.02 246.79 598.95 246.25 598.19 246.67L583.18 254.41C582.43 254.81 582.23 255.98 582.77 257.03C583.31 258.08 584.38 258.62 585.14 258.2L600.14 250.46C600.9 250.06 601.1 248.89 600.56 247.84Z" fill="#DAB647" fill-opacity="1.000000" fill-rule="nonzero"/>
			<path id="path" d="M656.52 245.93C661.38 245.93 665.34 249.84 665.34 254.66C665.34 259.47 661.38 263.38 656.52 263.38C651.66 263.38 647.7 259.47 647.7 254.66C647.7 249.84 651.66 245.93 656.52 245.93ZM656.52 261.09C660.09 261.09 663.02 258.2 663.02 254.66C663.02 251.12 660.11 248.23 656.52 248.23C652.95 248.23 650.02 251.12 650.02 254.66C650.02 258.2 652.93 261.09 656.52 261.09Z" fill="#E62A52" fill-opacity="1.000000" fill-rule="nonzero"/>
			<path id="path" d="M610.82 401.53L610.82 405.59C610.82 407.3 612.17 408.66 613.9 408.66L662.39 408.66C664.1 408.66 665.47 407.32 665.47 405.59L665.47 401.53C665.47 399.82 664.12 398.45 662.39 398.45L614.02 398.45C612.29 398.45 610.82 399.82 610.82 401.53ZM662.26 357.1L614.02 357.1C612.31 357.1 610.94 358.45 610.94 360.18L610.94 364.24C610.94 365.95 612.29 367.32 614.02 367.32L662.26 367.32C663.97 367.32 665.34 365.97 665.34 364.24L665.34 360.18C665.34 358.59 663.85 357.1 662.26 357.1ZM662.63 315.75L614.02 315.75C612.31 315.75 610.94 317.1 610.94 318.83L610.94 322.89C610.94 324.6 612.29 325.97 614.02 325.97L662.75 325.97C664.49 325.97 665.83 324.62 665.83 322.89L665.83 318.83C665.71 317.24 664.37 315.75 662.63 315.75ZM744.72 357.1L719.86 357.1C718.15 357.1 716.78 358.45 716.78 360.18L716.78 364.24C716.78 365.95 718.13 367.32 719.86 367.32L744.72 367.32C746.45 367.32 747.8 365.97 747.8 364.24L747.8 360.18C747.8 358.59 746.3 357.1 744.72 357.1ZM768.47 315.75L719.74 315.75C718.03 315.75 716.66 317.1 716.66 318.83L716.66 322.89C716.66 324.6 718.01 325.97 719.74 325.97L768.47 325.97C770.2 325.97 771.55 324.62 771.55 322.89L771.55 318.83C771.55 317.24 770.18 315.75 768.47 315.75Z" fill="#000000" fill-opacity="1.000000" fill-rule="nonzero"/>
			<path id="path" d="M691.91 469.56C680.23 469.56 669.13 465.21 660.53 457.25L601.83 457.25C590.78 457.25 581.79 448.25 581.79 437.21L581.79 363.87C581.79 361.84 583.43 360.2 585.46 360.2C587.48 360.2 589.12 361.84 589.12 363.87L589.12 437.23C589.12 444.25 594.82 449.94 601.83 449.94L663.51 449.94L664.59 450.99C671.97 458.25 681.67 462.23 691.91 462.23C702.05 462.23 711.77 458.22 719.25 450.97L720.33 449.94L781.98 449.94C789 449.94 794.69 444.25 794.69 437.23L794.69 411.5C794.69 409.47 796.33 407.83 798.36 407.83C800.38 407.83 802.02 409.47 802.02 411.5L802.02 437.21C802.02 448.25 793.03 457.25 781.98 457.25L723.28 457.25C714.56 465.21 703.49 469.56 691.91 469.56ZM585.48 353.12C583.45 353.12 581.82 351.48 581.82 349.45L581.82 315.58C581.82 313.55 583.45 311.92 585.48 311.92C587.51 311.92 589.15 313.55 589.15 315.58L589.15 349.45C589.15 351.46 587.48 353.12 585.48 353.12Z" fill="#000000" fill-opacity="1.000000" fill-rule="nonzero"/>
			<path id="path" d="M600.68 361.87C598.65 361.87 597.02 360.23 597.02 358.2L597.02 325.87C597.02 323.84 598.65 322.2 600.68 322.2C602.71 322.2 604.35 323.84 604.35 325.87L604.35 358.23C604.35 360.23 602.71 361.87 600.68 361.87ZM600.68 314.48C598.65 314.48 597.02 312.84 597.02 310.82L597.02 295.79C597.02 293.76 598.65 292.12 600.68 292.12C602.71 292.12 604.35 293.76 604.35 295.79L604.35 310.82C604.35 312.84 602.71 314.48 600.68 314.48Z" fill="#FFFFFF" fill-opacity="1.000000" fill-rule="nonzero"/>
			<path id="path" d="M798.6 308.59C796.57 308.59 794.94 306.96 794.94 304.93L794.94 285.72C794.94 278.71 789.24 273.01 782.23 273.01L724.9 273.01C713.09 273.01 702.22 278.44 695.08 287.92L692.15 291.8L689.22 287.92C682.08 278.44 671.21 273.01 659.4 273.01L601.83 273.01C594.82 273.01 589.12 278.71 589.12 285.72L589.12 300.89C589.12 302.92 587.48 304.56 585.46 304.56C583.43 304.56 581.79 302.92 581.79 300.89L581.79 285.72C581.79 274.67 590.78 265.68 601.83 265.68L659.43 265.68C672.04 265.68 683.72 270.84 692.18 280C700.61 270.86 712.31 265.68 724.9 265.68L782.25 265.68C793.3 265.68 802.29 274.67 802.29 285.72L802.29 304.93C802.27 306.96 800.63 308.59 798.6 308.59Z" fill="#000000" fill-opacity="1.000000" fill-rule="nonzero"/>
			<path id="path" d="M751.95 415.48L751.34 399.48L768.32 412.53L751.95 415.48Z" fill="#B28114" fill-opacity="1.000000" fill-rule="nonzero"/>
			<path id="path" d="M755.62 393.71L790.54 347.14L807.67 359.98L772.75 406.56L755.62 393.71Z" fill="#FFF35C" fill-opacity="1.000000" fill-rule="nonzero"/>
			<path id="path" d="M816.44 348.91L812.14 354.58L795.03 341.66L799.33 335.99C800.56 334.25 804 334.52 805.86 335.62L806.1 335.86L814.71 342.39C816.42 343.61 818.03 346.81 816.81 348.55L816.44 348.91Z" fill="#FF9D00" fill-opacity="1.000000" fill-rule="nonzero"/>
			<path id="path" d="M732.4 398.45L719.84 398.45C718.13 398.45 716.76 399.79 716.76 401.53L716.76 405.59C716.76 407.3 718.1 408.66 719.84 408.66L732.4 408.66C734.13 408.66 735.48 407.32 735.48 405.59L735.48 401.53C735.48 399.82 734.01 398.45 732.4 398.45Z" fill="#000000" fill-opacity="1.000000" fill-rule="nonzero"/>
			<path id="path" d="M812.63 342.46L808.33 348.13L791.22 335.2L795.52 329.54C796.74 327.8 800.19 328.07 802.05 329.17L802.29 329.41L810.89 335.94C812.6 337.16 814.22 340.36 813 342.1L812.63 342.46Z" fill="#000000" fill-opacity="1.000000" fill-rule="nonzero"/>
			<path id="path" d="M752.07 387.51L786.99 340.94L804.12 353.78L769.2 400.36L752.07 387.51Z" fill="#000000" fill-opacity="1.000000" fill-rule="nonzero"/>
			<path id="path" d="M748.41 409.3L747.8 393.29L764.78 406.34L748.41 409.3Z" fill="#000000" fill-opacity="1.000000" fill-rule="nonzero"/>
			<path id="path" d="M688.51 285.74L695.84 285.74L695.84 463.65L688.51 463.65L688.51 285.74Z" fill="#000000" fill-opacity="1.000000" fill-rule="nonzero"/>
		</g>
		<g filter="url(#filter_42_8_dd)">
			<path id="Writer-suite" d="M538.34 532.71L519.15 532.71L519.15 551.93L538.34 551.93L538.34 532.71ZM921.38 532.71L902.19 532.71L902.19 551.93L921.38 551.93L921.38 532.71ZM410.09 570.65L410.55 570.65L419.93 625L444.04 625L464.43 541L443.81 541L431.8 604.34L431.33 604.34L419.31 541L401.21 541L389.2 604.34L388.73 604.34L376.72 541L356.06 541L376.48 625L400.59 625L410.09 570.65ZM556.96 541.7L556.96 560.19L547.59 560.19L547.59 574.84L556.96 574.84L556.96 606.63Q556.96 614.3 559.04 618.46Q560.32 620.96 562.31 622.57Q563.61 623.62 565.22 624.29Q569.32 625.96 577.59 625.96Q581.92 625.96 586.96 625.35L586.96 610.58Q585.99 610.84 584.73 610.96Q583.47 611.08 581.69 611.08Q578.9 611.08 577.47 610.43Q577.1 610.26 576.8 610.02Q575.89 609.31 575.48 607.97Q574.95 606.16 574.95 602.67L574.95 574.84L587.43 574.84L587.43 560.19L574.95 560.19L574.95 541.7L556.96 541.7ZM940 541.7L940 560.19L930.63 560.19L930.63 574.84L940 574.84L940 606.63Q940 614.3 942.08 618.46Q943.36 620.96 945.35 622.57Q946.65 623.62 948.26 624.29Q952.36 625.96 960.63 625.96Q964.96 625.96 970 625.35L970 610.58Q969.03 610.84 967.77 610.96Q966.51 611.08 964.73 611.08Q961.94 611.08 960.51 610.43Q960.14 610.26 959.84 610.02Q958.93 609.31 958.52 607.97Q957.99 606.16 957.99 602.67L957.99 574.84L970.47 574.84L970.47 560.19L957.99 560.19L957.99 541.7L940 541.7ZM644.12 625.58Q650.19 624.26 654.76 621.51L654.76 605.54Q649.78 609.21 644.19 611.04Q638.61 612.87 632.43 612.87Q622.38 612.87 617.2 607.84Q613.29 604.05 612.16 597.4L658.83 597.4Q659.06 594.03 659.06 592.24Q659.06 577.3 651.67 568.75Q650.99 567.96 650.25 567.22Q648.7 565.7 646.97 564.45Q638.78 558.52 626.31 558.52Q613.57 558.52 605.32 564.61Q603.7 565.8 602.26 567.22Q601.51 567.96 600.83 568.75Q593.44 577.3 593.44 592.24Q593.44 605.27 599.66 613.71Q601.29 615.92 603.34 617.82Q613.24 626.93 632.43 626.93Q638.09 626.93 644.12 625.58ZM1027.17 625.58Q1033.23 624.26 1037.8 621.51L1037.8 605.54Q1032.81 609.21 1027.24 611.04Q1021.66 612.87 1015.48 612.87Q1005.43 612.87 1000.25 607.84Q996.33 604.05 995.2 597.4L1041.87 597.4Q1042.11 594.03 1042.11 592.24Q1042.11 577.3 1034.72 568.75Q1034.04 567.96 1033.29 567.22Q1031.75 565.7 1030.02 564.45Q1021.83 558.52 1009.35 558.52Q996.61 558.52 988.36 564.61Q986.74 565.8 985.3 567.22Q984.55 567.96 983.87 568.75Q976.48 577.3 976.48 592.24Q976.48 605.27 982.7 613.71Q984.33 615.92 986.38 617.82Q996.28 626.93 1015.48 626.93Q1021.13 626.93 1027.17 625.58ZM781.66 625.29Q789.16 626.78 796.49 626.43Q805.05 626.03 810.95 621.86Q811.91 621.18 812.8 620.4Q815.54 617.98 817.1 614.96Q819.16 610.97 819.16 605.92Q819.16 599.92 816.53 596.08Q816.41 595.92 816.3 595.76Q813.69 592.14 809.26 589.84Q804.63 587.44 797.42 585.15Q792.38 583.6 789.69 581.69Q787.71 580.27 787.37 578.53Q787.25 577.91 787.35 577.24Q787.48 576.46 787.86 575.81Q789.56 572.9 796.22 572.9Q800.09 572.9 805.3 574.43Q810.52 575.92 814.36 577.83L814.36 562.36Q810.64 560.69 805.1 559.66Q799.59 558.64 794.2 558.64Q787.31 558.64 781.3 560.94Q781.02 561.05 780.75 561.16Q774.51 563.68 771.61 568.07Q770.63 569.56 769.99 571.18Q768.74 574.31 768.74 577.94Q768.74 583.25 770.97 586.68Q773.2 590.07 777.5 592.77Q781.84 595.46 789.16 597.52Q795.75 599.3 798.16 601.24Q798.9 601.83 799.35 602.6Q800.37 604.32 799.94 606.89Q799.71 608.33 798.04 609.7Q796.37 611.08 792.65 611.31Q787.35 611.67 780.43 609.35Q773.55 607.01 768.63 603.4L768.63 620.69Q774.16 623.79 781.66 625.29ZM487.83 567.16L487.83 560.19L468.64 560.19L468.64 625L487.83 625L487.83 581.08Q489.02 579.67 490.46 578.6Q492.34 577.18 494.66 576.33Q495.18 576.14 495.7 575.98Q499.34 574.84 503.33 574.84Q506.32 574.84 509.69 575.69L509.69 560.92Q507.05 560.07 504.03 560.07Q499.73 560.07 495.33 561.95Q492.42 563.18 490.05 565.09Q488.87 566.04 487.83 567.16ZM687.87 567.16L687.87 560.19L668.68 560.19L668.68 625L687.87 625L687.87 581.08Q689.06 579.67 690.5 578.6Q692.38 577.18 694.7 576.33Q695.22 576.14 695.74 575.98Q699.38 574.84 703.37 574.84Q706.36 574.84 709.73 575.69L709.73 560.92Q707.09 560.07 704.07 560.07Q699.77 560.07 695.37 561.95Q692.46 563.18 690.09 565.09Q688.91 566.04 687.87 567.16ZM538.34 625L538.34 560.19L519.15 560.19L519.15 625L538.34 625ZM871.49 621.37Q872.07 623.3 873.04 625.11L891.03 625.11Q889.59 622.01 889.09 619.31Q888.62 616.59 888.62 612.63L888.62 560.19L869.44 560.19L869.44 606.16Q866.56 608.33 862.29 610.14Q858.04 611.93 855.52 611.93Q852.46 611.93 850.35 610.51Q849.81 610.15 849.34 609.7Q848.45 608.86 847.9 607.83Q846.99 606.15 846.99 603.99L846.99 560.19L827.8 560.19L827.8 607.24Q827.8 613.01 830.3 617.34Q831.49 619.41 833.25 621.16Q834.29 622.19 835.47 623.02Q840.47 626.55 847.96 626.55Q853.97 626.55 860.15 623.97Q866.33 621.39 870.75 617.44Q870.93 619.46 871.49 621.37ZM921.38 625L921.38 560.19L902.19 560.19L902.19 625L921.38 625ZM635.57 575.07Q639.4 577.94 640.96 583.95L612.75 583.95Q614.18 578.21 617.73 575.22Q618.92 574.21 620.28 573.53Q622.96 572.2 626.31 572.2Q630.63 572.2 633.95 574.03Q634.79 574.49 635.57 575.07ZM1018.61 575.07Q1022.45 577.94 1024 583.95L995.79 583.95Q997.22 578.21 1000.77 575.22Q1001.96 574.21 1003.32 573.53Q1006.01 572.2 1009.35 572.2Q1013.68 572.2 1017 574.03Q1017.84 574.49 1018.61 575.07ZM756.4 595.11L756.4 581.2L719.55 581.2L719.55 595.11L756.4 595.11Z" fill="#FFFFFF" fill-opacity="1.000000" fill-rule="evenodd"/>
		</g>
	</g>
</svg>
