<svg width="1400.000000" height="840.000000" viewBox="0 0 1400 840" fill="none" xmlns="http://www.w3.org/2000/svg" xmlns:xlink="http://www.w3.org/1999/xlink">
	<desc>
			Created with Pixso.
	</desc>
	<defs>
		<clipPath id="clip26_2">
			<rect id="我的" width="260.000000" height="260.000000" transform="translate(570.000000 219.000000)" fill="white" fill-opacity="0"/>
		</clipPath>
		<filter id="filter_18_3247_dd" x="416.756714" y="524.714844" width="565.511780" height="102.218750" filterUnits="userSpaceOnUse" color-interpolation-filters="sRGB">
			<feFlood flood-opacity="0" result="BackgroundImageFix"/>
			<feColorMatrix in="SourceAlpha" type="matrix" values="0 0 0 0 0 0 0 0 0 0 0 0 0 0 0 0 0 0 127 0" result="hardAlpha"/>
			<feOffset dx="0" dy="4"/>
			<feGaussianBlur stdDeviation="1.33333"/>
			<feComposite in2="hardAlpha" operator="out" k2="-1" k3="1"/>
			<feColorMatrix type="matrix" values="0 0 0 0 0 0 0 0 0 0 0 0 0 0 0 0 0 0 0.25 0"/>
			<feBlend mode="normal" in2="BackgroundImageFix" result="effect_dropShadow_1"/>
			<feBlend mode="normal" in="SourceGraphic" in2="effect_dropShadow_1" result="shape"/>
		</filter>
		<clipPath id="clip18_3076">
			<rect id="Aboutme" width="1400.000000" height="840.000000" fill="white" fill-opacity="0"/>
		</clipPath>
		<linearGradient x1="-0.000033" y1="0.000000" x2="1399.786621" y2="14.660156" id="paint_linear_29_2_0" gradientUnits="userSpaceOnUse">
			<stop stop-color="#36D1DB"/>
			<stop offset="1.000000" stop-color="#5C87E6"/>
		</linearGradient>
	</defs>
	<rect id="Aboutme" width="1400.000000" height="840.000000" fill="#FFFFFF" fill-opacity="1.000000"/>
	<g clip-path="url(#clip18_3076)">
		<rect id="矩形 5" width="1400.000000" height="840.000000" fill="url(#paint_linear_29_2_0)" fill-opacity="1.000000"/>
		<g clip-path="url(#clip26_2)">
			<path id="path" d="M703.19 258.76C643.3 258.76 594.73 307.3 594.73 367.23C594.73 427.15 643.27 475.69 703.19 475.69C763.12 475.69 811.66 427.15 811.66 367.23C811.66 307.3 763.09 258.76 703.19 258.76Z" fill="#47E2C4" fill-opacity="1.000000" fill-rule="nonzero"/>
			<path id="path" d="M748.03 437.81C747.17 437.81 746.28 437.46 745.65 436.8C744.38 435.48 744.43 433.37 745.75 432.12C750.78 427.33 755.35 421.99 759.36 416.28C760.83 414.17 762.25 411.99 763.55 409.78C764.49 408.21 766.52 407.7 768.09 408.64C769.67 409.58 770.18 411.61 769.24 413.18C767.84 415.52 766.34 417.85 764.79 420.06C760.55 426.13 755.7 431.77 750.35 436.9C749.68 437.51 748.87 437.81 748.03 437.81ZM773.48 400.64C773.04 400.64 772.64 400.56 772.21 400.39C770.51 399.68 769.69 397.75 770.4 396.07C771.57 393.23 772.64 390.28 773.55 387.31C774.09 385.56 775.94 384.59 777.69 385.13C779.44 385.66 780.41 387.51 779.87 389.27C778.88 392.39 777.77 395.51 776.52 398.56C775.99 399.88 774.77 400.64 773.48 400.64Z" fill="#FFFFFF" fill-opacity="1.000000" fill-rule="nonzero"/>
			<path id="path" d="M750.12 245.81C750.12 246.25 750.13 246.67 750.16 247.08C750.2 247.49 750.24 247.85 750.3 248.16C750.36 248.47 750.43 248.71 750.51 248.88C750.59 249.05 750.67 249.13 750.75 249.13C750.84 249.13 750.92 249.05 750.99 248.88C751.07 248.71 751.14 248.47 751.2 248.16C751.26 247.85 751.31 247.49 751.34 247.08C751.37 246.67 751.39 246.25 751.39 245.81C751.39 245.37 751.37 244.94 751.34 244.54C751.31 244.13 751.26 243.77 751.2 243.46C751.14 243.14 751.07 242.9 750.99 242.74C750.92 242.57 750.84 242.48 750.75 242.48C750.67 242.48 750.59 242.57 750.51 242.74C750.43 242.9 750.36 243.14 750.3 243.46C750.24 243.77 750.2 244.13 750.16 244.54C750.13 244.94 750.12 245.37 750.12 245.81Z" fill="#E61F19" fill-opacity="1.000000" fill-rule="nonzero"/>
			<path id="path" d="M747.3 246.84C747.53 247.23 747.75 247.59 747.98 247.92C748.21 248.26 748.43 248.55 748.64 248.79C748.85 249.03 749.03 249.2 749.18 249.31C749.33 249.42 749.44 249.45 749.52 249.41C749.59 249.36 749.62 249.25 749.6 249.07C749.58 248.88 749.52 248.64 749.42 248.34C749.31 248.04 749.17 247.7 749 247.34C748.82 246.97 748.62 246.59 748.4 246.21C748.18 245.83 747.96 245.47 747.73 245.13C747.49 244.79 747.27 244.51 747.07 244.27C746.86 244.02 746.68 243.85 746.53 243.74C746.38 243.64 746.26 243.6 746.19 243.65C746.12 243.69 746.09 243.8 746.11 243.99C746.12 244.17 746.19 244.41 746.29 244.71C746.39 245.01 746.53 245.35 746.71 245.72C746.89 246.09 747.08 246.46 747.3 246.84Z" fill="#E61F19" fill-opacity="1.000000" fill-rule="nonzero"/>
			<path id="path" d="M745.41 249.15C745.79 249.37 746.17 249.57 746.54 249.74C746.91 249.92 747.24 250.06 747.54 250.16C747.84 250.27 748.08 250.33 748.27 250.34C748.45 250.36 748.57 250.33 748.61 250.26C748.65 250.19 748.62 250.07 748.51 249.92C748.4 249.77 748.23 249.59 747.99 249.38C747.75 249.18 747.46 248.96 747.12 248.73C746.79 248.49 746.43 248.27 746.04 248.05C745.66 247.83 745.29 247.63 744.92 247.45C744.55 247.28 744.21 247.14 743.92 247.03C743.62 246.93 743.37 246.87 743.19 246.85C743 246.83 742.89 246.86 742.85 246.93C742.8 247.01 742.84 247.12 742.94 247.27C743.05 247.42 743.23 247.6 743.47 247.81C743.71 248.02 744 248.24 744.33 248.47C744.67 248.7 745.03 248.93 745.41 249.15Z" fill="#E61F19" fill-opacity="1.000000" fill-rule="nonzero"/>
			<path id="path" d="M741.59 251.47C741.59 251.55 741.67 251.64 741.84 251.71C742.01 251.79 742.25 251.86 742.56 251.92C742.87 251.98 743.23 252.02 743.64 252.06C744.05 252.09 744.47 252.1 744.91 252.1C745.35 252.1 745.78 252.09 746.18 252.06C746.59 252.02 746.95 251.98 747.26 251.92C747.58 251.86 747.82 251.79 747.98 251.71C748.15 251.64 748.24 251.55 748.24 251.47C748.24 251.39 748.15 251.3 747.98 251.23C747.82 251.15 747.58 251.08 747.26 251.02C746.95 250.96 746.59 250.92 746.18 250.88C745.78 250.85 745.35 250.84 744.91 250.84C744.47 250.84 744.05 250.85 743.64 250.88C743.23 250.92 742.87 250.96 742.56 251.02C742.25 251.08 742.01 251.15 741.84 251.23C741.67 251.3 741.59 251.39 741.59 251.47Z" fill="#E61F19" fill-opacity="1.000000" fill-rule="nonzero"/>
			<path id="path" d="M742.74 256.03C742.79 256.1 742.9 256.13 743.08 256.11C743.27 256.09 743.51 256.03 743.81 255.93C744.11 255.82 744.45 255.68 744.81 255.51C745.18 255.33 745.56 255.13 745.94 254.91C746.32 254.69 746.68 254.47 747.02 254.23C747.36 254 747.64 253.78 747.89 253.57C748.13 253.37 748.3 253.19 748.41 253.04C748.51 252.88 748.55 252.77 748.5 252.7C748.46 252.63 748.35 252.6 748.16 252.62C747.98 252.63 747.74 252.69 747.44 252.8C747.14 252.9 746.8 253.04 746.43 253.22C746.06 253.39 745.69 253.59 745.31 253.81C744.92 254.03 744.57 254.26 744.23 254.49C743.89 254.72 743.6 254.94 743.36 255.15C743.12 255.36 742.95 255.54 742.84 255.69C742.73 255.84 742.7 255.95 742.74 256.03Z" fill="#E61F19" fill-opacity="1.000000" fill-rule="nonzero"/>
			<path id="path" d="M746.01 259.4C746.08 259.44 746.2 259.41 746.35 259.3C746.5 259.19 746.68 259.02 746.89 258.78C747.1 258.54 747.32 258.25 747.55 257.91C747.78 257.57 748 257.21 748.23 256.83C748.45 256.45 748.64 256.07 748.82 255.71C749 255.34 749.14 255 749.24 254.7C749.35 254.4 749.41 254.16 749.42 253.97C749.44 253.79 749.41 253.68 749.34 253.63C749.27 253.59 749.15 253.62 749 253.73C748.85 253.84 748.67 254.01 748.46 254.25C748.26 254.49 748.04 254.78 747.8 255.12C747.57 255.46 747.35 255.81 747.13 256.2C746.9 256.58 746.71 256.96 746.53 257.32C746.35 257.69 746.21 258.03 746.11 258.33C746.01 258.63 745.94 258.87 745.93 259.06C745.91 259.24 745.94 259.35 746.01 259.4Z" fill="#E61F19" fill-opacity="1.000000" fill-rule="nonzero"/>
			<path id="path" d="M749.91 257.34C749.91 257.78 749.93 258.2 749.96 258.61C749.99 259.01 750.04 259.38 750.1 259.69C750.16 260 750.23 260.24 750.31 260.41C750.38 260.58 750.46 260.66 750.55 260.66C750.63 260.66 750.71 260.58 750.79 260.41C750.87 260.24 750.94 260 751 259.69C751.06 259.38 751.1 259.01 751.13 258.61C751.17 258.2 751.18 257.78 751.18 257.34C751.18 256.89 751.17 256.47 751.13 256.06C751.1 255.65 751.06 255.3 751 254.98C750.94 254.67 750.87 254.43 750.79 254.26C750.71 254.09 750.63 254.01 750.55 254.01C750.46 254.01 750.38 254.09 750.31 254.26C750.23 254.43 750.16 254.67 750.1 254.98C750.04 255.3 749.99 255.65 749.96 256.06C749.93 256.47 749.91 256.89 749.91 257.34Z" fill="#E61F19" fill-opacity="1.000000" fill-rule="nonzero"/>
			<path id="path" d="M752.89 256.92C753.11 257.31 753.33 257.66 753.57 258C753.8 258.34 754.02 258.63 754.22 258.87C754.43 259.11 754.61 259.28 754.76 259.39C754.92 259.5 755.03 259.53 755.1 259.49C755.17 259.44 755.2 259.33 755.18 259.15C755.17 258.96 755.11 258.72 755 258.42C754.9 258.12 754.76 257.78 754.58 257.41C754.41 257.04 754.21 256.67 753.99 256.29C753.77 255.91 753.54 255.55 753.31 255.21C753.08 254.87 752.86 254.58 752.65 254.34C752.44 254.1 752.26 253.93 752.11 253.82C751.96 253.72 751.85 253.68 751.77 253.73C751.7 253.77 751.67 253.88 751.69 254.07C751.71 254.25 751.77 254.49 751.87 254.79C751.98 255.09 752.12 255.43 752.29 255.8C752.47 256.17 752.67 256.54 752.89 256.92Z" fill="#E61F19" fill-opacity="1.000000" fill-rule="nonzero"/>
			<path id="path" d="M755.27 255.07C755.65 255.29 756.02 255.49 756.39 255.66C756.76 255.84 757.1 255.98 757.4 256.08C757.7 256.19 757.94 256.25 758.12 256.27C758.31 256.28 758.42 256.26 758.46 256.18C758.51 256.11 758.47 256 758.37 255.85C758.26 255.69 758.09 255.51 757.85 255.31C757.6 255.1 757.32 254.88 756.98 254.65C756.64 254.42 756.28 254.19 755.9 253.97C755.52 253.75 755.14 253.55 754.77 253.37C754.41 253.2 754.07 253.06 753.77 252.95C753.47 252.85 753.23 252.79 753.04 252.77C752.86 252.76 752.75 252.78 752.7 252.86C752.66 252.93 752.69 253.04 752.8 253.19C752.91 253.34 753.08 253.52 753.32 253.73C753.56 253.94 753.85 254.16 754.19 254.39C754.53 254.62 754.88 254.85 755.27 255.07Z" fill="#E61F19" fill-opacity="1.000000" fill-rule="nonzero"/>
			<path id="path" d="M753.09 251.67C753.09 251.76 753.17 251.84 753.34 251.92C753.51 251.99 753.75 252.06 754.06 252.12C754.37 252.18 754.73 252.23 755.14 252.26C755.55 252.29 755.97 252.31 756.41 252.31C756.85 252.31 757.28 252.29 757.69 252.26C758.09 252.23 758.45 252.18 758.77 252.12C759.08 252.06 759.32 251.99 759.49 251.92C759.66 251.84 759.74 251.76 759.74 251.67C759.74 251.59 759.66 251.51 759.49 251.43C759.32 251.35 759.08 251.28 758.77 251.22C758.45 251.16 758.09 251.12 757.69 251.09C757.28 251.05 756.85 251.04 756.41 251.04C755.97 251.04 755.55 251.05 755.14 251.09C754.73 251.12 754.37 251.16 754.06 251.22C753.75 251.28 753.51 251.35 753.34 251.43C753.17 251.51 753.09 251.59 753.09 251.67Z" fill="#E61F19" fill-opacity="1.000000" fill-rule="nonzero"/>
			<path id="path" d="M752.82 250.44C752.86 250.51 752.97 250.54 753.16 250.52C753.34 250.5 753.59 250.44 753.89 250.34C754.19 250.23 754.52 250.09 754.89 249.92C755.26 249.74 755.63 249.54 756.02 249.32C756.4 249.1 756.76 248.88 757.09 248.65C757.43 248.41 757.72 248.19 757.96 247.99C758.2 247.78 758.37 247.6 758.48 247.45C758.59 247.3 758.62 247.18 758.58 247.11C758.54 247.04 758.42 247.01 758.24 247.03C758.05 247.04 757.81 247.11 757.51 247.21C757.21 247.31 756.88 247.45 756.51 247.63C756.14 247.81 755.76 248 755.38 248.22C755 248.45 754.64 248.67 754.3 248.9C753.97 249.13 753.68 249.35 753.44 249.56C753.2 249.77 753.02 249.95 752.92 250.1C752.81 250.25 752.78 250.36 752.82 250.44Z" fill="#E61F19" fill-opacity="1.000000" fill-rule="nonzero"/>
			<path id="path" d="M751.97 249.53C752.04 249.57 752.15 249.54 752.31 249.43C752.46 249.33 752.64 249.15 752.84 248.91C753.05 248.67 753.27 248.38 753.5 248.05C753.74 247.71 753.96 247.35 754.18 246.97C754.4 246.58 754.6 246.21 754.78 245.84C754.95 245.47 755.09 245.14 755.2 244.84C755.3 244.54 755.36 244.29 755.38 244.11C755.4 243.92 755.37 243.81 755.3 243.77C755.22 243.73 755.11 243.76 754.96 243.86C754.81 243.97 754.63 244.15 754.42 244.39C754.21 244.63 753.99 244.92 753.76 245.25C753.53 245.59 753.3 245.95 753.08 246.33C752.86 246.71 752.66 247.09 752.49 247.46C752.31 247.83 752.17 248.16 752.07 248.46C751.96 248.76 751.9 249 751.88 249.19C751.87 249.37 751.9 249.49 751.97 249.53Z" fill="#E61F19" fill-opacity="1.000000" fill-rule="nonzero"/>
			<path id="path" d="M767.94 226.16C767.94 226.69 768.04 227.21 768.25 227.7C768.45 228.2 768.74 228.63 769.12 229.01C769.5 229.39 769.94 229.68 770.43 229.89C770.93 230.09 771.44 230.19 771.98 230.19C772.51 230.19 773.03 230.09 773.52 229.89C774.02 229.68 774.45 229.39 774.83 229.01C775.21 228.63 775.5 228.2 775.71 227.7C775.91 227.21 776.02 226.69 776.02 226.16C776.02 225.62 775.91 225.11 775.71 224.61C775.5 224.12 775.21 223.68 774.83 223.3C774.45 222.92 774.02 222.63 773.52 222.43C773.03 222.22 772.51 222.12 771.98 222.12C771.44 222.12 770.93 222.22 770.43 222.43C769.94 222.63 769.5 222.92 769.12 223.3C768.74 223.68 768.45 224.12 768.25 224.61C768.04 225.11 767.94 225.62 767.94 226.16Z" fill="#2C65AF" fill-opacity="1.000000" fill-rule="nonzero"/>
			<path id="path" d="M712.67 242.81C712.03 242.81 711.55 242.3 711.55 241.69L711.55 229.33C711.55 228.69 712.06 228.21 712.67 228.21C713.3 228.21 713.78 228.72 713.78 229.33L713.78 241.72C713.81 242.33 713.3 242.81 712.67 242.81Z" fill="#2C65AF" fill-opacity="1.000000" fill-rule="nonzero"/>
			<path id="path" d="M718.86 236.64L706.47 236.64C705.84 236.64 705.35 236.13 705.35 235.52C705.35 234.89 705.86 234.41 706.47 234.41L718.86 234.41C719.5 234.41 719.98 234.92 719.98 235.52C719.98 236.13 719.5 236.64 718.86 236.64Z" fill="#2C65AF" fill-opacity="1.000000" fill-rule="nonzero"/>
			<path id="path" d="M809.3 279.91C807.75 279.25 806.1 279.63 805.6 280.75L796.05 302.91C795.57 304.05 796.43 305.5 797.98 306.19C799.53 306.85 801.18 306.47 801.68 305.35L811.23 283.18C811.71 282.04 810.85 280.59 809.3 279.91Z" fill="#DAB647" fill-opacity="1.000000" fill-rule="nonzero"/>
			<path id="path" d="M790.49 287.37C789.83 288.92 790.21 290.57 791.33 291.08L813.49 300.63C814.63 301.11 816.08 300.25 816.77 298.7C817.43 297.15 817.05 295.5 815.93 294.99L793.76 285.44C792.62 284.96 791.15 285.82 790.49 287.37Z" fill="#DAB647" fill-opacity="1.000000" fill-rule="nonzero"/>
			<path id="path" d="M793.36 263.05C787.69 263.05 783.07 258.48 783.07 252.89C783.07 247.31 787.69 242.74 793.36 242.74C799.02 242.74 803.64 247.31 803.64 252.89C803.64 258.48 799.02 263.05 793.36 263.05ZM793.36 245.38C789.19 245.38 785.79 248.73 785.79 252.84C785.79 256.95 789.19 260.31 793.36 260.31C797.52 260.31 800.92 256.95 800.92 252.84C800.92 248.73 797.52 245.38 793.36 245.38Z" fill="#E62A52" fill-opacity="1.000000" fill-rule="nonzero"/>
			<path id="path" d="M688.9 479C673.82 479 659.17 476.05 645.38 470.21C632.08 464.57 620.12 456.52 609.86 446.27C599.6 436.01 591.55 424.05 585.92 410.75C580.08 396.93 577.1 382.31 577.1 367.2C577.1 352.09 580.05 337.47 585.89 323.71C591.53 310.38 599.58 298.44 609.83 288.18C620.09 277.93 632.05 269.88 645.35 264.24C659.14 258.4 673.77 255.46 688.87 255.46C703.98 255.46 718.61 258.4 732.39 264.24C745.7 269.88 757.66 277.93 767.92 288.18C778.17 298.44 786.22 310.4 791.86 323.71C797.7 337.49 800.64 352.12 800.64 367.23C800.64 382.33 797.7 396.96 791.86 410.75C786.22 424.05 778.17 436.01 767.92 446.27C757.66 456.52 745.7 464.57 732.39 470.21C718.63 476.05 703.98 479 688.9 479ZM688.9 262.06C630.91 262.06 583.73 309.23 583.73 367.2C583.73 425.17 630.91 472.34 688.87 472.34C746.84 472.34 794.02 425.17 794.02 367.2C794.04 309.23 746.87 262.06 688.9 262.06Z" fill="#000000" fill-opacity="1.000000" fill-rule="nonzero"/>
			<path id="path" d="M712.67 331.58C712.67 338.15 718 343.49 724.57 343.49C731.15 343.49 736.48 338.15 736.48 331.58C736.48 325 731.15 319.67 724.57 319.67C718 319.67 712.67 325 712.67 331.58Z" fill="#000000" fill-opacity="1.000000" fill-rule="nonzero"/>
			<path id="path" d="M724.6 346.81C716.19 346.81 709.36 339.98 709.36 331.58C709.36 323.17 716.19 316.34 724.6 316.34C733 316.34 739.83 323.17 739.83 331.58C739.81 339.98 732.98 346.81 724.6 346.81ZM724.6 323C719.85 323 715.99 326.85 715.99 331.6C715.99 336.35 719.85 340.21 724.6 340.21C729.35 340.21 733.21 336.35 733.21 331.6C733.18 326.83 729.32 323 724.6 323Z" fill="#000000" fill-opacity="1.000000" fill-rule="nonzero"/>
			<path id="path" d="M641.29 331.58C641.29 338.15 646.62 343.49 653.2 343.49C659.78 343.49 665.11 338.15 665.11 331.58C665.11 325 659.78 319.67 653.2 319.67C646.62 319.67 641.29 325 641.29 331.58Z" fill="#000000" fill-opacity="1.000000" fill-rule="nonzero"/>
			<path id="path" d="M653.2 346.81C644.8 346.81 637.97 339.98 637.97 331.58C637.97 323.17 644.8 316.34 653.2 316.34C661.6 316.34 668.43 323.17 668.43 331.58C668.43 339.98 661.58 346.81 653.2 346.81ZM653.2 323C648.45 323 644.59 326.85 644.59 331.6C644.59 336.35 648.45 340.21 653.2 340.21C657.95 340.21 661.81 336.35 661.81 331.6C661.81 326.83 657.95 323 653.2 323Z" fill="#000000" fill-opacity="1.000000" fill-rule="nonzero"/>
			<path id="path" d="M688.9 414.76C711.88 414.76 731.05 398.43 735.47 376.77C736.48 371.85 732.7 367.23 727.67 367.23L650.13 367.23C645.1 367.23 641.32 371.85 642.33 376.77C646.73 398.46 665.92 414.76 688.9 414.76Z" fill="#FCE438" fill-opacity="1.000000" fill-rule="nonzero"/>
			<path id="path" d="M688.9 418.08C682.88 418.08 676.99 417.04 671.41 414.99C666 413.01 661 410.14 656.53 406.45C647.56 399.07 641.37 388.76 639.08 377.43C638.4 374.11 639.26 370.68 641.39 368.06C643.55 365.42 646.73 363.93 650.13 363.93L727.67 363.93C731.07 363.93 734.25 365.45 736.41 368.06C738.56 370.68 739.4 374.11 738.72 377.43C736.41 388.76 730.21 399.04 721.25 406.45C716.8 410.14 711.78 413.01 706.37 414.99C700.78 417.04 694.89 418.08 688.9 418.08ZM650.13 370.55C648.73 370.55 647.41 371.19 646.55 372.25C645.66 373.35 645.3 374.74 645.58 376.11C649.75 396.6 667.95 411.46 688.9 411.46C709.82 411.46 728.05 396.6 732.22 376.11C732.5 374.74 732.14 373.35 731.25 372.25C730.36 371.16 729.04 370.55 727.65 370.55L650.13 370.55Z" fill="#000000" fill-opacity="1.000000" fill-rule="nonzero"/>
		</g>
		<g filter="url(#filter_18_3247_dd)">
			<path id="About Me" d="M532.37 615.39Q538.51 618.55 546.28 618.55Q553.79 618.55 559.75 615.51Q560.83 614.95 561.86 614.3Q563.94 612.98 565.72 611.34Q569.71 607.66 572.21 602.35Q575.81 594.67 575.81 584.83Q575.81 574.87 572.15 567.13Q569.43 561.4 565.06 557.55Q563.53 556.21 561.8 555.09Q560.69 554.36 559.51 553.76Q553.66 550.76 546.28 550.76Q542.21 550.76 538.05 552.19Q537.56 552.36 537.09 552.54Q533.49 553.95 530.31 556.41L530.31 524.71L511.12 524.71L511.12 602Q511.12 611.6 508.72 617L526.71 617Q527.56 615.33 528.14 612.69Q530.15 614.24 532.37 615.39ZM448.12 593.24L475.01 593.24L481.37 617L502.46 617L478.12 533L445.13 533L420.75 617L441.76 617L448.12 593.24ZM828.75 547.88L829.84 547.88L844.11 617L867.4 617L881.78 547.88L882.75 547.88L882.75 617L901.82 617L901.82 533L867.4 533L856 593.12L855.77 594.32L855.5 593.12L844.11 533L809.68 533L809.68 617L828.75 617L828.75 547.88ZM738.4 533.7L738.4 552.19L729.03 552.19L729.03 566.84L738.4 566.84L738.4 598.63Q738.4 606.3 740.48 610.46Q741.76 612.96 743.75 614.57Q745.05 615.62 746.66 616.29Q750.76 617.96 759.03 617.96Q763.36 617.96 768.4 617.35L768.4 602.58Q767.43 602.84 766.17 602.96Q764.91 603.08 763.13 603.08Q760.34 603.08 758.91 602.43Q758.54 602.26 758.24 602.02Q757.33 601.31 756.92 599.97Q756.39 598.16 756.39 594.67L756.39 566.84L768.87 566.84L768.87 552.19L756.39 552.19L756.39 533.7L738.4 533.7ZM461.68 543.67L471.14 578.82L451.95 578.82L461.45 543.67L461.68 543.67ZM963.32 617.58Q969.39 616.26 973.96 613.51L973.96 597.54Q968.98 601.21 963.39 603.04Q957.81 604.87 951.63 604.87Q941.58 604.87 936.4 599.84Q932.49 596.05 931.36 589.4L978.03 589.4Q978.26 586.03 978.26 584.24Q978.26 569.3 970.87 560.75Q970.19 559.96 969.45 559.22Q967.9 557.7 966.17 556.45Q957.99 550.52 945.51 550.52Q932.77 550.52 924.52 556.61Q922.9 557.8 921.46 559.22Q920.71 559.96 920.03 560.75Q912.64 569.3 912.64 584.24Q912.64 597.27 918.86 605.71Q920.49 607.92 922.54 609.82Q932.44 618.93 951.63 618.93Q957.29 618.93 963.32 617.58ZM599.14 614.36Q606.88 618.55 617.07 618.55Q627.27 618.55 634.94 614.36Q638.73 612.3 641.66 609.39Q644.7 606.37 646.84 602.43Q651.03 594.67 651.03 584.12Q651.03 569.97 644.07 561.58Q643.07 560.37 641.92 559.28Q640.81 558.23 639.61 557.31Q630.9 550.64 617.07 550.64Q602.98 550.64 594.21 557.47Q593.12 558.32 592.11 559.28Q590.96 560.37 589.96 561.58Q583 569.97 583 584.12Q583 594.67 587.19 602.43Q589.32 606.34 592.34 609.34Q595.31 612.28 599.14 614.36ZM704.21 613.37Q704.79 615.3 705.76 617.11L723.75 617.11Q722.31 614.01 721.81 611.31Q721.34 608.59 721.34 604.63L721.34 552.19L702.16 552.19L702.16 598.16Q699.28 600.33 695.01 602.14Q690.76 603.93 688.24 603.93Q685.18 603.93 683.07 602.51Q682.53 602.15 682.06 601.7Q681.17 600.86 680.62 599.83Q679.71 598.15 679.71 595.99L679.71 552.19L660.52 552.19L660.52 599.24Q660.52 605.01 663.02 609.34Q664.21 611.41 665.97 613.16Q667.01 614.19 668.19 615.02Q673.19 618.55 680.68 618.55Q686.69 618.55 692.87 615.97Q699.05 613.39 703.47 609.44Q703.65 611.46 704.21 613.37ZM954.77 567.07Q958.61 569.94 960.16 575.95L931.95 575.95Q933.38 570.21 936.93 567.22Q938.12 566.21 939.48 565.53Q942.16 564.2 945.51 564.2Q949.83 564.2 953.15 566.03Q953.99 566.49 954.77 567.07ZM534.52 603.38Q530.77 601.91 528.29 597.19L528.29 572.23Q530.75 567.65 534.46 566.12Q534.55 566.08 534.65 566.05Q538.48 564.55 541.59 564.55Q542.55 564.55 543.48 564.7Q546.52 565.17 549.32 567.19Q552.99 569.83 555.21 574.52Q555.43 574.97 555.62 575.43Q557.44 579.75 557.44 584.83Q557.44 589.86 555.6 594.09Q555.42 594.52 555.21 594.93Q553.1 599.24 549.7 601.89Q549.51 602.03 549.32 602.17Q546.49 604.26 543.4 604.73Q542.51 604.87 541.59 604.87Q538.48 604.87 534.65 603.43Q534.58 603.41 534.52 603.38ZM606.14 599.01Q601.95 593.35 601.95 584.12Q601.95 574.52 606.03 569.53Q607.67 567.54 609.76 566.35Q612.9 564.55 617.07 564.55Q621.36 564.55 624.53 566.44Q626.51 567.62 628.06 569.53Q632.07 574.52 632.07 584.12Q632.07 593.35 627.94 599.01Q625.7 602.06 622.69 603.46Q620.15 604.63 617.07 604.63Q614.11 604.63 611.63 603.53Q608.5 602.15 606.14 599.01Z" fill="#FFFFFF" fill-opacity="1.000000" fill-rule="evenodd"/>
		</g>
	</g>
</svg>
