<svg width="1400.000000" height="840.000000" viewBox="0 0 1400 840" fill="none" xmlns="http://www.w3.org/2000/svg" xmlns:xlink="http://www.w3.org/1999/xlink">
	<desc>
			Created with Pixso.
	</desc>
	<defs>
		<filter id="filter_48_3_dd" x="459.804688" y="541.910156" width="479.189453" height="125.302734" filterUnits="userSpaceOnUse" color-interpolation-filters="sRGB">
			<feFlood flood-opacity="0" result="BackgroundImageFix"/>
			<feColorMatrix in="SourceAlpha" type="matrix" values="0 0 0 0 0 0 0 0 0 0 0 0 0 0 0 0 0 0 127 0" result="hardAlpha"/>
			<feOffset dx="0" dy="10"/>
			<feGaussianBlur stdDeviation="1.66667"/>
			<feComposite in2="hardAlpha" operator="out" k2="-1" k3="1"/>
			<feColorMatrix type="matrix" values="0 0 0 0 0 0 0 0 0 0 0 0 0 0 0 0 0 0 0.25 0"/>
			<feBlend mode="normal" in2="BackgroundImageFix" result="effect_dropShadow_1"/>
			<feBlend mode="normal" in="SourceGraphic" in2="effect_dropShadow_1" result="shape"/>
		</filter>
		<clipPath id="clip48_5">
			<rect id="ufo外星人" width="259.999969" height="260.000000" transform="translate(570.000000 217.000000)" fill="white" fill-opacity="0"/>
		</clipPath>
		<clipPath id="clip48_1">
			<rect id="if" width="1400.000000" height="840.000000" fill="white" fill-opacity="0"/>
		</clipPath>
		<linearGradient x1="-0.000033" y1="0.000000" x2="1399.786621" y2="14.660156" id="paint_linear_48_2_0" gradientUnits="userSpaceOnUse">
			<stop stop-color="#F0F0FF"/>
			<stop offset="1.000000" stop-color="#9FDEFF"/>
		</linearGradient>
	</defs>
	<rect id="if" width="1400.000000" height="840.000000" fill="#FFFFFF" fill-opacity="1.000000"/>
	<g clip-path="url(#clip48_1)">
		<rect id="矩形 5" width="1400.000000" height="840.000000" fill="url(#paint_linear_48_2_0)" fill-opacity="1.000000"/>
		<g filter="url(#filter_48_3_dd)">
			<path id="假如我是" d="M776.67 621.12Q767.32 628.45 753.99 632.76L753.99 649.31Q772.36 643.8 785.31 634.19Q786.8 635.87 788.41 637.43Q798.74 647.42 814.11 652.21L814.11 635.74Q803.56 631.44 796.82 624.58Q807.52 610.78 812.32 591.94L797.67 591.94Q796.46 596.59 794.55 600.94Q792.12 606.47 788.56 611.52Q785.07 602.29 784.72 588.22L813.99 588.22L813.99 573.22L784.72 573.22L784.72 542.99L769.34 542.99L769.34 573.22L744.76 573.22L744.76 559.69Q751.97 558.72 761.55 556.9L761.55 541.9Q734.92 546.71 709.96 546.71L709.96 561.71Q721.47 561.71 729.53 561.12L729.53 573.22L706 573.22L706 588.22L729.53 588.22L729.53 603.6L706 608.41L706 623.88L729.53 619.07L729.53 636.36L713.56 636.36L713.56 651.01L744.76 651.01L744.76 617.4L763.6 613.57L763.6 598.07L744.76 601.9L744.76 588.22L769.34 588.22Q769.72 607.06 776.67 621.12ZM481.24 542.99Q476.31 566.75 464.8 582.1L464.8 607.44Q466.61 605.77 468.31 603.99Q471.14 601.05 473.68 597.83L473.68 651.01L488.79 651.01L488.79 571.44Q493.95 558.22 496.24 542.99L481.24 542.99ZM534.64 542.99L498.17 542.99L498.17 651.01L513.29 651.01L513.29 634.69L533.33 634.69L533.33 619.92L513.29 619.92L513.29 611.16L533.33 611.16L533.33 596.4L513.29 596.4L513.29 587.17L534.64 587.17L534.64 542.99ZM612.75 556.55L615.5 542.99L600.27 542.99L597.52 556.55L586 556.55L586 572.17L594.26 572.17L586.35 610.67L604.84 623.53Q597.98 635.89 586.12 651.01L607.12 651.01Q614.07 640.55 618.17 632.87L636.39 645.47L636.39 626.05L625.11 618.34Q628.78 609.29 631.04 599.9Q632.1 595.49 632.85 591.01Q635.19 576.94 635.92 556.55L612.75 556.55ZM923.33 589.92L923.33 543.96L836.67 543.96L836.67 589.92L923.33 589.92ZM556.59 569.03L538.25 569.03L538.25 583.8L572.55 583.8L572.55 544.19L538.25 544.19L538.25 558.96L556.59 558.96L556.59 569.03ZM812.09 566.4L805.58 545.39L790.85 545.39L797.32 566.4L812.09 566.4ZM690.39 549.23L644.68 549.23L644.68 644.27L690.39 644.27L690.39 549.23ZM907.83 556.44L907.83 561.71L852.16 561.71L852.16 556.44L907.83 556.44ZM520.35 557.17L520.35 572.99L512.9 572.99L512.9 557.17L520.35 557.17ZM675.15 564.73L675.15 628.8L659.92 628.8L659.92 564.73L675.15 564.73ZM619.6 572.17Q617.79 592.79 611.67 609L603.4 603.49L609.64 572.17L619.6 572.17ZM907.83 572.29L907.83 577.44L852.16 577.44L852.16 572.29L907.83 572.29ZM554.68 639.46Q562.83 647.29 575.19 652.21L575.19 637.06Q569.07 633.96 563.44 628.68Q573.17 613.3 573.87 589.69L535.35 589.69Q536.08 613.3 545.81 628.68Q540.15 633.96 534.03 637.06L534.03 652.21Q546.27 647.29 554.68 639.46ZM835.76 631.99Q832.59 641.75 825.15 651.01L843.76 651.01Q846.89 645.97 848.68 641.52Q852.07 644.48 855.99 646.33Q858.43 647.49 861.07 648.22Q867.98 650.16 879.15 650.16L933.99 650.16L933.99 636.01L888.17 636.01L888.17 627.72L924.15 627.72L924.15 614.27L888.17 614.27L888.17 607.68L932.55 607.68L932.55 594.35L828.64 594.35L828.64 607.68L872.55 607.68L872.55 635.74Q866.31 635.16 861.57 633.31Q856.82 631.44 852.75 627.83Q854.18 621.01 854.57 610.67L839.3 610.67Q838.95 622.21 835.76 631.99ZM554.57 617.02Q551.31 611.05 549.26 603.6L559.96 603.6Q557.9 611.16 554.57 617.02Z" fill="#FFFFFF" fill-opacity="1.000000" fill-rule="evenodd"/>
		</g>
		<g clip-path="url(#clip48_5)">
			<path id="path" d="M737.95 440.58L660.22 440.58L651.09 415.32L749.36 414.92L737.95 440.58Z" fill="#F2B1B1" fill-opacity="1.000000" fill-rule="nonzero"/>
			<path id="path" d="M737.95 435.12L660.22 435.12C660.75 435.12 661.28 435.2 661.79 435.37C662.3 435.53 662.77 435.77 663.22 436.09C663.66 436.41 664.04 436.79 664.37 437.22C664.7 437.66 664.96 438.14 665.15 438.66L656.02 413.41C656.17 413.82 656.27 414.24 656.32 414.68C656.37 415.12 656.37 415.55 656.32 415.99C656.26 416.43 656.16 416.85 656.01 417.26C655.86 417.67 655.67 418.06 655.42 418.42C655.18 418.79 654.9 419.11 654.59 419.41C654.27 419.7 653.92 419.95 653.55 420.15C653.17 420.36 652.78 420.51 652.37 420.62C651.95 420.73 651.54 420.78 651.11 420.78L749.38 420.38C749.16 420.38 748.94 420.36 748.72 420.34C748.5 420.31 748.29 420.27 748.07 420.21C747.86 420.16 747.65 420.09 747.45 420C747.24 419.92 747.04 419.82 746.85 419.71C746.65 419.61 746.47 419.48 746.29 419.35C746.11 419.22 745.94 419.07 745.78 418.92C745.62 418.76 745.46 418.6 745.32 418.42C745.18 418.25 745.05 418.06 744.93 417.87C744.81 417.68 744.71 417.48 744.61 417.27C744.52 417.07 744.43 416.85 744.36 416.64C744.29 416.42 744.24 416.2 744.2 415.98C744.15 415.75 744.12 415.53 744.11 415.3C744.09 415.07 744.09 414.84 744.1 414.61C744.12 414.38 744.14 414.16 744.18 413.93C744.22 413.71 744.27 413.49 744.34 413.27C744.41 413.05 744.49 412.84 744.58 412.63L733.17 438.29C733.38 437.82 733.65 437.38 733.98 436.99C734.31 436.6 734.69 436.26 735.11 435.98C735.54 435.7 735.99 435.48 736.47 435.34C736.96 435.19 737.45 435.12 737.95 435.12ZM749.34 409.46L651.07 409.86C650.21 409.87 649.4 410.08 648.63 410.49C647.87 410.91 647.25 411.49 646.76 412.22C646.27 412.96 645.97 413.77 645.87 414.65C645.76 415.54 645.86 416.4 646.16 417.24L655.29 442.49C655.47 443.02 655.73 443.49 656.06 443.93C656.39 444.37 656.78 444.75 657.22 445.07C657.66 445.38 658.13 445.62 658.65 445.79C659.16 445.96 659.68 446.04 660.22 446.04L737.95 446.04C738.46 446.04 738.95 445.97 739.43 445.82C739.91 445.67 740.37 445.46 740.79 445.18C741.21 444.9 741.59 444.56 741.92 444.17C742.25 443.77 742.52 443.34 742.73 442.87L754.14 417.2C754.23 417 754.31 416.78 754.38 416.57C754.45 416.35 754.5 416.13 754.54 415.9C754.58 415.68 754.61 415.45 754.62 415.22C754.63 414.99 754.63 414.77 754.61 414.54C754.6 414.31 754.57 414.08 754.53 413.86C754.48 413.63 754.43 413.41 754.36 413.2C754.29 412.98 754.21 412.77 754.11 412.56C754.02 412.36 753.91 412.16 753.79 411.96C753.67 411.77 753.54 411.59 753.4 411.41C753.26 411.24 753.1 411.07 752.94 410.92C752.78 410.76 752.61 410.62 752.43 410.48C752.25 410.35 752.07 410.23 751.87 410.12C751.68 410.01 751.48 409.91 751.28 409.83C751.07 409.75 750.86 409.68 750.65 409.62C750.43 409.57 750.22 409.53 750 409.5C749.78 409.47 749.56 409.46 749.34 409.46Z" fill="#6E6E96" fill-opacity="1.000000" fill-rule="nonzero"/>
			<path id="path" d="M639.76 275.4C648.01 249.34 671.88 231.19 700.05 231.19C728.22 231.19 752.1 249.34 760.35 275.4L639.76 275.4Z" fill="#9FDEFF" fill-opacity="1.000000" fill-rule="nonzero"/>
			<path id="path" d="M644.76 277.1C652.42 252.91 674.64 236.65 700.05 236.65C725.47 236.65 747.69 252.91 755.35 277.1C755.45 277.44 755.59 277.77 755.76 278.08C755.93 278.4 756.13 278.69 756.36 278.96C756.58 279.23 756.83 279.48 757.1 279.7C757.37 279.92 757.66 280.11 757.97 280.27C758.28 280.44 758.6 280.56 758.94 280.66C759.27 280.76 759.61 280.82 759.95 280.85C760.3 280.87 760.64 280.86 760.98 280.82C761.33 280.78 761.66 280.7 761.99 280.59C762.32 280.48 762.64 280.33 762.94 280.16C763.24 279.98 763.52 279.77 763.78 279.54C764.04 279.31 764.28 279.05 764.49 278.77C764.71 278.48 764.89 278.18 765.05 277.86C765.2 277.54 765.33 277.21 765.42 276.87C765.51 276.52 765.57 276.17 765.6 275.81C765.63 275.45 765.62 275.1 765.58 274.74C765.53 274.39 765.46 274.04 765.35 273.7C756.27 245.01 730.03 225.73 700.05 225.73C670.08 225.73 643.83 245.01 634.75 273.69C634.64 274.04 634.57 274.38 634.52 274.74C634.48 275.1 634.47 275.46 634.49 275.82C634.52 276.17 634.58 276.53 634.67 276.87C634.76 277.22 634.88 277.56 635.04 277.88C635.2 278.2 635.38 278.5 635.59 278.79C635.81 279.07 636.05 279.33 636.31 279.56C636.57 279.8 636.85 280.01 637.15 280.18C637.46 280.36 637.77 280.5 638.1 280.62C638.43 280.73 638.77 280.81 639.11 280.85C639.46 280.89 639.8 280.9 640.15 280.87C640.5 280.84 640.84 280.78 641.17 280.68C641.5 280.59 641.83 280.46 642.14 280.29C642.44 280.13 642.74 279.94 643.01 279.71C643.28 279.49 643.53 279.24 643.75 278.97C643.98 278.69 644.18 278.4 644.34 278.09C644.51 277.77 644.65 277.44 644.76 277.1Z" fill="#6E6E96" fill-opacity="1.000000" fill-rule="nonzero"/>
			<path id="path" d="M655.55 284.13C660.91 258.07 676.42 239.93 694.71 239.93C713 239.93 728.51 258.07 733.87 284.13L655.55 284.13Z" fill="#C4EBFF" fill-opacity="1.000000" fill-rule="nonzero"/>
			<path id="path" d="M625.8 312L625.8 297.25C625.8 289.15 635.27 275.96 646.86 275.96L756.36 275.96C767.94 275.96 777.41 289.15 777.41 297.25L777.41 312L625.8 312Z" fill="#91CAE8" fill-opacity="1.000000" fill-rule="nonzero"/>
			<path id="path" d="M645.8 313.09L645.8 298.35C645.8 290.24 655.28 277.05 666.86 277.05L722.78 277.05C734.36 277.05 743.84 290.24 743.84 298.35L743.84 313.09L645.8 313.09Z" fill="#A0DDFF" fill-opacity="1.000000" fill-rule="nonzero"/>
			<path id="path" d="M631.06 312L631.06 297.25C631.06 292.04 638.37 281.42 646.86 281.42L756.36 281.42C764.84 281.42 772.15 292.04 772.15 297.25L772.15 312C772.15 312.35 772.18 312.71 772.25 313.06C772.32 313.41 772.42 313.75 772.55 314.09C772.68 314.42 772.85 314.73 773.04 315.03C773.23 315.33 773.45 315.6 773.69 315.86C773.94 316.11 774.2 316.34 774.49 316.54C774.78 316.73 775.08 316.9 775.4 317.04C775.72 317.18 776.05 317.28 776.39 317.35C776.73 317.42 777.07 317.46 777.41 317.46C777.76 317.46 778.1 317.42 778.44 317.35C778.78 317.28 779.11 317.18 779.43 317.04C779.75 316.9 780.05 316.73 780.34 316.54C780.63 316.34 780.89 316.11 781.14 315.86C781.38 315.6 781.6 315.33 781.79 315.03C781.98 314.73 782.15 314.42 782.28 314.09C782.41 313.75 782.51 313.41 782.58 313.06C782.65 312.71 782.68 312.35 782.68 312L782.68 297.25C782.68 286.73 771.38 270.5 756.36 270.5L646.86 270.5C631.84 270.5 620.53 286.73 620.53 297.25L620.53 312C620.53 312.35 620.57 312.71 620.64 313.06C620.7 313.41 620.8 313.75 620.93 314.09C621.07 314.42 621.23 314.73 621.42 315.03C621.61 315.33 621.83 315.6 622.08 315.86C622.32 316.11 622.59 316.34 622.87 316.54C623.16 316.73 623.46 316.9 623.78 317.04C624.1 317.18 624.43 317.28 624.77 317.35C625.11 317.42 625.45 317.46 625.8 317.46C626.14 317.46 626.49 317.42 626.83 317.35C627.16 317.28 627.49 317.18 627.81 317.04C628.13 316.9 628.44 316.73 628.72 316.54C629.01 316.34 629.28 316.11 629.52 315.86C629.77 315.6 629.98 315.33 630.18 315.03C630.37 314.73 630.53 314.42 630.66 314.09C630.79 313.75 630.89 313.41 630.96 313.06C631.03 312.71 631.06 312.35 631.06 312Z" fill="#6E6E96" fill-opacity="1.000000" fill-rule="nonzero"/>
			<path id="path" d="M757.48 304.29L641.59 304.29C634.21 304.28 627.11 305.74 620.29 308.67C613.77 311.47 607.98 315.43 602.93 320.54C597.91 325.62 593.96 331.54 591.2 338.12C588.3 345 586.86 352.18 586.87 359.69L586.87 362.07C586.87 369.53 588.32 376.79 591.2 383.63C593.96 390.22 597.91 396.13 602.93 401.21C607.98 406.33 613.77 410.29 620.29 413.08C627.11 416.02 634.21 417.48 641.59 417.47L757.48 417.47C764.86 417.48 771.96 416.02 778.78 413.08C785.3 410.29 791.09 406.33 796.15 401.21C801.17 396.13 805.11 390.22 807.87 383.63C810.77 376.76 812.21 369.57 812.21 362.07L812.21 359.69C812.21 352.18 810.77 345 807.87 338.12C805.11 331.54 801.17 325.63 796.15 320.54C791.12 315.46 785.28 311.47 778.78 308.67C771.96 305.74 764.86 304.27 757.48 304.29Z" fill="#DADAF2" fill-opacity="1.000000" fill-rule="nonzero"/>
			<path id="path" d="M757.48 298.83L641.59 298.83C633.51 298.81 625.74 300.41 618.28 303.63C611.13 306.69 604.78 311.03 599.25 316.64C593.74 322.21 589.41 328.71 586.37 335.94C583.18 343.51 581.59 351.43 581.6 359.68L581.6 362.07C581.59 370.33 583.18 378.24 586.37 385.81C589.41 393.04 593.74 399.54 599.25 405.12C604.78 410.73 611.13 415.06 618.28 418.13C625.74 421.34 633.51 422.94 641.59 422.93L757.48 422.93C765.56 422.94 773.33 421.34 780.8 418.12C787.95 415.06 794.29 410.73 799.82 405.12C805.33 399.54 809.67 393.04 812.7 385.81C815.89 378.24 817.48 370.33 817.47 362.07L817.47 359.68C817.48 351.43 815.89 343.51 812.7 335.94C809.67 328.71 805.33 322.21 799.82 316.64C794.29 311.03 787.94 306.69 780.79 303.63C773.33 300.41 765.56 298.81 757.48 298.83ZM757.48 309.75C764.15 309.75 770.64 311.08 776.76 313.72C782.66 316.24 787.9 319.82 792.47 324.45C797 329.04 800.56 334.37 803.05 340.3C805.65 346.48 806.95 352.94 806.94 359.69L806.94 362.07C806.95 368.81 805.65 375.27 803.05 381.45C800.56 387.39 797 392.72 792.47 397.31C787.9 401.93 782.67 405.51 776.76 408.04C770.59 410.7 764.16 412.02 757.48 412.01L641.59 412.01C634.91 412.02 628.48 410.7 622.31 408.04C616.41 405.51 611.17 401.93 606.6 397.31C602.07 392.72 598.51 387.39 596.03 381.45C593.42 375.28 592.12 368.81 592.13 362.07L592.13 359.69C592.12 352.94 593.42 346.48 596.03 340.3C598.52 334.37 602.08 329.04 606.6 324.45C611.17 319.82 616.41 316.25 622.31 313.72C628.48 311.06 634.91 309.74 641.59 309.75L757.48 309.75Z" fill="#6E6E96" fill-opacity="1.000000" fill-rule="nonzero"/>
			<path id="path" d="M748.85 313.69L649.57 313.69C643.26 313.69 637.12 314.7 631.32 316.69C625.75 318.61 620.74 321.35 616.44 324.83C612.14 328.31 608.76 332.36 606.39 336.87C603.93 341.56 602.68 346.53 602.68 351.64L602.68 353.27C602.68 358.38 603.93 363.35 606.39 368.04C608.76 372.55 612.14 376.6 616.44 380.08C620.74 383.56 625.75 386.3 631.32 388.21C637.12 390.2 643.26 391.22 649.57 391.22L748.85 391.22C755.16 391.22 761.3 390.2 767.09 388.21C772.67 386.3 777.67 383.56 781.97 380.08C786.28 376.6 789.66 372.55 792.02 368.04C794.49 363.35 795.73 358.38 795.73 353.27L795.73 351.64C795.73 346.53 794.48 341.56 792.02 336.87C789.66 332.36 786.28 328.31 781.97 324.83C777.67 321.35 772.67 318.61 767.09 316.69C761.3 314.7 755.16 313.69 748.85 313.69Z" fill="#F0F0FF" fill-opacity="1.000000" fill-rule="nonzero"/>
			<path id="path" d="M650.56 361.93C650.56 371.41 643.15 379.09 634.01 379.09C624.87 379.09 617.46 371.41 617.46 361.93C617.46 352.45 624.87 344.76 634.01 344.76C643.15 344.76 650.56 352.45 650.56 361.93ZM679.84 361.59C679.84 362.27 679.88 362.94 679.94 363.62C680 364.29 680.1 364.96 680.23 365.62C680.35 366.28 680.51 366.94 680.7 367.58C680.89 368.23 681.11 368.87 681.36 369.49C681.61 370.12 681.89 370.73 682.19 371.32C682.5 371.92 682.84 372.5 683.2 373.06C683.56 373.62 683.95 374.16 684.36 374.69C684.77 375.21 685.21 375.71 685.67 376.19C686.13 376.67 686.62 377.12 687.12 377.55C687.62 377.98 688.15 378.38 688.69 378.75C689.23 379.13 689.79 379.48 690.36 379.8C690.94 380.11 691.53 380.4 692.13 380.66C692.73 380.92 693.34 381.15 693.97 381.34C694.59 381.54 695.22 381.7 695.86 381.84C696.5 381.97 697.15 382.07 697.79 382.13C698.44 382.2 699.09 382.23 699.75 382.23C700.4 382.23 701.05 382.2 701.7 382.13C702.34 382.07 702.99 381.97 703.63 381.84C704.27 381.7 704.9 381.54 705.52 381.34C706.15 381.15 706.76 380.92 707.36 380.66C707.96 380.4 708.55 380.11 709.13 379.8C709.7 379.48 710.26 379.13 710.8 378.75C711.34 378.38 711.87 377.98 712.37 377.55C712.87 377.12 713.36 376.67 713.82 376.19C714.28 375.71 714.72 375.21 715.13 374.69C715.54 374.16 715.93 373.62 716.29 373.06C716.65 372.5 716.99 371.92 717.3 371.32C717.6 370.73 717.88 370.12 718.13 369.49C718.38 368.87 718.6 368.23 718.79 367.58C718.98 366.94 719.14 366.28 719.26 365.62C719.39 364.96 719.49 364.29 719.55 363.62C719.61 362.94 719.65 362.27 719.65 361.59C719.65 360.92 719.61 360.24 719.55 359.57C719.49 358.9 719.39 358.23 719.26 357.57C719.14 356.9 718.98 356.25 718.79 355.6C718.6 354.95 718.38 354.32 718.13 353.69C717.88 353.07 717.6 352.46 717.3 351.86C716.99 351.27 716.65 350.69 716.29 350.13C715.93 349.56 715.54 349.02 715.13 348.5C714.72 347.98 714.28 347.48 713.82 347C713.36 346.52 712.87 346.07 712.37 345.64C711.87 345.21 711.34 344.81 710.8 344.43C710.26 344.06 709.7 343.71 709.13 343.39C708.55 343.07 707.96 342.78 707.36 342.52C706.76 342.27 706.15 342.04 705.52 341.84C704.9 341.65 704.27 341.48 703.63 341.35C702.99 341.22 702.34 341.12 701.7 341.05C701.05 340.99 700.4 340.95 699.74 340.95C699.09 340.95 698.44 340.99 697.79 341.05C697.15 341.12 696.5 341.22 695.86 341.35C695.22 341.48 694.59 341.65 693.97 341.84C693.34 342.04 692.73 342.27 692.13 342.52C691.53 342.78 690.94 343.07 690.36 343.39C689.79 343.71 689.23 344.06 688.69 344.43C688.15 344.81 687.62 345.21 687.12 345.64C686.62 346.07 686.13 346.52 685.67 347C685.21 347.48 684.77 347.98 684.36 348.5C683.95 349.02 683.56 349.56 683.2 350.13C682.84 350.69 682.5 351.27 682.19 351.86C681.89 352.46 681.61 353.07 681.36 353.69C681.11 354.32 680.89 354.95 680.7 355.6C680.51 356.25 680.35 356.9 680.23 357.57C680.1 358.23 680 358.9 679.94 359.57C679.88 360.24 679.84 360.92 679.84 361.59ZM748.85 361.97C748.85 362.53 748.87 363.1 748.93 363.66C748.98 364.22 749.06 364.77 749.17 365.33C749.27 365.88 749.4 366.43 749.56 366.97C749.72 367.5 749.9 368.03 750.11 368.56C750.32 369.08 750.55 369.59 750.81 370.08C751.06 370.58 751.34 371.06 751.64 371.53C751.94 372 752.27 372.45 752.61 372.89C752.96 373.32 753.32 373.74 753.71 374.14C754.09 374.54 754.49 374.91 754.91 375.27C755.33 375.63 755.77 375.96 756.22 376.28C756.67 376.59 757.14 376.88 757.62 377.15C758.1 377.41 758.59 377.65 759.09 377.87C759.59 378.08 760.1 378.27 760.62 378.44C761.14 378.6 761.67 378.74 762.2 378.85C762.73 378.96 763.27 379.04 763.81 379.09C764.35 379.15 764.89 379.18 765.44 379.18C765.98 379.18 766.52 379.15 767.06 379.09C767.6 379.04 768.14 378.96 768.67 378.85C769.21 378.74 769.73 378.6 770.25 378.44C770.77 378.27 771.29 378.08 771.79 377.87C772.29 377.65 772.78 377.41 773.26 377.15C773.74 376.88 774.2 376.59 774.66 376.28C775.11 375.96 775.54 375.63 775.96 375.27C776.38 374.91 776.79 374.54 777.17 374.14C777.55 373.74 777.92 373.32 778.26 372.89C778.61 372.45 778.93 372 779.23 371.53C779.54 371.06 779.81 370.58 780.07 370.08C780.33 369.59 780.56 369.08 780.77 368.56C780.97 368.03 781.16 367.5 781.31 366.97C781.47 366.43 781.6 365.88 781.71 365.33C781.82 364.77 781.9 364.22 781.95 363.66C782 363.1 782.03 362.53 782.03 361.97C782.03 361.41 782 360.84 781.95 360.28C781.9 359.72 781.82 359.17 781.71 358.61C781.6 358.06 781.47 357.51 781.31 356.98C781.16 356.44 780.97 355.91 780.77 355.39C780.56 354.87 780.33 354.36 780.07 353.86C779.81 353.36 779.54 352.88 779.23 352.41C778.93 351.94 778.61 351.49 778.26 351.05C777.92 350.62 777.55 350.2 777.17 349.8C776.79 349.4 776.38 349.03 775.96 348.67C775.54 348.31 775.11 347.98 774.66 347.66C774.2 347.35 773.74 347.06 773.26 346.8C772.78 346.53 772.29 346.29 771.79 346.07C771.29 345.86 770.77 345.67 770.25 345.5C769.73 345.34 769.21 345.2 768.67 345.09C768.14 344.98 767.6 344.9 767.06 344.85C766.52 344.79 765.98 344.76 765.44 344.76C764.89 344.76 764.35 344.79 763.81 344.85C763.27 344.9 762.73 344.98 762.2 345.09C761.67 345.2 761.14 345.34 760.62 345.5C760.1 345.67 759.59 345.86 759.09 346.07C758.59 346.29 758.1 346.53 757.62 346.8C757.14 347.06 756.67 347.35 756.22 347.66C755.77 347.98 755.33 348.31 754.91 348.67C754.49 349.03 754.09 349.4 753.71 349.8C753.32 350.2 752.96 350.62 752.61 351.05C752.27 351.49 751.94 351.94 751.64 352.41C751.34 352.88 751.06 353.36 750.81 353.86C750.55 354.36 750.32 354.87 750.11 355.39C749.9 355.91 749.72 356.44 749.56 356.98C749.4 357.51 749.27 358.06 749.17 358.61C749.06 359.17 748.98 359.72 748.93 360.28C748.87 360.84 748.85 361.41 748.85 361.97Z" fill="#9FDEFF" fill-opacity="1.000000" fill-rule="nonzero"/>
			<path id="path" d="M634.01 339.3C621.99 339.3 612.2 349.45 612.2 361.93C612.2 374.4 621.98 384.55 634.01 384.55C646.04 384.55 655.83 374.4 655.83 361.93C655.83 349.45 646.04 339.3 634.01 339.3ZM634.01 373.63C627.79 373.63 622.73 368.38 622.73 361.93C622.73 355.47 627.79 350.22 634.01 350.22C640.24 350.22 645.3 355.47 645.3 361.93C645.3 368.38 640.24 373.63 634.01 373.63ZM699.75 335.49C685.87 335.49 674.58 347.2 674.58 361.59C674.58 375.98 685.87 387.69 699.75 387.69C713.62 387.69 724.91 375.98 724.91 361.59C724.91 347.2 713.62 335.49 699.75 335.49ZM699.75 376.77C691.67 376.77 685.11 369.96 685.11 361.6C685.11 353.22 691.67 346.41 699.75 346.41C707.82 346.41 714.38 353.22 714.38 361.6C714.38 369.96 707.82 376.77 699.75 376.77ZM765.44 339.3C753.39 339.3 743.58 349.47 743.58 361.97C743.58 374.47 753.39 384.64 765.44 384.64C777.49 384.64 787.29 374.47 787.29 361.97C787.29 349.47 777.49 339.3 765.44 339.3ZM765.44 373.72C759.19 373.72 754.11 368.45 754.11 361.97C754.11 355.49 759.19 350.22 765.44 350.22C771.68 350.22 776.76 355.49 776.76 361.97C776.76 368.45 771.68 373.72 765.44 373.72Z" fill="#6E6E96" fill-opacity="1.000000" fill-rule="nonzero"/>
			<path id="path" d="M692.43 248.01C694.36 250.66 690.74 254.96 685.64 258.96C680.53 262.97 675.88 265.16 673.95 262.51C672.02 259.87 674.59 254.47 679.7 250.47C684.8 246.47 690.5 245.36 692.43 248.01Z" fill="#FFFFFF" fill-opacity="1.000000" fill-rule="nonzero"/>
			<g opacity="0.150000">
				<path id="path" d="M765.44 346.37C754.75 346.37 745.84 354.38 743.96 364.91L754.85 364.91C756.46 360.47 760.6 357.29 765.44 357.29C770.28 357.29 774.41 360.47 776.03 364.91L786.92 364.91C785.03 354.38 776.13 346.37 765.44 346.37ZM699.75 342.56C687.1 342.56 676.6 352.29 674.84 364.91L685.58 364.91C687.19 358.35 692.92 353.48 699.75 353.48C706.57 353.48 712.3 358.35 713.91 364.91L724.65 364.91C722.89 352.29 712.39 342.56 699.75 342.56ZM634.01 346.37C623.33 346.37 614.43 354.38 612.57 364.91L623.45 364.91C625.05 360.47 629.18 357.29 634.01 357.29C638.85 357.29 642.97 360.47 644.58 364.91L655.45 364.91C653.59 354.38 644.69 346.37 634.01 346.37Z" fill="#6E6E96" fill-opacity="1.000000" fill-rule="nonzero"/>
			</g>
			<g opacity="0.520000">
				<path id="path" d="M707.25 367.74C707.25 369.85 704.26 371.56 700.58 371.56C696.89 371.56 693.91 369.85 693.91 367.74C693.91 365.63 696.89 365.74 700.58 365.74C704.26 365.74 707.25 365.63 707.25 367.74ZM772.21 365.95C772.21 367.84 769.53 369.38 766.22 369.38C762.92 369.38 760.24 367.84 760.24 365.95C760.24 364.06 762.92 364.15 766.22 364.15C769.53 364.15 772.21 364.06 772.21 365.95ZM640.25 366.25C640.25 368.14 637.57 369.68 634.26 369.68C630.96 369.68 628.28 368.14 628.28 366.25C628.28 364.35 630.96 364.45 634.26 364.45C637.57 364.45 640.25 364.35 640.25 366.25Z" fill="#FFFFFF" fill-opacity="1.000000" fill-rule="nonzero"/>
			</g>
			<path id="path" d="M657.15 470.23L676.63 437.64L685.58 443.39L666.1 475.99L657.15 470.23ZM721.17 437.64L740.65 470.23L731.7 475.99L712.22 443.39L721.17 437.64Z" fill="#6E6E96" fill-opacity="1.000000" fill-rule="nonzero"/>
			<path id="path" d="M718.48 435.12L672.49 435.12L669.33 422.93L721.64 422.93L718.48 435.12Z" fill="#FFC9C9" fill-opacity="1.000000" fill-rule="nonzero"/>
		</g>
	</g>
</svg>
