<svg width="1400.000000" height="840.000000" viewBox="0 0 1400 840" fill="none" xmlns="http://www.w3.org/2000/svg" xmlns:xlink="http://www.w3.org/1999/xlink">
	<desc>
			Created with Pixso.
	</desc>
	<defs>
		<clipPath id="clip32_328">
			<rect id="文章" width="252.000000" height="252.000000" transform="translate(574.000000 227.000000)" fill="white" fill-opacity="0"/>
		</clipPath>
		<filter id="filter_32_326_dd" x="462.792969" y="526.591797" width="476.201172" height="127.675781" filterUnits="userSpaceOnUse" color-interpolation-filters="sRGB">
			<feFlood flood-opacity="0" result="BackgroundImageFix"/>
			<feColorMatrix in="SourceAlpha" type="matrix" values="0 0 0 0 0 0 0 0 0 0 0 0 0 0 0 0 0 0 127 0" result="hardAlpha"/>
			<feOffset dx="0" dy="10"/>
			<feGaussianBlur stdDeviation="1.66667"/>
			<feComposite in2="hardAlpha" operator="out" k2="-1" k3="1"/>
			<feColorMatrix type="matrix" values="0 0 0 0 0 0 0 0 0 0 0 0 0 0 0 0 0 0 0.25 0"/>
			<feBlend mode="normal" in2="BackgroundImageFix" result="effect_dropShadow_1"/>
			<feBlend mode="normal" in="SourceGraphic" in2="effect_dropShadow_1" result="shape"/>
		</filter>
		<clipPath id="clip32_215">
			<rect id="random" width="1400.000000" height="840.000000" fill="white" fill-opacity="0"/>
		</clipPath>
		<linearGradient x1="-0.000033" y1="0.000000" x2="1399.786621" y2="14.660156" id="paint_linear_36_36_0" gradientUnits="userSpaceOnUse">
			<stop stop-color="#FFAA44"/>
			<stop offset="1.000000" stop-color="#11AA66"/>
		</linearGradient>
	</defs>
	<rect id="random" width="1400.000000" height="840.000000" fill="#FFFFFF" fill-opacity="1.000000"/>
	<g clip-path="url(#clip32_215)">
		<rect id="矩形 5" width="1400.000000" height="840.000000" fill="url(#paint_linear_36_36_0)" fill-opacity="1.000000"/>
		<g clip-path="url(#clip32_328)">
			<g opacity="0.010000">
				<path id="path" d="M574 227L826 227L826 479L574 479L574 227Z" fill="#202425" fill-opacity="1.000000" fill-rule="nonzero"/>
			</g>
			<path id="path" d="M742 277.4L800.8 277.4C801.35 277.4 801.89 277.45 802.43 277.56C802.98 277.66 803.5 277.82 804.01 278.03C804.52 278.25 805 278.5 805.46 278.81C805.92 279.12 806.35 279.47 806.74 279.85C807.13 280.25 807.47 280.67 807.78 281.13C808.09 281.59 808.35 282.07 808.56 282.58C808.77 283.09 808.93 283.62 809.03 284.16C809.14 284.7 809.2 285.24 809.2 285.79L809.2 445.4C809.2 445.95 809.17 446.49 809.11 447.04C809.06 447.59 808.98 448.13 808.87 448.67C808.77 449.21 808.63 449.75 808.47 450.27C808.31 450.8 808.13 451.32 807.92 451.82C807.71 452.33 807.47 452.83 807.21 453.31C806.95 453.8 806.67 454.27 806.36 454.73C806.06 455.19 805.73 455.63 805.38 456.05C805.03 456.48 804.66 456.89 804.28 457.27C803.89 457.66 803.48 458.03 803.05 458.38C802.63 458.73 802.19 459.06 801.73 459.36C801.27 459.67 800.8 459.95 800.32 460.21C799.83 460.47 799.33 460.71 798.82 460.92C798.32 461.13 797.8 461.31 797.27 461.47C796.75 461.63 796.21 461.77 795.67 461.87C795.13 461.98 794.59 462.06 794.04 462.11C793.5 462.17 792.95 462.2 792.4 462.2L742 462.2L742 277.4Z" fill="#FFAA44" fill-opacity="1.000000" fill-rule="nonzero"/>
			<path id="path" d="M590.8 453.8C590.8 454.35 590.85 454.89 590.96 455.43C591.06 455.98 591.22 456.5 591.43 457.01C591.65 457.52 591.9 458 592.21 458.46C592.52 458.92 592.87 459.35 593.26 459.74C593.65 460.13 594.07 460.47 594.53 460.78C594.99 461.09 595.47 461.35 595.98 461.56C596.49 461.77 597.02 461.93 597.56 462.03C598.1 462.14 598.64 462.2 599.2 462.2L792.4 462.2C791.85 462.2 791.3 462.17 790.75 462.11C790.2 462.06 789.66 461.98 789.12 461.87C788.58 461.77 788.05 461.63 787.52 461.47C786.99 461.31 786.47 461.13 785.97 460.92C785.46 460.71 784.96 460.47 784.48 460.21C783.99 459.95 783.52 459.67 783.06 459.36C782.6 459.06 782.16 458.73 781.74 458.38C781.31 458.03 780.91 457.66 780.52 457.27C780.13 456.89 779.76 456.48 779.41 456.05C779.06 455.63 778.73 455.19 778.43 454.73C778.12 454.27 777.84 453.8 777.58 453.31C777.32 452.83 777.09 452.33 776.87 451.82C776.66 451.32 776.48 450.8 776.32 450.27C776.16 449.75 776.03 449.21 775.92 448.67C775.81 448.13 775.73 447.59 775.68 447.04C775.62 446.49 775.6 445.95 775.6 445.4L775.6 252.2C775.6 251.64 775.54 251.1 775.43 250.56C775.33 250.02 775.17 249.49 774.96 248.98C774.75 248.47 774.49 247.99 774.18 247.53C773.87 247.07 773.53 246.65 773.14 246.26C772.75 245.87 772.32 245.52 771.86 245.21C771.4 244.9 770.92 244.65 770.41 244.43C769.9 244.22 769.38 244.06 768.83 243.96C768.29 243.85 767.75 243.8 767.2 243.8L599.2 243.8C598.64 243.8 598.1 243.85 597.56 243.96C597.02 244.06 596.49 244.22 595.98 244.43C595.47 244.65 594.99 244.9 594.53 245.21C594.07 245.52 593.65 245.87 593.26 246.26C592.87 246.65 592.52 247.07 592.21 247.53C591.9 247.99 591.65 248.47 591.43 248.98C591.22 249.49 591.06 250.02 590.96 250.56C590.85 251.1 590.8 251.64 590.8 252.2L590.8 453.8Z" fill="#11AA66" fill-opacity="1.000000" fill-rule="nonzero"/>
			<path id="path" d="M632.8 302.6C632.24 302.6 631.7 302.65 631.16 302.76C630.62 302.86 630.09 303.02 629.58 303.23C629.07 303.45 628.59 303.7 628.13 304.01C627.67 304.32 627.25 304.67 626.86 305.06C626.46 305.45 626.12 305.87 625.81 306.33C625.5 306.79 625.25 307.27 625.03 307.78C624.82 308.29 624.66 308.82 624.56 309.36C624.45 309.9 624.4 310.44 624.4 311C624.4 311.55 624.45 312.09 624.56 312.63C624.66 313.18 624.82 313.7 625.03 314.21C625.25 314.72 625.5 315.2 625.81 315.66C626.12 316.12 626.46 316.54 626.86 316.94C627.25 317.32 627.67 317.67 628.13 317.98C628.59 318.29 629.07 318.54 629.58 318.76C630.09 318.97 630.62 319.13 631.16 319.23C631.7 319.34 632.24 319.4 632.8 319.4L666.4 319.4C666.95 319.4 667.49 319.34 668.03 319.23C668.58 319.13 669.1 318.97 669.61 318.76C670.12 318.54 670.6 318.29 671.06 317.98C671.52 317.67 671.95 317.32 672.34 316.94C672.73 316.54 673.07 316.12 673.38 315.66C673.69 315.2 673.95 314.72 674.16 314.21C674.37 313.7 674.53 313.18 674.63 312.63C674.74 312.09 674.8 311.55 674.8 311C674.8 310.44 674.74 309.9 674.63 309.36C674.53 308.82 674.37 308.29 674.16 307.78C673.95 307.27 673.69 306.79 673.38 306.33C673.07 305.87 672.73 305.45 672.34 305.06C671.95 304.67 671.52 304.32 671.06 304.01C670.6 303.7 670.12 303.45 669.61 303.23C669.1 303.02 668.58 302.86 668.03 302.76C667.49 302.65 666.95 302.6 666.4 302.6L632.8 302.6ZM632.8 353C632.24 353 631.7 353.05 631.16 353.16C630.62 353.26 630.09 353.42 629.58 353.63C629.07 353.85 628.59 354.1 628.13 354.41C627.67 354.72 627.25 355.07 626.86 355.46C626.46 355.85 626.12 356.27 625.81 356.73C625.5 357.19 625.25 357.67 625.03 358.18C624.82 358.69 624.66 359.22 624.56 359.76C624.45 360.3 624.4 360.84 624.4 361.4C624.4 361.95 624.45 362.49 624.56 363.03C624.66 363.58 624.82 364.1 625.03 364.61C625.25 365.12 625.5 365.6 625.81 366.06C626.12 366.52 626.46 366.95 626.86 367.34C627.25 367.73 627.67 368.07 628.13 368.38C628.59 368.69 629.07 368.94 629.58 369.16C630.09 369.37 630.62 369.53 631.16 369.63C631.7 369.74 632.24 369.8 632.8 369.8L733.6 369.8C734.15 369.8 734.69 369.74 735.23 369.63C735.78 369.53 736.3 369.37 736.81 369.16C737.32 368.94 737.8 368.69 738.26 368.38C738.72 368.07 739.15 367.73 739.54 367.34C739.93 366.95 740.27 366.52 740.58 366.06C740.89 365.6 741.15 365.12 741.36 364.61C741.57 364.1 741.73 363.58 741.83 363.03C741.94 362.49 742 361.95 742 361.4C742 360.84 741.94 360.3 741.83 359.76C741.73 359.22 741.57 358.69 741.36 358.18C741.15 357.67 740.89 357.19 740.58 356.73C740.27 356.27 739.93 355.85 739.54 355.46C739.15 355.07 738.72 354.72 738.26 354.41C737.8 354.1 737.32 353.85 736.81 353.63C736.3 353.42 735.78 353.26 735.23 353.16C734.69 353.05 734.15 353 733.6 353L632.8 353ZM632.8 403.4C632.24 403.4 631.7 403.45 631.16 403.56C630.62 403.66 630.09 403.82 629.58 404.03C629.07 404.25 628.59 404.5 628.13 404.81C627.67 405.12 627.25 405.47 626.86 405.86C626.46 406.25 626.12 406.67 625.81 407.13C625.5 407.59 625.25 408.07 625.03 408.58C624.82 409.09 624.66 409.62 624.56 410.16C624.45 410.7 624.4 411.24 624.4 411.8C624.4 412.35 624.45 412.89 624.56 413.43C624.66 413.98 624.82 414.5 625.03 415.01C625.25 415.52 625.5 416 625.81 416.46C626.12 416.92 626.46 417.35 626.86 417.74C627.25 418.13 627.67 418.47 628.13 418.78C628.59 419.09 629.07 419.34 629.58 419.56C630.09 419.77 630.62 419.93 631.16 420.03C631.7 420.14 632.24 420.2 632.8 420.2L683.2 420.2C683.75 420.2 684.29 420.14 684.83 420.03C685.38 419.93 685.9 419.77 686.41 419.56C686.92 419.34 687.4 419.09 687.86 418.78C688.32 418.47 688.75 418.13 689.14 417.74C689.53 417.35 689.87 416.92 690.18 416.46C690.49 416 690.75 415.52 690.96 415.01C691.17 414.5 691.33 413.98 691.43 413.43C691.54 412.89 691.6 412.35 691.6 411.8C691.6 411.24 691.54 410.7 691.43 410.16C691.33 409.62 691.17 409.09 690.96 408.58C690.75 408.07 690.49 407.59 690.18 407.13C689.87 406.67 689.53 406.25 689.14 405.86C688.75 405.47 688.32 405.12 687.86 404.81C687.4 404.5 686.92 404.25 686.41 404.03C685.9 403.82 685.38 403.66 684.83 403.56C684.29 403.45 683.75 403.4 683.2 403.4L632.8 403.4Z" fill="#FFFFFF" fill-opacity="1.000000" fill-rule="nonzero"/>
		</g>
		<g filter="url(#filter_32_326_dd)">
			<path id="随机文章" d="M850.11 551.55L826 551.55L826 564.15L933.99 564.15L933.99 551.55L909.76 551.55L913.48 545.31L927.98 545.31L927.98 532.59L887.91 532.59L887.91 526.59L872.09 526.59L872.09 532.59L832.01 532.59L832.01 545.31L846.39 545.31L850.11 551.55ZM760 617.44Q781 631 813.99 638.21L813.99 621.63Q788.79 614.8 773.91 606.63Q778.79 602.08 782.85 596.9Q796.59 579.37 801.04 554.57L813.99 554.57L813.99 539.18L767.79 539.18L767.79 527.79L752.2 527.79L752.2 539.18L706 539.18L706 554.57L718.95 554.57Q723.4 579.37 737.14 596.9Q741.21 602.08 746.08 606.63Q731.2 614.8 706 621.63L706 638.21Q738.99 631 760 617.44ZM523.25 575.69L527.44 572.44L527.44 618.52L541.82 618.52L541.82 607.12L557.2 607.12L557.2 618.52L571.59 618.52L571.59 554.68L541.82 554.68Q543.64 551.2 545.07 547.83L573.99 547.83L573.99 534.41L549.15 534.41Q549.88 531.16 550.23 527.9L537.4 527.9Q536.67 532.12 536.2 534.41L523.48 534.41L523.48 547.83L531.51 547.83Q528.4 554.18 523.74 559.05Q521.6 561.28 519.15 563.21L501.39 563.21L501.39 578.79L509.07 578.79Q508.48 594.41 505.85 607.86Q503.21 621.27 497.55 637.01L512.9 637.01Q514.6 631.35 514.96 630.03Q516.42 631.2 518.02 632.13Q520.88 633.78 524.18 634.66Q529.34 636.04 536.93 636.04L575.19 636.04L575.19 621.89L536.93 621.89Q530.81 621.89 526.41 620.57Q524.93 620.11 523.53 619.46Q520.82 618.21 518.44 616.24Q522.75 597.05 523.25 575.69ZM607.48 541.35L587.2 541.35L587.2 556.24L607.48 556.24L607.48 637.01L622.59 637.01L622.59 588.99L632.09 594.88L632.09 576.74L622.59 570.88L622.59 556.24L633.99 556.24L633.99 541.35L622.59 541.35L622.59 528.4L607.48 528.4L607.48 541.35ZM522.05 555.03L518.44 528.99L505 528.99L508.6 555.03L522.05 555.03ZM502.12 530.19L467.79 530.19L467.79 637.01L481.35 637.01L481.35 623.56L496.47 623.56Q497.5 621.91 498.37 620.18Q502.94 611.08 502.94 599.68Q502.94 587.05 497.69 577.23Q496.8 575.57 495.77 573.99Q498.91 566.82 500.5 559.33Q502.12 551.65 502.12 543.64L502.12 530.19ZM633.55 611.72Q630.5 624.26 623.56 638.21L640.73 638.21Q646.97 624.41 649.55 611.93Q652.12 599.45 652.12 583.95L652.12 548.21L669.41 548.21L669.41 637.01L695.54 637.01L695.54 621.27L684.88 621.27L684.88 532.12L636.63 532.12L636.63 583.95Q636.63 599.18 633.55 611.72ZM893.44 551.55L866.43 551.55L862.71 545.31L897.16 545.31L893.44 551.55ZM488.45 552.18Q486.88 563.84 481.35 574.96L481.35 545.54L489.03 545.54Q488.9 548.88 488.45 552.18ZM744.53 579Q738.4 568.48 735.5 554.57L784.49 554.57Q781.59 568.48 775.46 579Q772.5 584.07 768.79 588.51Q764.82 593.26 760 597.28Q755.17 593.26 751.2 588.51Q747.49 584.07 744.53 579ZM590.43 561.16Q590.43 598.36 583.95 630.77L597.63 630.77Q603.29 600.88 603.29 561.16L590.43 561.16ZM557.2 567.75L557.2 575.43L541.82 575.43L541.82 567.75L557.2 567.75ZM887.91 610.58L924.03 610.58L924.03 568.25L835.96 568.25L835.96 610.58L872.09 610.58L872.09 617.09L827.2 617.09L827.2 629.68L872.09 629.68L872.09 639.26L887.91 639.26L887.91 629.68L932.79 629.68L932.79 617.09L887.91 617.09L887.91 610.58ZM488.06 611.52Q485.92 617.2 481.35 623.06L481.35 576.16Q488.91 585.76 490.03 596.07Q490.23 597.86 490.23 599.68Q490.23 602.84 489.65 605.89Q489.11 608.75 488.06 611.52ZM908.56 579.76L908.56 584.8L851.43 584.8L851.43 579.76L908.56 579.76ZM557.2 587.44L557.2 595.11L541.82 595.11L541.82 587.44L557.2 587.44ZM908.56 594.41L908.56 599.3L851.43 599.3L851.43 594.41L908.56 594.41Z" fill="#FFFFFF" fill-opacity="1.000000" fill-rule="evenodd"/>
		</g>
	</g>
</svg>
