<svg t="1724587811555" class="icon" viewBox="0 0 1024 1024" version="1.1" xmlns="http://www.w3.org/2000/svg" p-id="9942" width="200" height="200"><path d="M512 0C228.072727 0 0 228.072727 0 512s228.072727 512 512 512 512-228.072727 512-512S795.927273 0 512 0z m114.036364 232.727273c9.309091-9.309091 25.6-9.309091 34.909091 0l60.50909 60.509091c4.654545 9.309091 4.654545 23.272727 0 32.581818l-51.2 51.2-95.418181-93.090909 51.2-51.2zM297.890909 553.890909l251.345455-246.690909 95.418181 93.090909-251.345454 246.690909h-95.418182v-93.090909zM814.545455 798.254545H209.454545v-90.763636h605.09091v90.763636z" p-id="9943"></path></svg>