<?xml version="1.0" standalone="no"?><!DOCTYPE svg PUBLIC "-//W3C//DTD SVG 1.1//EN" "http://www.w3.org/Graphics/SVG/1.1/DTD/svg11.dtd"><svg t="1723797485455" class="icon" viewBox="0 0 1024 1024" version="1.1" xmlns="http://www.w3.org/2000/svg" p-id="7650" xmlns:xlink="http://www.w3.org/1999/xlink" width="200" height="200"><path d="M512 160a352 352 0 1 0 0 704 352 352 0 0 0 0-704zM96 512c0-229.76 186.24-416 416-416s416 186.24 416 416-186.24 416-416 416S96 741.76 96 512z" p-id="7651"></path><path d="M400 400a32 32 0 0 1 32-32h192a32 32 0 0 1 32 32v192a32 32 0 0 1-64 0v-160h-160a32 32 0 0 1-32-32z" p-id="7652"></path><path d="M646.613333 377.386667a32 32 0 0 1 0 45.226666l-224 224a32 32 0 0 1-45.226666-45.226666l224-224a32 32 0 0 1 45.226666 0z" p-id="7653"></path></svg>