<?xml version="1.0" standalone="no"?><!DOCTYPE svg PUBLIC "-//W3C//DTD SVG 1.1//EN" "http://www.w3.org/Graphics/SVG/1.1/DTD/svg11.dtd"><svg t="1723814068856" class="icon" viewBox="0 0 1056 1024" version="1.1" xmlns="http://www.w3.org/2000/svg" p-id="9534" xmlns:xlink="http://www.w3.org/1999/xlink" width="206.25" height="200"><path d="M899.878788 0 155.151515 0C86.698667 0 31.030303 55.668364 31.030303 124.121212l0 744.727273c0 68.452848 55.668364 124.121212 124.121212 124.121212l744.727273 0c68.452848 0 124.121212-55.668364 124.121212-124.121212L1024 124.121212C1024 55.668364 968.331636 0 899.878788 0zM961.939394 868.848485c0 34.226424-27.834182 62.060606-62.060606 62.060606L155.151515 930.909091c-34.226424 0-62.060606-27.834182-62.060606-62.060606L93.090909 124.121212c0-34.226424 27.834182-62.060606 62.060606-62.060606l744.727273 0c34.226424 0 62.060606 27.834182 62.060606 62.060606L961.939394 868.848485zM662.217697 627.060364l115.215515-92.16 74.224485 49.462303C856.932848 587.869091 862.921697 589.575758 868.817455 589.575758c10.022788 0 19.890424-4.840727 25.848242-13.808485 9.526303-14.273939 5.678545-33.512727-8.595394-43.03903l-93.090909-62.060606c-11.574303-7.695515-26.096485-6.299152-36.336485 1.923879l-0.279273-0.341333-147.611152 118.101333-218.825697-150.465939c-0.093091-0.062061-0.186182-0.062061-0.248242-0.124121-2.544485-1.706667-5.430303-2.637576-8.347152-3.537455-0.961939-0.310303-1.861818-0.961939-2.854788-1.148121-2.637576-0.558545-5.337212-0.248242-8.067879-0.093091-1.241212 0.093091-2.513455-0.248242-3.723636 0-1.365333 0.248242-2.606545 1.086061-3.940848 1.551515-2.513455 0.806788-5.057939 1.520485-7.323152 3.009939-0.093091 0.062061-0.217212 0.062061-0.310303 0.124121l-186.181818 124.121212c-14.273939 9.526303-18.121697 28.765091-8.595394 43.03903C166.322424 615.765333 176.190061 620.606061 186.212848 620.606061c5.895758 0 11.884606-1.706667 17.190788-5.213091l168.711758-112.453818 479.169939 329.417697C856.622545 836.049455 862.766545 837.818182 868.817455 837.818182c9.867636 0 19.580121-4.685576 25.6-13.467152 9.712485-14.118788 6.11297-33.419636-8.005818-43.163152L662.217697 627.060364zM605.090909 403.393939c76.986182 0 139.636364-62.650182 139.636364-139.636364S682.077091 124.121212 605.090909 124.121212 465.454545 186.771394 465.454545 263.757576 528.104727 403.393939 605.090909 403.393939zM605.090909 186.181818C647.881697 186.181818 682.666667 220.966788 682.666667 263.757576S647.881697 341.333333 605.090909 341.333333 527.515152 306.548364 527.515152 263.757576 562.300121 186.181818 605.090909 186.181818z" p-id="9535"></path></svg>