<svg width="91.000000" height="27.000000" viewBox="0 0 91 27" fill="none" xmlns="http://www.w3.org/2000/svg" xmlns:xlink="http://www.w3.org/1999/xlink">
	<defs>
		<clipPath id="clip18_2">
			<rect id="画板 1" width="91.000000" height="27.000000" fill-opacity="0"/>
		</clipPath>
	</defs>
	<g clip-path="url(#clip18_2)">
		<path id="Morick" d="M80.56 26.8L77.06 26.8L77.03 0.44L80.56 0.47L80.56 15.6L85.98 7.61L89.8 7.61L83.96 15.84L90.29 26.8L86.27 26.8L81.64 18.78L80.56 20.49L80.56 26.8ZM57.53 4.64L53.72 4.64L53.75 0.51L57.53 0.51L57.53 4.64ZM3.46 26.69L-0.4 26.69L-0.4 0.68L4.29 0.68L10.21 16.68L16.09 0.68L20.57 0.68L20.57 26.69L16.75 26.69L16.75 7.72L11.57 21.51L8.57 21.51L3.46 7.83L3.46 26.69ZM72.62 7.81C73.6 8.96 74.25 10.79 74.57 13.29L71.18 13.78C71.04 12.09 70.75 10.88 70.32 10.14C69.89 9.39 69.24 9.02 68.38 9.02C67.33 9.02 66.56 9.58 66.07 10.7C65.58 11.82 65.34 13.62 65.34 16.12C65.34 18.62 65.58 20.42 66.05 21.52C66.53 22.61 67.31 23.16 68.38 23.16C69.22 23.16 69.87 22.77 70.32 22C70.77 21.23 71.07 20 71.21 18.32L74.68 18.85C74.4 21.23 73.71 23.04 72.62 24.26C71.54 25.48 70.08 26.1 68.24 26.1C63.79 26.1 61.56 22.77 61.56 16.12Q61.56 11.08 63.25 8.58Q63.86 7.68 64.7 7.1Q66.19 6.08 68.38 6.08C70.22 6.08 71.64 6.65 72.62 7.81ZM45.87 26.34L42.2 26.34L42.2 6.85L45.28 6.85L45.77 10.52C46.24 9.26 46.85 8.28 47.59 7.56C48.34 6.85 49.18 6.5 50.11 6.5C50.27 6.5 50.4 6.52 50.5 6.56L50.43 10.97C50.26 10.88 49.99 10.84 49.62 10.84C48.48 10.84 47.57 11.35 46.89 12.39C46.21 13.43 45.87 14.86 45.87 16.68L45.87 26.34ZM31.18 26.34C26.93 26.34 24.8 23.15 24.8 16.78C24.8 10.39 26.93 7.2 31.18 7.2Q33.17 7.2 34.55 8.12Q37.61 10.17 37.61 16.78Q37.61 23.36 34.57 25.41Q33.18 26.34 31.18 26.34ZM57.42 26.8L53.78 26.8L53.78 7.33L57.42 7.33L57.42 26.8ZM33.29 21.95C33.72 20.89 33.94 19.16 33.94 16.78C33.94 14.38 33.72 12.65 33.29 11.6C32.86 10.56 32.16 10.03 31.18 10.03Q30.67 10.03 30.26 10.23Q29.51 10.6 29.07 11.62Q28.41 13.21 28.41 16.78Q28.41 20.32 29.07 21.94C29.52 23.01 30.22 23.54 31.18 23.54C32.16 23.54 32.86 23.01 33.29 21.95Z" fill-opacity="1.000000" fill-rule="evenodd"/>
	</g>
</svg>
