<svg t="1722156689737" class="icon" viewBox="0 0 1024 1024" version="1.1" xmlns="http://www.w3.org/2000/svg" p-id="11769" xmlns:xlink="http://www.w3.org/1999/xlink" width="200" height="200">
<path d="M442.38 105.47c55.25 0 100.2 44.95 100.2 100.2v33.4c0 24.59 19.94 44.53 44.53 44.53h155.87v111.33c0 24.59 19.94 44.53 44.53 44.53h33.4c28.72 0 56.17 12.53 75.32 34.38 19.32 22.05 27.84 50.26 23.97 79.44-6.53 49.36-51.56 86.58-104.73 86.58H787.5c-24.59 0-44.53 19.94-44.53 44.53v178.13H614.72C584.59 795.54 518 751.2 442.38 751.2s-142.2 44.34-172.33 111.33H141.78v-139.4C208.77 693 253.12 626.42 253.12 550.8s-44.34-142.2-111.33-172.33V283.6h155.87c24.59 0 44.53-19.94 44.53-44.53V211.1c0-53.17 37.22-98.19 86.58-104.73 4.53-0.6 9.11-0.9 13.61-0.9m0-44.53c-6.4 0-12.9 0.42-19.46 1.29-72.84 9.64-125.27 75.4-125.27 148.87v27.97H141.78c-24.6 0-44.53 19.94-44.53 44.53v126.54c63.61 15.2 111.33 72.56 111.33 140.66S160.86 676.26 97.25 691.46v171.07c0 24.6 19.94 44.53 44.53 44.53h159.94c15.2-63.61 72.56-111.33 140.66-111.33s125.46 47.72 140.66 111.33h159.94c24.59 0 44.53-19.94 44.53-44.53V684.4h27.97c73.47 0 139.23-52.43 148.87-125.27 11.67-88.17-57.44-164.19-143.44-164.19h-33.4V283.6c0-24.6-19.94-44.53-44.53-44.53H587.11v-33.4c0-79.61-65.12-144.73-144.73-144.73z" fill="#80d6ff" p-id="11771"></path>
<path d="M686.99 368.01v91.18c0 12.67-10.36 23.03-23.03 23.03-12.67 0-23.03-10.36-23.03-23.03v-91.18c0-12.67 10.36-23.03 23.03-23.03 12.67 0 23.03 10.37 23.03 23.03z" fill="#F9AAB4" p-id="11772"></path>
<path d="M663.96 344.98c-12.67 0-23.03 10.36-23.03 23.03v91.18c0 12.67 10.36 23.03 23.03 23.03s23.03-10.36 23.03-23.03v-91.18c0-12.66-10.36-23.03-23.03-23.03z" fill="#80d6ff" p-id="11773"></path>
</svg>