<svg width="389.859375" height="132.051178" viewBox="0 0 389.859 132.051" fill="none" xmlns="http://www.w3.org/2000/svg" xmlns:xlink="http://www.w3.org/1999/xlink">
	<desc>
			Created with Pixso.
	</desc>
	<defs/>
	<path id="path" d="M105.67 13.27C103.2 11.41 100.64 9.75 98.01 8.28C96.11 7.23 93.71 7.72 92.41 9.46L75.91 31.37L74.74 32.94C72.95 35.31 70.1 36.6 67.13 36.47C66.05 36.42 64.97 36.43 63.89 36.49C55.6 37.02 47.58 41.02 42.2 48.18C37.87 53.93 35.97 60.75 36.32 67.42C36.38 68.62 37.07 69.72 38.17 70.22C40.44 71.25 42.19 73.35 42.62 76.05C43.24 79.86 40.9 83.6 37.2 84.71C32.85 86.01 28.37 83.34 27.39 78.98C26.86 76.62 27.47 74.27 28.85 72.5C29.62 71.52 30.01 70.3 29.9 69.06C29.14 60.51 31.42 51.66 36.99 44.26C44.01 34.92 54.7 29.98 65.55 29.92C67.64 29.91 69.6 28.91 70.86 27.24L86.05 7.06C87.24 5.48 86.47 3.21 84.57 2.65C59.14 -4.81 30.67 3.59 13.61 25.8C-8.49 54.58 -3.12 96.08 25.6 118.26C28.28 120.34 31.08 122.17 33.96 123.77C35.85 124.82 38.23 124.31 39.53 122.58L56.03 100.67L57.2 99.1C58.99 96.73 61.84 95.44 64.81 95.57C65.89 95.62 66.97 95.61 68.05 95.55C76.34 95.02 84.36 91.02 89.74 83.86C94.07 78.11 95.97 71.29 95.62 64.62C95.56 63.42 94.87 62.32 93.77 61.82C91.5 60.79 89.75 58.69 89.32 55.99C88.7 52.18 91.04 48.44 94.74 47.34C99.09 46.03 103.57 48.7 104.55 53.06C105.08 55.42 104.47 57.77 103.09 59.54C102.32 60.52 101.93 61.74 102.04 62.98C102.8 71.54 100.52 80.39 94.95 87.79C87.93 97.12 77.24 102.06 66.39 102.12C64.3 102.14 62.34 103.13 61.08 104.8L45.89 124.98C44.71 126.55 45.46 128.82 47.34 129.38C72.97 136.91 101.71 128.33 118.72 105.73C140.65 76.59 134.81 35.2 105.67 13.27Z" fill="#00A0FF" fill-opacity="1.000000" fill-rule="nonzero"/>
	<path id="path" d="M214.65 31.3L214.65 29.73C214.65 28.6 213.73 27.68 212.59 27.68L161.17 27.68C160.03 27.68 159.12 28.6 159.12 29.74L159.12 32.87C159.12 34.01 160.03 34.93 161.17 34.93L204.8 34.93C206.05 34.93 207.02 36.03 206.83 37.27C205.61 45.39 201.77 60.56 189.78 75.13C188.93 76.16 187.36 76.14 186.54 75.09C176.51 62.26 173.42 49.11 172.58 44.26C172.39 43.2 171.41 42.47 170.34 42.59L168.7 42.76L167.25 42.91C166.06 43.03 165.22 44.14 165.44 45.31C166.47 50.87 170.21 66.15 181.99 80.7C182.67 81.54 182.62 82.78 181.82 83.51C167.48 96.66 154.59 99.54 149.97 100.17C148.95 100.31 148.18 101.18 148.19 102.21L148.2 105.38C148.21 106.6 149.27 107.56 150.48 107.42C155.96 106.77 170.59 103.67 186.76 88.8C187.56 88.07 188.77 88.07 189.57 88.81C197.38 96.04 207.37 103.02 220.84 107.3C221.93 107.65 223.1 107.01 223.42 105.92L224.31 102.91C224.62 101.83 224.01 100.71 222.94 100.37C210.69 96.46 201.65 90.17 194.56 83.72C193.74 82.97 193.7 81.71 194.42 80.87C214.4 57.48 214.65 32.44 214.65 31.3Z" fill="#00A0FF" fill-opacity="1.000000" fill-rule="nonzero"/>
	<path id="path" d="M250.34 24.4L247.21 24.4C246.07 24.4 245.15 25.32 245.15 26.45L245.15 37.45C245.15 38.59 244.24 39.5 243.1 39.5L235.72 39.5C234.59 39.5 233.67 40.42 233.67 41.56L233.67 44.7C233.67 45.83 234.59 46.75 235.72 46.75L243.1 46.75C244.24 46.75 245.15 47.67 245.15 48.8L245.15 64.73C245.15 65.87 244.24 66.79 243.1 66.79L235.72 66.79C234.59 66.79 233.67 67.71 233.67 68.84L233.67 71.98C233.67 73.11 234.59 74.03 235.72 74.03L243.1 74.03C244.24 74.03 245.15 74.95 245.15 76.08L245.15 91.15C245.15 94.42 243.85 99.75 235.51 100.46C234.43 100.55 233.59 101.42 233.59 102.51L233.59 105.63C233.59 106.83 234.6 107.79 235.79 107.69C243.89 106.99 252.4 102.39 252.4 91.15L252.4 76.08C252.4 74.95 253.32 74.03 254.45 74.03L261.01 74.03C262.14 74.03 263.06 73.11 263.06 71.98L263.06 68.84C263.06 67.71 262.14 66.79 261.01 66.79L254.45 66.79C253.32 66.79 252.4 65.87 252.4 64.73L252.4 48.8C252.4 47.67 253.32 46.75 254.45 46.75L261.01 46.75C262.14 46.75 263.06 45.83 263.06 44.7L263.06 41.56C263.06 40.42 262.14 39.5 261.01 39.5L254.45 39.5C253.32 39.5 252.4 38.59 252.4 37.45L252.4 26.45C252.4 25.32 251.48 24.4 250.34 24.4Z" fill="#00A0FF" fill-opacity="1.000000" fill-rule="nonzero"/>
	<path id="path" d="M266.68 105.14C266.68 106.27 267.6 107.19 268.74 107.19L291.87 107.19C302.11 107.19 310.44 99.25 310.44 89.49L310.44 40.86C310.44 39.73 309.52 38.81 308.39 38.81L268.74 38.81C267.6 38.81 266.68 39.73 266.68 40.86L266.68 105.14ZM291.87 99.95L275.98 99.95C274.84 99.95 273.93 99.03 273.93 97.89L273.93 76.08C273.93 74.95 274.84 74.03 275.98 74.03L301.15 74.03C302.28 74.03 303.2 74.95 303.2 76.08L303.2 89.49C303.2 95.26 298.12 99.95 291.87 99.95ZM303.2 48.1L303.2 64.73C303.2 65.87 302.28 66.79 301.15 66.79L275.98 66.79C274.85 66.79 273.93 65.87 273.93 64.73L273.93 48.1C273.93 46.97 274.85 46.05 275.98 46.05L301.15 46.05C302.28 46.05 303.2 46.97 303.2 48.1Z" fill="#00A0FF" fill-opacity="1.000000" fill-rule="nonzero"/>
	<path id="path" d="M298.21 24.35L277.76 24.35C276.63 24.35 275.71 25.26 275.71 26.4L275.71 29.54C275.71 30.67 276.63 31.59 277.76 31.59L298.21 31.59C299.34 31.59 300.26 30.67 300.26 29.54L300.26 26.4C300.26 25.26 299.34 24.35 298.21 24.35Z" fill="#00A0FF" fill-opacity="1.000000" fill-rule="nonzero"/>
	<path id="path" d="M376.34 27.53L333.76 27.53C332.63 27.53 331.71 28.45 331.71 29.59L331.71 32.72C331.71 33.86 332.63 34.78 333.76 34.78L376.34 34.78C377.47 34.78 378.39 33.86 378.39 32.72L378.39 29.59C378.39 28.45 377.47 27.53 376.34 27.53Z" fill="#00A0FF" fill-opacity="1.000000" fill-rule="nonzero"/>
	<path id="path" d="M358.14 63.85L387.8 63.85C388.94 63.85 389.85 62.93 389.85 61.79L389.85 58.66C389.85 57.52 388.94 56.6 387.8 56.6L322.29 56.6C321.16 56.6 320.24 57.52 320.24 58.66L320.24 61.79C320.24 62.93 321.16 63.85 322.29 63.85L342.57 63.85C344.2 63.85 345.18 65.67 344.28 67.03L330.78 91.38C330.42 91.92 330.15 92.46 329.96 93.01C328.83 96.31 329.36 99.85 331.41 102.72C333.56 105.73 337.12 107.53 340.92 107.53L377.9 107.53C379.56 107.53 381.08 106.7 381.96 105.31C382.82 103.95 382.93 102.27 382.24 100.81L373.66 84.17C373.14 83.16 371.9 82.77 370.89 83.29L368.1 84.73C367.1 85.25 366.7 86.48 367.22 87.49L372.28 97.29C372.98 98.65 371.99 100.28 370.45 100.28L340.92 100.28C339.43 100.28 338.11 99.64 337.31 98.51C336.94 98 336.41 96.98 336.72 95.71C336.77 95.5 336.87 95.3 337 95.11L353.39 66.39C354.45 64.8 356.23 63.85 358.14 63.85Z" fill="#00A0FF" fill-opacity="1.000000" fill-rule="nonzero"/>
</svg>
