<svg width="1400.000000" height="840.000000" viewBox="0 0 1400 840" fill="none" xmlns="http://www.w3.org/2000/svg" xmlns:xlink="http://www.w3.org/1999/xlink">
	<desc>
			Created with Pixso.
	</desc>
	<defs>
		<filter id="filter_46_35_dd" x="341.431274" y="352.765625" width="719.364014" height="154.250000" filterUnits="userSpaceOnUse" color-interpolation-filters="sRGB">
			<feFlood flood-opacity="0" result="BackgroundImageFix"/>
			<feColorMatrix in="SourceAlpha" type="matrix" values="0 0 0 0 0 0 0 0 0 0 0 0 0 0 0 0 0 0 127 0" result="hardAlpha"/>
			<feOffset dx="0" dy="4"/>
			<feGaussianBlur stdDeviation="1.33333"/>
			<feComposite in2="hardAlpha" operator="out" k2="-1" k3="1"/>
			<feColorMatrix type="matrix" values="0 0 0 0 0 0 0 0 0 0 0 0 0 0 0 0 0 0 0.25 0"/>
			<feBlend mode="normal" in2="BackgroundImageFix" result="effect_dropShadow_1"/>
			<feBlend mode="normal" in="SourceGraphic" in2="effect_dropShadow_1" result="shape"/>
		</filter>
		<clipPath id="clip46_33">
			<rect id="piracy" width="1400.000000" height="840.000000" fill="white" fill-opacity="0"/>
		</clipPath>
		<linearGradient x1="-0.000033" y1="0.000000" x2="1399.786621" y2="14.660156" id="paint_linear_46_34_0" gradientUnits="userSpaceOnUse">
			<stop stop-color="#F0C238"/>
			<stop offset="1.000000" stop-color="#F05440"/>
		</linearGradient>
	</defs>
	<rect id="piracy" width="1400.000000" height="840.000000" fill="#FFFFFF" fill-opacity="1.000000"/>
	<g clip-path="url(#clip46_33)">
		<rect id="矩形 5" width="1400.000000" height="840.000000" fill="url(#paint_linear_46_34_0)" fill-opacity="1.000000"/>
		<g filter="url(#filter_46_35_dd)">
			<path id="聊聊 盗 版" d="M998.44 488.03Q994.7 493.61 990.7 499.01L1014.72 499.01Q1020.97 489.71 1026.72 479.01L1036.01 499.01L1056.8 499.01L1037.26 456.75Q1048.93 429.56 1055.51 397.25L995.03 397.25L995.03 375.81Q1029.92 374.99 1053.59 372.45L1053.59 352.76Q1018.24 356.28 976.17 356.28L976.17 426.98Q976.17 446.51 973.74 461.63Q971.36 476.75 965.27 491.78L965.27 427.49L933.74 427.49L933.74 412.76L969.76 412.76L969.76 392.29L961.44 392.29L961.44 354.99L942.88 354.99L942.88 392.29L933.74 392.29L933.74 357.41L914.56 357.41L914.56 431.32Q914.56 450.85 912.88 466.43Q911.2 482.02 906.4 499.01L927.03 499.01Q932.49 474.21 933.43 447.96L946.4 447.96L946.4 499.01L983.82 499.01Q989.76 481.86 992.38 464.36Q995.03 446.82 995.03 426.98L995.03 416.59L1014.41 461.24Q1007.13 475.1 998.44 488.03ZM444.33 352.92Q420.62 357.06 400.62 357.06L400.62 464.75L419.18 464.75Q414.25 482.68 401.44 499.01L424.65 499.01Q433.28 483.31 437.03 467.49Q440.78 451.63 440.78 433.07L440.78 382.68L424.49 382.68L424.49 446.35L416.64 446.35L416.64 376.75Q431.05 375.81 444.33 373.23L444.33 352.92ZM604.33 352.92Q580.62 357.06 560.62 357.06L560.62 464.75L579.18 464.75Q574.25 482.68 561.44 499.01L584.65 499.01Q593.28 483.31 597.03 467.49Q600.78 451.63 600.78 433.07L600.78 382.68L584.49 382.68L584.49 446.35L576.64 446.35L576.64 376.75Q591.05 375.81 604.33 373.23L604.33 352.92ZM349.29 471.78L345.43 472.6L345.43 492.1L377.26 485.89L377.26 499.01L394.41 499.01L394.41 375.65L397.93 375.65L397.93 355.81L345.43 355.81L345.43 375.65L349.29 375.65L349.29 471.78ZM509.29 471.78L505.43 472.6L505.43 492.1L537.26 485.89L537.26 499.01L554.41 499.01L554.41 375.65L557.93 375.65L557.93 355.81L505.43 355.81L505.43 375.65L509.29 375.65L509.29 471.78ZM749.45 366.04L712.46 356.12L712.46 378.03L749.45 388.11L749.45 366.04ZM761.01 372.68Q758.55 380.1 754.25 388.74L776.79 388.74Q779.68 381.55 781.6 374.36L828 374.36L828 387.8L847.85 387.8L847.85 356.43L764.96 356.43Q763.51 365.22 761.01 372.68ZM488.63 357.72L447.18 357.72L447.18 499.01L464.14 499.01L464.14 378.5L472.15 378.5L472.15 465.22L466.87 465.22L466.87 485.73L488.63 485.73L488.63 357.72ZM648.63 357.72L607.18 357.72L607.18 499.01L624.14 499.01L624.14 378.5L632.15 378.5L632.15 465.22L626.87 465.22L626.87 485.73L648.63 485.73L648.63 357.72ZM377.26 375.65L377.26 393.07L366.4 393.07L366.4 375.65L377.26 375.65ZM537.26 375.65L537.26 393.07L526.4 393.07L526.4 375.65L537.26 375.65ZM787.22 391.51Q777.76 405.81 756.95 412.6L756.95 433.39Q782 427.34 796.56 411.6Q798.19 409.84 799.68 407.96L847.85 435.65L847.85 413.54L809.45 391.32Q811.83 385.38 813.43 378.35L793.12 378.35Q791.15 385.58 787.22 391.51ZM749.45 399.64L710.89 410.69L710.89 432.92L749.45 421.71L749.45 399.64ZM377.26 412.29L377.26 429.71L366.4 429.71L366.4 412.29L377.26 412.29ZM537.26 412.29L537.26 429.71L526.4 429.71L526.4 412.29L537.26 412.29ZM1032.65 416.43Q1029.76 426.35 1024.8 438.85L1015.51 416.43L1032.65 416.43ZM721.6 477.88L704.8 477.88L704.8 498.03L855.19 498.03L855.19 477.88L838.39 477.88L838.39 437.06L721.6 437.06L721.6 477.88ZM377.26 448.93L377.26 466.35L366.4 468.43L366.4 448.93L377.26 448.93ZM537.26 448.93L537.26 466.35L526.4 468.43L526.4 448.93L537.26 448.93ZM755.66 456.9L755.66 477.88L741.75 477.88L741.75 456.9L755.66 456.9ZM786.25 456.9L786.25 477.88L773.75 477.88L773.75 456.9L786.25 456.9ZM818.24 456.9L818.24 477.88L804.33 477.88L804.33 456.9L818.24 456.9Z" fill="#FFFFFF" fill-opacity="1.000000" fill-rule="evenodd"/>
		</g>
		<path id="path" d="M781 311C844.51 311 896 362.48 896 426C896 489.51 844.51 541 781 541C717.48 541 666 489.51 666 426C666 362.48 717.48 311 781 311ZM689 426C689 428.13 689.07 430.27 689.22 432.4C689.37 434.54 689.59 436.66 689.89 438.78C690.19 440.9 690.56 443 691 445.1C691.44 447.19 691.96 449.26 692.55 451.32C693.14 453.37 693.8 455.41 694.53 457.42C695.26 459.43 696.06 461.41 696.93 463.36C697.8 465.32 698.73 467.24 699.73 469.13C700.74 471.02 701.8 472.87 702.94 474.69C704.07 476.5 705.26 478.27 706.52 480C707.77 481.74 709.09 483.42 710.46 485.06C711.83 486.7 713.26 488.29 714.75 489.83C716.23 491.37 717.76 492.86 719.35 494.29C720.94 495.72 722.58 497.1 724.26 498.42C725.94 499.74 727.67 501 729.44 502.2C731.21 503.39 733.02 504.53 734.87 505.6C736.73 506.67 738.61 507.68 740.53 508.62C742.45 509.56 744.4 510.43 746.39 511.24C748.37 512.04 750.37 512.78 752.41 513.44C754.44 514.11 756.49 514.7 758.57 515.22C760.64 515.74 762.73 516.19 764.84 516.57C766.94 516.94 769.06 517.24 771.19 517.47C773.31 517.7 775.44 517.85 777.58 517.93C779.72 518.01 781.86 518.02 783.99 517.95C786.13 517.88 788.26 517.73 790.39 517.52C792.52 517.3 794.64 517.01 796.74 516.64C798.85 516.27 800.94 515.83 803.02 515.32C805.1 514.81 807.15 514.23 809.19 513.57C811.22 512.92 813.23 512.19 815.22 511.39C817.2 510.6 819.16 509.74 821.08 508.8C823.01 507.87 824.9 506.87 826.76 505.81C828.61 504.75 830.43 503.62 832.2 502.43C833.98 501.24 835.71 499.99 837.4 498.68L708.3 369.6C705.19 373.6 702.43 377.83 700.02 382.29C697.6 386.76 695.58 391.39 693.93 396.18C692.29 400.98 691.06 405.88 690.23 410.88C689.4 415.89 688.99 420.92 689 426ZM781 334C759.74 334 740.17 341.21 724.59 353.32L853.69 482.4C855 480.71 856.25 478.98 857.44 477.2C858.63 475.43 859.76 473.61 860.82 471.75C861.89 469.9 862.88 468.01 863.82 466.08C864.75 464.16 865.61 462.2 866.41 460.22C867.2 458.23 867.93 456.22 868.58 454.19C869.24 452.15 869.82 450.09 870.33 448.02C870.85 445.94 871.28 443.85 871.65 441.74C872.02 439.63 872.31 437.52 872.53 435.39C872.75 433.26 872.89 431.13 872.96 428.99C873.03 426.85 873.02 424.71 872.94 422.58C872.87 420.44 872.71 418.31 872.48 416.18C872.26 414.05 871.95 411.94 871.58 409.83C871.2 407.73 870.75 405.64 870.23 403.56C869.71 401.49 869.12 399.44 868.45 397.4C867.79 395.37 867.05 393.36 866.25 391.38C865.44 389.4 864.57 387.45 863.63 385.53C862.69 383.61 861.68 381.72 860.61 379.87C859.54 378.02 858.4 376.21 857.21 374.44C856.01 372.67 854.75 370.94 853.43 369.26C852.11 367.57 850.74 365.94 849.3 364.35C847.87 362.76 846.38 361.23 844.84 359.74C843.3 358.26 841.71 356.83 840.07 355.46C838.43 354.08 836.75 352.77 835.02 351.52C833.28 350.26 831.51 349.07 829.7 347.93C827.88 346.8 826.03 345.74 824.14 344.73C822.25 343.73 820.33 342.79 818.37 341.93C816.42 341.06 814.44 340.26 812.43 339.53C810.42 338.8 808.38 338.14 806.32 337.55C804.27 336.96 802.19 336.44 800.1 336C798.01 335.56 795.9 335.19 793.78 334.89C791.67 334.59 789.54 334.37 787.41 334.22C785.27 334.07 783.13 334 781 334Z" fill="#FF0000" fill-opacity="1.000000" fill-rule="nonzero"/>
	</g>
</svg>
