<svg width="1400.000000" height="840.000000" viewBox="0 0 1400 840" fill="none" xmlns="http://www.w3.org/2000/svg" xmlns:xlink="http://www.w3.org/1999/xlink">
	<desc>
			Created with Pixso.
	</desc>
	<defs>
		<clipPath id="clip28_1">
			<rect id="油漆调色板" width="260.000000" height="260.000000" transform="translate(570.000000 194.000000)" fill="white" fill-opacity="0"/>
		</clipPath>
		<filter id="filter_20_212_dd" x="353.707031" y="493.591797" width="694.285156" height="133.771484" filterUnits="userSpaceOnUse" color-interpolation-filters="sRGB">
			<feFlood flood-opacity="0" result="BackgroundImageFix"/>
			<feColorMatrix in="SourceAlpha" type="matrix" values="0 0 0 0 0 0 0 0 0 0 0 0 0 0 0 0 0 0 127 0" result="hardAlpha"/>
			<feOffset dx="0" dy="4"/>
			<feGaussianBlur stdDeviation="1.33333"/>
			<feComposite in2="hardAlpha" operator="out" k2="-1" k3="1"/>
			<feColorMatrix type="matrix" values="0 0 0 0 0 0 0 0 0 0 0 0 0 0 0 0 0 0 0.25 0"/>
			<feBlend mode="normal" in2="BackgroundImageFix" result="effect_dropShadow_1"/>
			<feBlend mode="normal" in="SourceGraphic" in2="effect_dropShadow_1" result="shape"/>
		</filter>
		<clipPath id="clip20_1">
			<rect id="maincolor" width="1400.000000" height="840.000000" fill="white" fill-opacity="0"/>
		</clipPath>
		<linearGradient x1="-0.000033" y1="0.000000" x2="1399.786621" y2="14.660156" id="paint_linear_29_4_0" gradientUnits="userSpaceOnUse">
			<stop stop-color="#FFB591"/>
			<stop offset="1.000000" stop-color="#EB5454"/>
		</linearGradient>
	</defs>
	<rect id="maincolor" width="1400.000000" height="840.000000" fill="#FFFFFF" fill-opacity="1.000000"/>
	<g clip-path="url(#clip20_1)">
		<rect id="矩形 5" width="1400.000000" height="840.000000" fill="url(#paint_linear_29_4_0)" fill-opacity="1.000000"/>
		<g clip-path="url(#clip28_1)">
			<path id="path" d="M700 454C628.5 454 570 395.5 570 324C570 252.5 628.5 194 700 194C771.5 194 830 252.5 830 324C830 395.5 771.5 454 700 454Z" fill="#EC6646" fill-opacity="1.000000" fill-rule="nonzero"/>
			<path id="path" d="M727.33 259.89L708.42 255.82L670.89 260.23C670.89 260.23 666.23 256.03 668.82 243.38C653.55 250.09 654.84 270.48 654.84 270.48C654.84 270.48 629.54 298.88 627.4 310.76C625.26 322.63 623.62 334.77 626.1 347.67C628.59 360.58 646.1 383.99 646.1 383.99L693.27 453.82C695.5 453.94 697.74 454 700 454C771.5 454 830 395.5 830 324C830 315.69 829.17 307.56 827.67 299.68L727.33 259.89Z" fill="#BF4231" fill-opacity="1.000000" fill-rule="nonzero"/>
			<path id="path" d="M734.59 364.16C746.77 363.32 756.75 357.94 764.32 348.43C774.34 335.84 775.74 321.49 771.4 306.58C764.26 282.02 747.94 266.31 724.2 258.66C718.75 256.91 707.28 252.32 683.92 257.73C679.66 258.64 677.79 259.32 673.85 260.92C673.85 260.92 651.89 272.74 645.48 279.52C634.43 291.21 627.93 306.24 625.91 322.13C622.55 348.69 635.67 375.71 657.41 390.83C668.9 398.81 683 403.88 697.07 404C704.68 404.06 711.27 401.24 713.56 393.35C714.84 388.93 713.87 385.15 711.55 381.31C709.51 377.92 706.26 375.53 708.54 371.21L734.59 364.16Z" fill="#DACEB6" fill-opacity="1.000000" fill-rule="nonzero"/>
			<path id="path" d="M734.21 366.51C734.01 366.51 733.81 366.47 733.63 366.4C733.44 366.32 733.27 366.21 733.12 366.08C732.97 365.94 732.86 365.78 732.77 365.6C732.68 365.41 732.63 365.22 732.62 365.02C732.6 364.81 732.63 364.6 732.7 364.4C732.76 364.2 732.87 364.02 733.01 363.86C733.15 363.7 733.31 363.57 733.5 363.48C733.69 363.38 733.89 363.33 734.1 363.31C745.71 362.52 755.33 357.43 762.69 348.18C771.7 336.86 773.99 323.27 769.49 307.78C762.69 284.37 747.16 268.61 723.33 260.94L722.33 260.61C716.45 258.66 705.5 255.03 683.9 260.04C679.71 260.94 677.88 261.6 674.07 263.15C673.26 263.49 672.32 263.09 671.99 262.27C671.91 262.07 671.87 261.87 671.87 261.66C671.87 261.45 671.91 261.24 672 261.05C672.08 260.85 672.2 260.68 672.35 260.53C672.5 260.38 672.67 260.27 672.87 260.19C676.86 258.56 678.79 257.86 683.2 256.92C705.64 251.72 717.59 255.67 723.34 257.57L724.31 257.89C749.21 265.91 765.44 282.4 772.56 306.88C777.37 323.43 774.89 337.99 765.19 350.18C757.25 360.15 746.86 365.65 734.32 366.51C734.29 366.51 734.25 366.51 734.21 366.51ZM696.93 406.35L696.68 406.35C682.85 406.24 668.45 401.46 656.13 392.89C633.2 376.95 620.57 349.39 623.95 322.68C626.07 305.96 632.98 290.92 643.93 279.18C644.08 279.03 644.24 278.9 644.44 278.82C644.63 278.73 644.83 278.68 645.04 278.67C645.26 278.67 645.46 278.7 645.66 278.77C645.86 278.85 646.04 278.96 646.19 279.1C646.35 279.25 646.47 279.41 646.56 279.61C646.64 279.8 646.69 280 646.7 280.21C646.71 280.43 646.67 280.63 646.6 280.83C646.52 281.03 646.42 281.21 646.27 281.36C635.78 292.61 629.16 307.03 627.12 323.08C623.94 348.23 636.33 375.23 657.95 390.27C669.75 398.47 683.51 403.04 696.7 403.15C704.73 403.32 709.8 400.02 711.65 393.66C712.69 390.05 712.13 386.73 709.81 382.88C709.39 382.18 708.91 381.53 708.45 380.89C706.6 378.35 704.5 375.47 706.76 371.21C707.17 370.43 708.14 370.13 708.92 370.54C709.11 370.64 709.27 370.77 709.4 370.93C709.54 371.1 709.64 371.28 709.7 371.48C709.76 371.69 709.79 371.89 709.77 372.1C709.75 372.32 709.69 372.52 709.59 372.7C708.32 375.1 709.16 376.44 711.04 379.01C711.55 379.72 712.08 380.45 712.55 381.23C715.33 385.84 716.02 390.07 714.72 394.55C712.51 402.17 706.19 406.35 696.93 406.35Z" fill="#474341" fill-opacity="1.000000" fill-rule="nonzero"/>
			<path id="path" d="M754.15 320.06C754.15 326.45 748.97 331.62 742.58 331.62C736.19 331.62 731.01 326.45 731.01 320.06C731.01 313.67 736.19 308.49 742.58 308.49C748.97 308.49 754.15 313.67 754.15 320.06Z" fill="#E9495B" fill-opacity="1.000000" fill-rule="nonzero"/>
			<path id="path" d="M742.58 332.74C735.59 332.74 729.9 327.05 729.9 320.06C729.9 313.06 735.59 307.37 742.58 307.37C749.57 307.37 755.27 313.06 755.27 320.06C755.27 327.05 749.58 332.74 742.58 332.74ZM742.58 309.61C736.82 309.61 732.13 314.3 732.13 320.06C732.13 325.82 736.82 330.51 742.58 330.51C748.34 330.51 753.03 325.82 753.03 320.06C753.03 314.3 748.34 309.61 742.58 309.61Z" fill="#474341" fill-opacity="1.000000" fill-rule="nonzero"/>
			<path id="path" d="M726.79 284.52C726.79 290.91 721.61 296.08 715.22 296.08C708.83 296.08 703.65 290.91 703.65 284.52C703.65 278.13 708.83 272.95 715.22 272.95C721.61 272.95 726.79 278.13 726.79 284.52Z" fill="#92BE33" fill-opacity="1.000000" fill-rule="nonzero"/>
			<path id="path" d="M715.22 297.2C708.23 297.2 702.54 291.51 702.54 284.52C702.54 277.52 708.23 271.83 715.22 271.83C722.22 271.83 727.91 277.52 727.91 284.52C727.9 291.51 722.22 297.2 715.22 297.2ZM715.22 274.07C709.46 274.07 704.78 278.76 704.78 284.52C704.78 290.28 709.46 294.96 715.22 294.96C720.98 294.96 725.67 290.28 725.67 284.52C725.67 278.76 720.98 274.07 715.22 274.07Z" fill="#474341" fill-opacity="1.000000" fill-rule="nonzero"/>
			<path id="path" d="M660.19 285.88C657.3 287.99 655.42 291.39 655.42 295.24C655.42 301.63 660.6 306.8 666.99 306.8C670.4 306.8 673.46 305.33 675.58 302.98L671.89 289.03L660.19 285.88Z" fill="#EC6646" fill-opacity="1.000000" fill-rule="nonzero"/>
			<path id="path" d="M666.99 307.92C659.99 307.92 654.3 302.23 654.3 295.24C654.3 291.19 656.25 287.36 659.52 284.98C659.64 284.89 659.78 284.83 659.92 284.79C660.07 284.76 660.21 284.75 660.36 284.78C660.5 284.8 660.64 284.85 660.77 284.93C660.89 285 661 285.1 661.09 285.22C661.45 285.72 661.34 286.42 660.84 286.79C660.18 287.27 659.58 287.83 659.04 288.46C658.51 289.08 658.06 289.76 657.68 290.5C657.31 291.23 657.03 292 656.83 292.8C656.64 293.6 656.54 294.41 656.54 295.24C656.54 301 661.23 305.68 666.99 305.68C669.94 305.68 672.77 304.42 674.75 302.23C675.16 301.77 675.87 301.73 676.33 302.15C676.79 302.56 676.82 303.27 676.41 303.73C675.21 305.06 673.78 306.09 672.14 306.82C670.5 307.55 668.78 307.92 666.99 307.92Z" fill="#474341" fill-opacity="1.000000" fill-rule="nonzero"/>
			<path id="path" d="M663.32 336.14C663.32 342.52 658.14 347.7 651.76 347.7C645.37 347.7 640.19 342.52 640.19 336.14C640.19 329.75 645.37 324.57 651.76 324.57C658.14 324.57 663.32 329.75 663.32 336.14Z" fill="#F7BE15" fill-opacity="1.000000" fill-rule="nonzero"/>
			<path id="path" d="M651.76 348.82C644.76 348.82 639.07 343.13 639.07 336.14C639.07 329.14 644.76 323.45 651.76 323.45C658.75 323.45 664.44 329.14 664.44 336.14C664.44 343.13 658.75 348.82 651.76 348.82ZM651.76 325.69C645.99 325.69 641.31 330.38 641.31 336.14C641.31 341.9 645.99 346.58 651.76 346.58C657.52 346.58 662.2 341.9 662.2 336.14C662.2 330.38 657.52 325.69 651.76 325.69Z" fill="#474341" fill-opacity="1.000000" fill-rule="nonzero"/>
			<path id="path" d="M685.89 371.39C685.89 377.78 680.71 382.96 674.32 382.96C667.93 382.96 662.75 377.78 662.75 371.39C662.75 365.01 667.93 359.83 674.32 359.83C680.71 359.83 685.89 365.01 685.89 371.39Z" fill="#0F95BC" fill-opacity="1.000000" fill-rule="nonzero"/>
			<path id="path" d="M674.32 384.08C667.33 384.08 661.64 378.39 661.64 371.39C661.64 364.4 667.32 358.71 674.32 358.71C681.32 358.71 687.01 364.4 687.01 371.39C687.01 378.39 681.31 384.08 674.32 384.08ZM674.32 360.95C668.56 360.95 663.87 365.64 663.87 371.4C663.87 377.16 668.56 381.84 674.32 381.84C680.08 381.84 684.77 377.16 684.77 371.4C684.77 365.64 680.08 360.95 674.32 360.95ZM759.99 337.79C759.89 337.79 759.8 337.78 759.7 337.75C759.61 337.73 759.52 337.69 759.44 337.64C759.35 337.59 759.27 337.53 759.21 337.47C759.14 337.4 759.08 337.32 759.03 337.24C758.98 337.15 758.94 337.06 758.91 336.97C758.89 336.88 758.87 336.78 758.87 336.68C758.87 336.59 758.88 336.49 758.91 336.4C758.93 336.3 758.96 336.21 759.01 336.13C760.42 333.59 761.49 330.92 762.18 328.17C762.33 327.57 762.93 327.22 763.53 327.36C763.68 327.39 763.81 327.46 763.93 327.54C764.05 327.63 764.15 327.74 764.22 327.87C764.3 328 764.35 328.13 764.37 328.28C764.39 328.43 764.38 328.57 764.35 328.72C763.61 331.65 762.47 334.51 760.97 337.21C760.76 337.6 760.43 337.79 759.99 337.79ZM764.07 324.88C764.03 324.88 764 324.88 763.96 324.88C763.81 324.87 763.67 324.82 763.54 324.75C763.41 324.69 763.3 324.59 763.2 324.48C763.11 324.36 763.04 324.24 762.99 324.09C762.95 323.95 762.93 323.81 762.95 323.66C764.11 311.26 759.56 298.6 750.15 287.99C750.05 287.88 749.98 287.75 749.93 287.61C749.88 287.47 749.86 287.33 749.87 287.18C749.88 287.03 749.92 286.89 749.98 286.76C750.05 286.62 750.14 286.51 750.25 286.41C750.36 286.31 750.48 286.23 750.62 286.19C750.76 286.14 750.91 286.12 751.06 286.13C751.2 286.13 751.35 286.17 751.48 286.24C751.61 286.3 751.73 286.39 751.83 286.5C761.65 297.58 766.39 310.85 765.18 323.87C765.15 324.15 765.03 324.4 764.82 324.59C764.6 324.79 764.35 324.88 764.07 324.88Z" fill="#474341" fill-opacity="1.000000" fill-rule="nonzero"/>
			<path id="path" d="M709.82 334.37C703.54 322.64 697.61 312.79 691.86 304.25L677.87 311.74C681.81 321.31 687.13 332.56 693.45 344.36C710.21 375.67 727.58 399.03 732.25 396.53C736.57 394.22 728.51 370.58 714 342.25L709.82 334.37Z" fill="#FDFBF8" fill-opacity="1.000000" fill-rule="nonzero"/>
			<path id="path" d="M731.58 398.29C720.63 398.29 693.26 347.38 692.04 345.11C685.92 333.67 680.5 322.34 676.39 312.35C676.32 312.17 676.28 311.98 676.27 311.78C676.27 311.58 676.3 311.39 676.37 311.21C676.43 311.02 676.53 310.85 676.66 310.7C676.79 310.55 676.94 310.43 677.12 310.34L691.11 302.85C691.29 302.75 691.47 302.7 691.67 302.67C691.87 302.65 692.06 302.66 692.25 302.71C692.44 302.75 692.62 302.84 692.78 302.95C692.95 303.06 693.08 303.2 693.19 303.36C699.24 312.36 705.14 322.25 711.24 333.62C711.34 333.8 711.4 334 711.43 334.22C711.45 334.43 711.43 334.64 711.37 334.85C711.31 335.05 711.21 335.24 711.08 335.4C710.94 335.57 710.78 335.7 710.59 335.8C710.4 335.9 710.2 335.97 709.99 335.99C709.78 336.01 709.57 335.99 709.36 335.92C709.16 335.86 708.98 335.76 708.81 335.62C708.65 335.48 708.52 335.32 708.42 335.13C702.65 324.36 697.06 314.94 691.34 306.35L679.9 312.47C683.9 322.03 689.06 332.76 694.86 343.6C713.9 379.17 728.63 395.8 731.52 395.12C733.26 393.48 729.46 375.96 712.57 342.98C712.48 342.79 712.42 342.59 712.4 342.38C712.39 342.17 712.41 341.96 712.48 341.76C712.54 341.56 712.64 341.38 712.78 341.22C712.92 341.05 713.08 340.93 713.27 340.83C713.46 340.73 713.66 340.67 713.87 340.66C714.08 340.64 714.29 340.66 714.49 340.73C714.69 340.79 714.87 340.9 715.03 341.03C715.2 341.17 715.32 341.33 715.42 341.52C718.13 346.81 741.63 393.33 733.01 397.95C732.57 398.18 732.1 398.29 731.58 398.29Z" fill="#474341" fill-opacity="1.000000" fill-rule="nonzero"/>
			<path id="path" d="M677.97 311.85L691.77 304.46L709.01 333.5L709.01 334.82L693.22 343.09L677.97 311.85Z" fill="#8B7A5C" fill-opacity="1.000000" fill-rule="nonzero"/>
			<path id="path" d="M671.97 290.43L677.28 287.59L691.77 304.46L677.97 311.85L671.97 290.43Z" fill="#FDFBF8" fill-opacity="1.000000" fill-rule="nonzero"/>
			<path id="path" d="M677.97 313.45C677.76 313.45 677.54 313.41 677.34 313.32C676.88 313.12 676.57 312.77 676.43 312.28L670.43 290.86C670.33 290.5 670.35 290.15 670.5 289.8C670.64 289.46 670.88 289.19 671.21 289.02L676.52 286.18C676.85 286 677.2 285.94 677.57 286.01C677.94 286.08 678.24 286.26 678.49 286.54L692.99 303.42C693.3 303.79 693.43 304.28 693.34 304.76C693.25 305.26 692.98 305.63 692.52 305.87L678.72 313.26C678.49 313.39 678.24 313.45 677.97 313.45ZM673.86 291.23L678.97 309.5L689.26 303.99L676.9 289.6L673.86 291.23ZM693.28 344.45C692.98 344.45 692.71 344.37 692.45 344.21C692.19 344.06 692 343.85 691.86 343.58C691.76 343.39 691.71 343.19 691.69 342.98C691.67 342.77 691.69 342.56 691.76 342.36C691.82 342.16 691.92 341.98 692.06 341.81C692.2 341.65 692.36 341.52 692.55 341.43L708.85 333.02C709.03 332.93 709.23 332.88 709.44 332.86C709.65 332.85 709.85 332.87 710.05 332.94C710.25 333.01 710.43 333.11 710.59 333.24C710.75 333.38 710.88 333.54 710.97 333.72C711.07 333.91 711.13 334.11 711.14 334.32C711.16 334.53 711.14 334.73 711.08 334.93C711.02 335.13 710.92 335.31 710.79 335.47C710.66 335.64 710.5 335.77 710.31 335.87L694.02 344.27C693.79 344.39 693.54 344.45 693.28 344.45Z" fill="#474341" fill-opacity="1.000000" fill-rule="nonzero"/>
			<path id="path" d="M657.33 281.95C660.97 288.75 669.21 291.43 675.73 287.94C682.25 284.45 684.59 276.1 680.95 269.3C679.58 266.72 677.53 264.74 675.17 263.46C673.06 261.68 670.47 260.47 668.64 258.41C665 254.32 665.76 247.14 670.17 243.9C665.13 243.12 659.79 246.63 657.99 251.41C651.71 268.16 656.2 279.83 657.33 281.95Z" fill="#F7BE15" fill-opacity="1.000000" fill-rule="nonzero"/>
			<path id="path" d="M669.63 291.06C664.15 291.06 658.76 288.01 655.92 282.7C655.85 282.58 649.31 269.99 656.5 250.84C658.62 245.19 664.72 241.43 670.42 242.32C670.74 242.37 671.02 242.51 671.26 242.73C671.5 242.94 671.65 243.21 671.73 243.52C671.81 243.84 671.79 244.15 671.68 244.45C671.57 244.76 671.38 245 671.12 245.19C669.38 246.47 668.23 248.59 667.97 251C667.72 253.42 668.39 255.73 669.83 257.34C670.81 258.44 672.07 259.3 673.42 260.21C674.3 260.8 675.21 261.42 676.08 262.13C678.73 263.61 680.91 265.82 682.36 268.54C686.41 276.11 683.77 285.44 676.48 289.34C674.34 290.49 672.06 291.06 669.63 291.06ZM666.43 245.72C663.4 246.55 660.64 248.91 659.49 251.97C652.81 269.77 658.68 281.09 658.74 281.2C661.96 287.21 669.24 289.6 674.98 286.53C680.71 283.46 682.76 276.07 679.54 270.06C678.35 267.84 676.58 266.04 674.41 264.87C674.31 264.82 674.22 264.75 674.14 264.69C673.37 264.04 672.52 263.47 671.63 262.86C670.18 261.88 668.69 260.87 667.44 259.47C665.41 257.18 664.44 253.97 664.8 250.66C664.99 248.86 665.55 247.17 666.43 245.72ZM691.58 326.47C690.04 323.18 688.43 319.97 686.61 316.83C685.88 315.57 683.93 316.71 684.66 317.97C686.48 321.11 688.09 324.32 689.63 327.6C690.25 328.92 692.19 327.77 691.58 326.47ZM695.97 334.64C695.26 333.53 694.62 332.38 694.03 331.2C693.38 329.9 691.43 331.05 692.08 332.34C692.67 333.52 693.32 334.67 694.02 335.78C694.79 337.01 696.74 335.88 695.97 334.64Z" fill="#474341" fill-opacity="1.000000" fill-rule="nonzero"/>
			<path id="path" d="M667.09 272.37C662.47 265.05 657.81 257.18 660.44 248.24C660.86 246.85 658.68 246.25 658.27 247.64C655.46 257.17 660.17 265.64 665.14 273.51C665.91 274.74 667.86 273.6 667.09 272.37ZM661.38 277.16C658.73 272.06 656.25 266.95 656.79 261.06C656.92 259.62 654.67 259.63 654.53 261.06C653.96 267.32 656.62 272.88 659.43 278.3C660.1 279.59 662.05 278.45 661.38 277.16ZM635.19 315.43C635.09 315.43 634.99 315.42 634.89 315.39C634.74 315.34 634.61 315.28 634.5 315.19C634.38 315.09 634.29 314.98 634.21 314.85C634.14 314.72 634.1 314.58 634.08 314.44C634.06 314.29 634.08 314.14 634.12 314C637.33 302.82 643.18 292.46 651.05 284.02C651.15 283.92 651.27 283.83 651.41 283.78C651.54 283.72 651.68 283.69 651.83 283.68C651.98 283.68 652.12 283.7 652.25 283.76C652.39 283.81 652.51 283.88 652.62 283.98C652.73 284.08 652.81 284.2 652.87 284.33C652.93 284.47 652.97 284.61 652.97 284.75C652.98 284.9 652.96 285.04 652.91 285.18C652.86 285.32 652.78 285.44 652.69 285.55C645.06 293.73 639.38 303.78 636.27 314.62C636.2 314.86 636.07 315.05 635.87 315.2C635.67 315.35 635.44 315.43 635.19 315.43ZM632.36 335.49C632.21 335.49 632.07 335.46 631.93 335.4C631.79 335.35 631.67 335.26 631.57 335.16C631.46 335.05 631.38 334.93 631.33 334.8C631.27 334.66 631.24 334.52 631.24 334.37C631.25 329.63 631.71 324.88 632.61 320.24C632.74 319.63 633.33 319.25 633.93 319.36C634.07 319.39 634.21 319.44 634.33 319.52C634.46 319.61 634.56 319.71 634.64 319.83C634.73 319.96 634.78 320.09 634.81 320.24C634.84 320.38 634.84 320.53 634.81 320.67C633.93 325.2 633.49 329.76 633.48 334.37C633.48 334.52 633.45 334.66 633.39 334.8C633.34 334.94 633.26 335.06 633.15 335.16C633.05 335.27 632.93 335.35 632.79 335.4C632.65 335.46 632.51 335.49 632.36 335.49ZM676.2 395.27C676.06 395.27 675.92 395.24 675.78 395.19C672.17 393.75 668.73 391.98 665.45 389.89C665.32 389.81 665.22 389.71 665.13 389.58C665.05 389.46 664.99 389.33 664.96 389.18C664.93 389.04 664.92 388.89 664.95 388.75C664.98 388.6 665.03 388.47 665.11 388.34C665.19 388.22 665.29 388.11 665.41 388.03C665.53 387.94 665.67 387.88 665.81 387.85C665.96 387.82 666.1 387.82 666.25 387.84C666.4 387.87 666.53 387.92 666.66 388C669.81 390.02 673.13 391.72 676.61 393.11C676.75 393.17 676.87 393.25 676.98 393.35C677.08 393.45 677.17 393.57 677.23 393.71C677.28 393.84 677.31 393.99 677.32 394.14C677.32 394.28 677.29 394.43 677.24 394.57C677.15 394.78 677.01 394.95 676.82 395.08C676.64 395.2 676.43 395.27 676.2 395.27ZM694.74 399.4C690.67 399.4 685.82 398.52 680.19 396.75C680.05 396.71 679.92 396.64 679.81 396.54C679.69 396.45 679.6 396.33 679.53 396.2C679.46 396.07 679.42 395.93 679.41 395.78C679.4 395.63 679.41 395.49 679.46 395.35C679.5 395.21 679.57 395.08 679.67 394.96C679.76 394.85 679.88 394.76 680.01 394.69C680.14 394.62 680.28 394.58 680.43 394.57C680.57 394.55 680.72 394.57 680.86 394.61C695.4 399.18 704.17 397.58 706.94 389.86C706.99 389.72 707.07 389.59 707.17 389.48C707.27 389.37 707.38 389.29 707.52 389.22C707.65 389.16 707.79 389.12 707.94 389.12C708.09 389.11 708.23 389.13 708.37 389.18C708.51 389.23 708.64 389.3 708.75 389.4C708.86 389.5 708.94 389.62 709.01 389.75C709.07 389.89 709.11 390.03 709.11 390.18C709.12 390.33 709.1 390.47 709.05 390.61C706.95 396.46 702.15 399.4 694.74 399.4ZM677.97 313.45C677.61 313.45 677.28 313.34 676.99 313.11C676.7 312.89 676.51 312.6 676.42 312.24C676.33 311.88 676.36 311.54 676.51 311.2C676.66 310.87 676.89 310.61 677.22 310.44L691.02 303.05C691.21 302.95 691.41 302.89 691.62 302.87C691.83 302.85 692.04 302.87 692.24 302.93C692.44 302.99 692.62 303.09 692.79 303.23C692.95 303.36 693.08 303.52 693.18 303.71C693.28 303.9 693.35 304.1 693.37 304.31C693.39 304.52 693.37 304.72 693.3 304.93C693.24 305.13 693.14 305.31 693.01 305.48C692.88 305.64 692.71 305.77 692.53 305.87L678.73 313.26C678.49 313.39 678.23 313.45 677.97 313.45Z" fill="#474341" fill-opacity="1.000000" fill-rule="nonzero"/>
		</g>
		<g filter="url(#filter_20_212_dd)">
			<path id="Hugo 主题色" d="M741.47 586.11L694.42 586.11L694.42 601.49L804.57 601.49L804.57 586.11L757.52 586.11L757.52 560.68L795.08 560.68L795.08 545.56L757.52 545.56L757.52 522.27L800.85 522.27L800.85 506.92L757.9 506.92L754.07 493.59L737.75 493.59L741.59 506.92L698.14 506.92L698.14 522.27L741.47 522.27L741.47 545.56L703.91 545.56L703.91 560.68L741.47 560.68L741.47 586.11ZM885.46 563.64Q880.31 569.09 870.35 570.4L870.35 585.52Q881.24 583.59 888.57 578.87Q895.03 574.68 898.68 568.77Q899.17 567.97 899.61 567.15Q904.31 570.64 907.1 575.28Q909.57 579.4 910.54 584.44L925.19 584.44Q920.62 568.12 910.42 559.01L922.05 559.01L922.05 516.64L903.1 516.64L904.07 511.84L924.1 511.84L924.1 497.07L870.35 497.07L870.35 511.84L889.65 511.84L888.68 516.64L872.13 516.64L872.13 560.21L885.93 560.21L885.93 531.15L908.14 531.15L908.14 557.07Q906.7 555.87 903.33 553.97Q903.45 552.88 903.45 550.6L903.45 534.16L890.62 534.16L890.62 549.98Q890.62 555.3 888.43 559.48Q887.26 561.72 885.46 563.64ZM865.89 497.31L819.1 497.31L819.1 540.99L865.89 540.99L865.89 497.31ZM935.5 536.92Q939.81 535.36 943.29 533.67L943.29 603.04L1043.99 603.04L1043.99 587.81L958.91 587.81L958.91 571.72L1038.46 571.72L1038.46 523.59L1016.98 523.59Q1024.06 512.43 1028.73 497.43L957.71 497.43Q957.24 498.38 956.73 499.31Q949.89 511.72 935.5 519.98L935.5 536.92ZM429.57 592L429.57 508L409.76 508L409.76 540.29L377.51 540.29L377.51 508L357.7 508L357.7 592L377.51 592L377.51 556.49L409.76 556.49L409.76 592L429.57 592ZM851.39 509.09L851.39 514.36L833.72 514.36L833.72 509.09L851.39 509.09ZM1005.82 512.69Q1003.3 517.96 998.99 523.59L958.18 523.59Q963.22 518.93 967.17 512.69L1005.82 512.69ZM851.39 524.09L851.39 529.36L833.72 529.36L833.72 524.09L851.39 524.09ZM529.36 618.39Q536.74 619.36 544.07 619.36Q563.47 619.36 571.46 609.81Q577.05 603.12 577.05 591.76L577.05 527.19L558.33 527.19L558.33 531.15Q552.58 526.89 546.32 525.92Q544.48 525.64 542.6 525.64Q535.21 525.64 529.37 528.64Q528.19 529.25 527.07 529.97Q525.43 531.04 523.97 532.31Q519.52 536.19 516.76 542.02Q513.1 549.75 513.1 559.71Q513.1 569.67 516.7 577.29Q519.14 582.44 523 586.09Q524.84 587.84 527.02 589.24Q528.17 589.98 529.39 590.6Q535.25 593.55 542.6 593.55Q551.1 593.55 557.4 589.82Q557.87 589.54 558.33 589.24Q558.33 593.63 556.33 596.7Q555.42 598.08 554.11 599.2Q549.93 602.81 541.78 602.81Q528.95 602.81 516.09 599.9L516.09 615.64Q521.98 617.43 529.36 618.39ZM602.8 589.36Q610.53 593.55 620.73 593.55Q630.93 593.55 638.6 589.36Q642.39 587.3 645.32 584.39Q648.36 581.37 650.5 577.43Q654.69 569.67 654.69 559.12Q654.69 544.97 647.73 536.58Q646.73 535.37 645.58 534.28Q644.47 533.23 643.27 532.31Q634.56 525.64 620.73 525.64Q606.64 525.64 597.87 532.47Q596.78 533.32 595.77 534.28Q594.62 535.37 593.62 536.58Q586.66 544.97 586.66 559.12Q586.66 569.67 590.85 577.43Q592.98 581.34 596.01 584.34Q598.97 587.28 602.8 589.36ZM486.35 588.37Q486.93 590.3 487.9 592.11L505.89 592.11Q504.45 589.01 503.95 586.31Q503.48 583.59 503.48 579.63L503.48 527.19L484.3 527.19L484.3 573.16Q481.42 575.33 477.15 577.14Q472.9 578.93 470.38 578.93Q467.32 578.93 465.21 577.51Q464.67 577.15 464.2 576.7Q463.31 575.86 462.76 574.83Q461.85 573.15 461.85 570.99L461.85 527.19L442.66 527.19L442.66 574.24Q442.66 580.01 445.16 584.34Q446.35 586.41 448.11 588.16Q449.15 589.19 450.33 590.02Q455.33 593.55 462.82 593.55Q468.83 593.55 475.01 590.97Q481.19 588.39 485.61 584.44Q485.79 586.46 486.35 588.37ZM983.37 538.47L983.37 556.84L958.91 556.84L958.91 538.47L983.37 538.47ZM1023.1 538.47L1023.1 556.84L998.49 556.84L998.49 538.47L1023.1 538.47ZM533.36 569.16Q531.47 564.85 531.47 559.71Q531.47 554.3 533.5 549.8Q533.58 549.63 533.67 549.46Q535.89 544.83 539.55 542.19L539.55 542.19Q542.36 540.17 545.4 539.7Q546.33 539.55 547.29 539.55Q550.54 539.55 554.5 541.19Q558.45 542.81 560.97 547.96L560.97 570.17L560.38 572.54Q557.75 577 554.03 578.37Q550.31 579.75 547.29 579.75Q546.37 579.75 545.48 579.61Q542.39 579.14 539.55 577.05Q539.36 576.91 539.18 576.77Q535.78 574.12 533.67 569.82Q533.51 569.49 533.36 569.16ZM609.8 574.01Q605.61 568.35 605.61 559.12Q605.61 549.52 609.69 544.53Q611.33 542.54 613.42 541.35Q616.56 539.55 620.73 539.55Q625.02 539.55 628.19 541.44Q630.17 542.62 631.72 544.53Q635.73 549.52 635.73 559.12Q635.73 568.35 631.6 574.01Q629.36 577.06 626.35 578.46Q623.81 579.63 620.73 579.63Q617.77 579.63 615.29 578.53Q612.16 577.15 609.8 574.01ZM924.69 602.81L924.69 588.27L863.49 588.27Q860.38 588.27 855.35 588.04L855.35 580.48L867.71 580.48L867.71 567.03L855.35 567.03L855.35 558.74L868.06 558.74L868.06 545.44L815.5 545.44L815.5 558.74L840.46 558.74L840.46 584.9Q837.21 583.82 833.49 581.45Q834.57 573.89 834.57 562.46L820.42 562.46Q820.42 575.06 818.9 584.2Q817.41 593.31 813.1 604.01L827.98 604.01Q828.68 601.96 830.38 596.45Q836.51 599.79 844.18 601.28Q851.86 602.81 863.49 602.81L924.69 602.81Z" fill="#FFFFFF" fill-opacity="1.000000" fill-rule="evenodd"/>
		</g>
	</g>
</svg>
